%TF.GenerationSoftware,KiCad,Pcbnew,9.0.4*%
%TF.CreationDate,2026-06-01T14:33:05-04:00*%
%TF.ProjectId,joulemeter,6a6f756c-656d-4657-9465-722e6b696361,rev?*%
%TF.SameCoordinates,Original*%
%TF.FileFunction,Soldermask,Bot*%
%TF.FilePolarity,Negative*%
%FSLAX46Y46*%
G04 Gerber Fmt 4.6, Leading zero omitted, Abs format (unit mm)*
G04 Created by KiCad (PCBNEW 9.0.4) date 2026-06-01 14:33:05*
%MOMM*%
%LPD*%
G01*
G04 APERTURE LIST*
%ADD10C,1.700000*%
%ADD11R,1.700000X1.700000*%
%ADD12C,2.000000*%
%ADD13R,1.800000X1.800000*%
%ADD14C,1.800000*%
%ADD15C,1.400000*%
%ADD16O,3.474000X6.744000*%
G04 APERTURE END LIST*
D10*
%TO.C,ESP32-C3*%
X118720000Y-68730000D03*
X118720000Y-66190000D03*
X118720000Y-63650000D03*
X118720000Y-61110000D03*
X118720000Y-58570000D03*
D11*
X103180000Y-50950000D03*
D10*
X103180000Y-53490000D03*
X103180000Y-56030000D03*
X103180000Y-58570000D03*
X103180000Y-61110000D03*
X103180000Y-63650000D03*
D11*
X118720000Y-50950000D03*
D10*
X118720000Y-53490000D03*
X118720000Y-56030000D03*
X103180000Y-66190000D03*
X103180000Y-68730000D03*
%TD*%
D12*
%TO.C,SW*%
X126700000Y-69750000D03*
X133200000Y-69750000D03*
X126700000Y-74250000D03*
X133200000Y-74250000D03*
%TD*%
D11*
%TO.C,ADS1115*%
X114965000Y-29345000D03*
D10*
X112425000Y-29345000D03*
X109885000Y-29345000D03*
X107345000Y-29345000D03*
X104805000Y-29345000D03*
X102265000Y-29345000D03*
X99725000Y-29345000D03*
X97185000Y-29345000D03*
X94645000Y-29345000D03*
X92105000Y-29345000D03*
%TD*%
D11*
%TO.C,MPU6050*%
X113030000Y-75000000D03*
D10*
X110490000Y-75000000D03*
X107950000Y-75000000D03*
X105410000Y-75000000D03*
X102870000Y-75000000D03*
X100330000Y-75000000D03*
X97790000Y-75000000D03*
X95250000Y-75000000D03*
%TD*%
D11*
%TO.C,Voltage*%
X145625000Y-29635000D03*
D10*
X143085000Y-29635000D03*
X140545000Y-29635000D03*
%TD*%
D13*
%TO.C,LED*%
X127950000Y-63000000D03*
D14*
X125410000Y-63000000D03*
%TD*%
D11*
%TO.C,BuckConverter*%
X139200000Y-56430000D03*
D10*
X139200000Y-53890000D03*
X139200000Y-51350000D03*
%TD*%
D15*
%TO.C,R1*%
X132410000Y-63000000D03*
X137490000Y-63000000D03*
%TD*%
D11*
%TO.C,Current*%
X125400000Y-29430000D03*
D10*
X127940000Y-29430000D03*
X130480000Y-29430000D03*
%TD*%
D11*
%TO.C,SD_Card*%
X95950000Y-51000000D03*
D10*
X95950000Y-53540000D03*
X95950000Y-56080000D03*
X95950000Y-58620000D03*
X95950000Y-61160000D03*
X95950000Y-63700000D03*
%TD*%
D16*
%TO.C,J1*%
X145010000Y-65650000D03*
X145010000Y-73550000D03*
%TD*%
M02*
