%TF.GenerationSoftware,KiCad,Pcbnew,9.0.4*%
%TF.CreationDate,2026-06-01T14:33:05-04:00*%
%TF.ProjectId,joulemeter,6a6f756c-656d-4657-9465-722e6b696361,rev?*%
%TF.SameCoordinates,Original*%
%TF.FileFunction,Copper,L2,Bot*%
%TF.FilePolarity,Positive*%
%FSLAX46Y46*%
G04 Gerber Fmt 4.6, Leading zero omitted, Abs format (unit mm)*
G04 Created by KiCad (PCBNEW 9.0.4) date 2026-06-01 14:33:05*
%MOMM*%
%LPD*%
G01*
G04 APERTURE LIST*
%TA.AperFunction,ComponentPad*%
%ADD10C,1.700000*%
%TD*%
%TA.AperFunction,ComponentPad*%
%ADD11R,1.700000X1.700000*%
%TD*%
%TA.AperFunction,ComponentPad*%
%ADD12C,2.000000*%
%TD*%
%TA.AperFunction,ComponentPad*%
%ADD13R,1.800000X1.800000*%
%TD*%
%TA.AperFunction,ComponentPad*%
%ADD14C,1.800000*%
%TD*%
%TA.AperFunction,ComponentPad*%
%ADD15C,1.400000*%
%TD*%
%TA.AperFunction,ComponentPad*%
%ADD16O,3.270000X6.540000*%
%TD*%
G04 APERTURE END LIST*
D10*
%TO.P,ESP32-C3,0,GPIO0*%
%TO.N,Net-(ESP32-C3-GPIO0)*%
X118720000Y-68730000D03*
%TO.P,ESP32-C3,1,GPIO1*%
%TO.N,Net-(D1-A)*%
X118720000Y-66190000D03*
%TO.P,ESP32-C3,2,GPIO2*%
%TO.N,unconnected-(ESP32-C3-GPIO2-Pad2)*%
X118720000Y-63650000D03*
%TO.P,ESP32-C3,3,GPIO3*%
%TO.N,unconnected-(ESP32-C3-GPIO3-Pad3)*%
X118720000Y-61110000D03*
%TO.P,ESP32-C3,4,GPIO4-SCK*%
%TO.N,SCK*%
X118720000Y-58570000D03*
D11*
%TO.P,ESP32-C3,5,5-MISO*%
%TO.N,MISO*%
X103180000Y-50950000D03*
D10*
%TO.P,ESP32-C3,6,6-MOSI*%
%TO.N,MOSI*%
X103180000Y-53490000D03*
%TO.P,ESP32-C3,7,7-SS*%
%TO.N,Net-(ESP32-C3-7-SS)*%
X103180000Y-56030000D03*
%TO.P,ESP32-C3,8,8-SDA*%
%TO.N,SDA*%
X103180000Y-58570000D03*
%TO.P,ESP32-C3,9,9-SCL*%
%TO.N,SCL*%
X103180000Y-61110000D03*
%TO.P,ESP32-C3,10,GPIO10*%
%TO.N,unconnected-(ESP32-C3-GPIO10-Pad10)*%
X103180000Y-63650000D03*
D11*
%TO.P,ESP32-C3,11,5V*%
%TO.N,+5V*%
X118720000Y-50950000D03*
D10*
%TO.P,ESP32-C3,12,GND*%
%TO.N,GND*%
X118720000Y-53490000D03*
%TO.P,ESP32-C3,13,3.3V*%
%TO.N,3.3V*%
X118720000Y-56030000D03*
%TO.P,ESP32-C3,20,20-RX*%
%TO.N,unconnected-(ESP32-C3-20-RX-Pad20)*%
X103180000Y-66190000D03*
%TO.P,ESP32-C3,21,21-TX*%
%TO.N,unconnected-(ESP32-C3-21-TX-Pad21)*%
X103180000Y-68730000D03*
%TD*%
D12*
%TO.P,SW,1,1*%
%TO.N,Net-(ESP32-C3-GPIO0)*%
X126700000Y-69750000D03*
X133200000Y-69750000D03*
%TO.P,SW,2,2*%
%TO.N,GND*%
X126700000Y-74250000D03*
X133200000Y-74250000D03*
%TD*%
D11*
%TO.P,ADS1115,1,VDD*%
%TO.N,+5V*%
X114965000Y-29345000D03*
D10*
%TO.P,ADS1115,2,GND*%
%TO.N,GND*%
X112425000Y-29345000D03*
%TO.P,ADS1115,3,SCL*%
%TO.N,SCL*%
X109885000Y-29345000D03*
%TO.P,ADS1115,4,SDA*%
%TO.N,SDA*%
X107345000Y-29345000D03*
%TO.P,ADS1115,5,ADDR*%
%TO.N,unconnected-(ADS1115-ADDR-Pad5)*%
X104805000Y-29345000D03*
%TO.P,ADS1115,6,ALRT*%
%TO.N,unconnected-(ADS1115-ALRT-Pad6)*%
X102265000Y-29345000D03*
%TO.P,ADS1115,7,A0*%
%TO.N,Net-(ADS1115-A0)*%
X99725000Y-29345000D03*
%TO.P,ADS1115,8,A1*%
%TO.N,Net-(ADS1115-A1)*%
X97185000Y-29345000D03*
%TO.P,ADS1115,9,A2*%
%TO.N,unconnected-(ADS1115-A2-Pad9)*%
X94645000Y-29345000D03*
%TO.P,ADS1115,10,A3*%
%TO.N,unconnected-(ADS1115-A3-Pad10)*%
X92105000Y-29345000D03*
%TD*%
D11*
%TO.P,MPU6050,1,VCC*%
%TO.N,3.3V*%
X113030000Y-75000000D03*
D10*
%TO.P,MPU6050,2,GND*%
%TO.N,GND*%
X110490000Y-75000000D03*
%TO.P,MPU6050,3,SCL*%
%TO.N,SCL*%
X107950000Y-75000000D03*
%TO.P,MPU6050,4,SDA*%
%TO.N,SDA*%
X105410000Y-75000000D03*
%TO.P,MPU6050,5,XDA*%
%TO.N,unconnected-(MPU1-XDA-Pad5)*%
X102870000Y-75000000D03*
%TO.P,MPU6050,6,XCL*%
%TO.N,unconnected-(MPU1-XCL-Pad6)*%
X100330000Y-75000000D03*
%TO.P,MPU6050,7,ADO*%
%TO.N,unconnected-(MPU1-ADO-Pad7)*%
X97790000Y-75000000D03*
%TO.P,MPU6050,8,INT*%
%TO.N,unconnected-(MPU1-INT-Pad8)*%
X95250000Y-75000000D03*
%TD*%
D11*
%TO.P,Voltage,1,S*%
%TO.N,Net-(ADS1115-A1)*%
X145625000Y-29635000D03*
D10*
%TO.P,Voltage,2,+*%
%TO.N,unconnected-(VoltageSensor1-+-Pad2)*%
X143085000Y-29635000D03*
%TO.P,Voltage,3,-*%
%TO.N,GND*%
X140545000Y-29635000D03*
%TD*%
D13*
%TO.P,LED,1,K*%
%TO.N,Net-(D1-K)*%
X127950000Y-63000000D03*
D14*
%TO.P,LED,2,A*%
%TO.N,Net-(D1-A)*%
X125410000Y-63000000D03*
%TD*%
D11*
%TO.P,BuckConverter,1,External_Power*%
%TO.N,External_Power*%
X139200000Y-56430000D03*
D10*
%TO.P,BuckConverter,2,VCC*%
%TO.N,+5V*%
X139200000Y-53890000D03*
%TO.P,BuckConverter,3,GND*%
%TO.N,GND*%
X139200000Y-51350000D03*
%TD*%
D15*
%TO.P,R1,1*%
%TO.N,Net-(D1-K)*%
X132410000Y-63000000D03*
%TO.P,R1,2*%
%TO.N,GND*%
X137490000Y-63000000D03*
%TD*%
D11*
%TO.P,Current,1,VCC*%
%TO.N,+5V*%
X125400000Y-29430000D03*
D10*
%TO.P,Current,2,OUT*%
%TO.N,Net-(ADS1115-A0)*%
X127940000Y-29430000D03*
%TO.P,Current,3,GND*%
%TO.N,GND*%
X130480000Y-29430000D03*
%TD*%
D11*
%TO.P,SD_Card,1,GND*%
%TO.N,GND*%
X95950000Y-51000000D03*
D10*
%TO.P,SD_Card,2,MISO*%
%TO.N,MISO*%
X95950000Y-53540000D03*
%TO.P,SD_Card,3,CLK*%
%TO.N,SCK*%
X95950000Y-56080000D03*
%TO.P,SD_Card,4,MOSI*%
%TO.N,MOSI*%
X95950000Y-58620000D03*
%TO.P,SD_Card,5,CS*%
%TO.N,Net-(ESP32-C3-7-SS)*%
X95950000Y-61160000D03*
%TO.P,SD_Card,6,3.3V*%
%TO.N,3.3V*%
X95950000Y-63700000D03*
%TD*%
D16*
%TO.P,J1,1,1*%
%TO.N,External_Power*%
X145010000Y-65650000D03*
%TO.P,J1,2,2*%
%TO.N,GND*%
X145010000Y-73550000D03*
%TD*%
%TA.AperFunction,Conductor*%
%TO.N,GND*%
G36*
X150257539Y-20170185D02*
G01*
X150303294Y-20222989D01*
X150314500Y-20274500D01*
X150314500Y-84765500D01*
X150294815Y-84832539D01*
X150242011Y-84878294D01*
X150190500Y-84889500D01*
X86009500Y-84889500D01*
X85942461Y-84869815D01*
X85896706Y-84817011D01*
X85885500Y-84765500D01*
X85885500Y-74893713D01*
X93899500Y-74893713D01*
X93899500Y-75106287D01*
X93932754Y-75316243D01*
X93935578Y-75324935D01*
X93998444Y-75518414D01*
X94094951Y-75707820D01*
X94219890Y-75879786D01*
X94370213Y-76030109D01*
X94542179Y-76155048D01*
X94542181Y-76155049D01*
X94542184Y-76155051D01*
X94731588Y-76251557D01*
X94933757Y-76317246D01*
X95143713Y-76350500D01*
X95143714Y-76350500D01*
X95356286Y-76350500D01*
X95356287Y-76350500D01*
X95566243Y-76317246D01*
X95768412Y-76251557D01*
X95957816Y-76155051D01*
X96012572Y-76115269D01*
X96129786Y-76030109D01*
X96129788Y-76030106D01*
X96129792Y-76030104D01*
X96280104Y-75879792D01*
X96280106Y-75879788D01*
X96280109Y-75879786D01*
X96389086Y-75729789D01*
X96405051Y-75707816D01*
X96409514Y-75699054D01*
X96457488Y-75648259D01*
X96525308Y-75631463D01*
X96591444Y-75653999D01*
X96630486Y-75699056D01*
X96634951Y-75707820D01*
X96759890Y-75879786D01*
X96910213Y-76030109D01*
X97082179Y-76155048D01*
X97082181Y-76155049D01*
X97082184Y-76155051D01*
X97271588Y-76251557D01*
X97473757Y-76317246D01*
X97683713Y-76350500D01*
X97683714Y-76350500D01*
X97896286Y-76350500D01*
X97896287Y-76350500D01*
X98106243Y-76317246D01*
X98308412Y-76251557D01*
X98497816Y-76155051D01*
X98552572Y-76115269D01*
X98669786Y-76030109D01*
X98669788Y-76030106D01*
X98669792Y-76030104D01*
X98820104Y-75879792D01*
X98820106Y-75879788D01*
X98820109Y-75879786D01*
X98929086Y-75729789D01*
X98945051Y-75707816D01*
X98949514Y-75699054D01*
X98997488Y-75648259D01*
X99065308Y-75631463D01*
X99131444Y-75653999D01*
X99170486Y-75699056D01*
X99174951Y-75707820D01*
X99299890Y-75879786D01*
X99450213Y-76030109D01*
X99622179Y-76155048D01*
X99622181Y-76155049D01*
X99622184Y-76155051D01*
X99811588Y-76251557D01*
X100013757Y-76317246D01*
X100223713Y-76350500D01*
X100223714Y-76350500D01*
X100436286Y-76350500D01*
X100436287Y-76350500D01*
X100646243Y-76317246D01*
X100848412Y-76251557D01*
X101037816Y-76155051D01*
X101092572Y-76115269D01*
X101209786Y-76030109D01*
X101209788Y-76030106D01*
X101209792Y-76030104D01*
X101360104Y-75879792D01*
X101360106Y-75879788D01*
X101360109Y-75879786D01*
X101469086Y-75729789D01*
X101485051Y-75707816D01*
X101489514Y-75699054D01*
X101537488Y-75648259D01*
X101605308Y-75631463D01*
X101671444Y-75653999D01*
X101710486Y-75699056D01*
X101714951Y-75707820D01*
X101839890Y-75879786D01*
X101990213Y-76030109D01*
X102162179Y-76155048D01*
X102162181Y-76155049D01*
X102162184Y-76155051D01*
X102351588Y-76251557D01*
X102553757Y-76317246D01*
X102763713Y-76350500D01*
X102763714Y-76350500D01*
X102976286Y-76350500D01*
X102976287Y-76350500D01*
X103186243Y-76317246D01*
X103388412Y-76251557D01*
X103577816Y-76155051D01*
X103632572Y-76115269D01*
X103749786Y-76030109D01*
X103749788Y-76030106D01*
X103749792Y-76030104D01*
X103900104Y-75879792D01*
X103900106Y-75879788D01*
X103900109Y-75879786D01*
X104009086Y-75729789D01*
X104025051Y-75707816D01*
X104029514Y-75699054D01*
X104077488Y-75648259D01*
X104145308Y-75631463D01*
X104211444Y-75653999D01*
X104250486Y-75699056D01*
X104254951Y-75707820D01*
X104379890Y-75879786D01*
X104530213Y-76030109D01*
X104702179Y-76155048D01*
X104702181Y-76155049D01*
X104702184Y-76155051D01*
X104891588Y-76251557D01*
X105093757Y-76317246D01*
X105303713Y-76350500D01*
X105303714Y-76350500D01*
X105516286Y-76350500D01*
X105516287Y-76350500D01*
X105726243Y-76317246D01*
X105928412Y-76251557D01*
X106117816Y-76155051D01*
X106172572Y-76115269D01*
X106289786Y-76030109D01*
X106289788Y-76030106D01*
X106289792Y-76030104D01*
X106440104Y-75879792D01*
X106440106Y-75879788D01*
X106440109Y-75879786D01*
X106549086Y-75729789D01*
X106565051Y-75707816D01*
X106569514Y-75699054D01*
X106617488Y-75648259D01*
X106685308Y-75631463D01*
X106751444Y-75653999D01*
X106790486Y-75699056D01*
X106794951Y-75707820D01*
X106919890Y-75879786D01*
X107070213Y-76030109D01*
X107242179Y-76155048D01*
X107242181Y-76155049D01*
X107242184Y-76155051D01*
X107431588Y-76251557D01*
X107633757Y-76317246D01*
X107843713Y-76350500D01*
X107843714Y-76350500D01*
X108056286Y-76350500D01*
X108056287Y-76350500D01*
X108266243Y-76317246D01*
X108468412Y-76251557D01*
X108657816Y-76155051D01*
X108712572Y-76115269D01*
X108829786Y-76030109D01*
X108829788Y-76030106D01*
X108829792Y-76030104D01*
X108980104Y-75879792D01*
X108980106Y-75879788D01*
X108980109Y-75879786D01*
X109047515Y-75787007D01*
X109105051Y-75707816D01*
X109109793Y-75698508D01*
X109157763Y-75647711D01*
X109225583Y-75630911D01*
X109291719Y-75653445D01*
X109330763Y-75698500D01*
X109335373Y-75707547D01*
X109374728Y-75761716D01*
X110007036Y-75129407D01*
X110024075Y-75192993D01*
X110089901Y-75307007D01*
X110182993Y-75400099D01*
X110297007Y-75465925D01*
X110360590Y-75482962D01*
X109728282Y-76115269D01*
X109728282Y-76115270D01*
X109782449Y-76154624D01*
X109971782Y-76251095D01*
X110173870Y-76316757D01*
X110383754Y-76350000D01*
X110596246Y-76350000D01*
X110806127Y-76316757D01*
X110806130Y-76316757D01*
X111008217Y-76251095D01*
X111197554Y-76154622D01*
X111251716Y-76115270D01*
X111251717Y-76115270D01*
X110619408Y-75482962D01*
X110682993Y-75465925D01*
X110797007Y-75400099D01*
X110890099Y-75307007D01*
X110955925Y-75192993D01*
X110972962Y-75129408D01*
X111643181Y-75799628D01*
X111676666Y-75860951D01*
X111679500Y-75887300D01*
X111679500Y-75897865D01*
X111679501Y-75897876D01*
X111685908Y-75957483D01*
X111736202Y-76092328D01*
X111736206Y-76092335D01*
X111822452Y-76207544D01*
X111822455Y-76207547D01*
X111937664Y-76293793D01*
X111937671Y-76293797D01*
X112072517Y-76344091D01*
X112072516Y-76344091D01*
X112079444Y-76344835D01*
X112132127Y-76350500D01*
X113927872Y-76350499D01*
X113987483Y-76344091D01*
X114122331Y-76293796D01*
X114237546Y-76207546D01*
X114323796Y-76092331D01*
X114374091Y-75957483D01*
X114380500Y-75897873D01*
X114380499Y-75000000D01*
X114380499Y-74131947D01*
X125200000Y-74131947D01*
X125200000Y-74368052D01*
X125236934Y-74601247D01*
X125309897Y-74825802D01*
X125417087Y-75036174D01*
X125477338Y-75119104D01*
X125477340Y-75119105D01*
X126176212Y-74420233D01*
X126187482Y-74462292D01*
X126259890Y-74587708D01*
X126362292Y-74690110D01*
X126487708Y-74762518D01*
X126529765Y-74773787D01*
X125830893Y-75472658D01*
X125913828Y-75532914D01*
X126124197Y-75640102D01*
X126348752Y-75713065D01*
X126348751Y-75713065D01*
X126581948Y-75750000D01*
X126818052Y-75750000D01*
X127051247Y-75713065D01*
X127275802Y-75640102D01*
X127486163Y-75532918D01*
X127486169Y-75532914D01*
X127569104Y-75472658D01*
X127569105Y-75472658D01*
X126870233Y-74773787D01*
X126912292Y-74762518D01*
X127037708Y-74690110D01*
X127140110Y-74587708D01*
X127212518Y-74462292D01*
X127223787Y-74420233D01*
X127922658Y-75119105D01*
X127922658Y-75119104D01*
X127982914Y-75036169D01*
X127982918Y-75036163D01*
X128090102Y-74825802D01*
X128163065Y-74601247D01*
X128200000Y-74368052D01*
X128200000Y-74131947D01*
X131700000Y-74131947D01*
X131700000Y-74368052D01*
X131736934Y-74601247D01*
X131809897Y-74825802D01*
X131917087Y-75036174D01*
X131977338Y-75119104D01*
X131977340Y-75119105D01*
X132676212Y-74420233D01*
X132687482Y-74462292D01*
X132759890Y-74587708D01*
X132862292Y-74690110D01*
X132987708Y-74762518D01*
X133029765Y-74773787D01*
X132330893Y-75472658D01*
X132413828Y-75532914D01*
X132624197Y-75640102D01*
X132848752Y-75713065D01*
X132848751Y-75713065D01*
X133081948Y-75750000D01*
X133318052Y-75750000D01*
X133551247Y-75713065D01*
X133775802Y-75640102D01*
X133986163Y-75532918D01*
X133986169Y-75532914D01*
X134069104Y-75472658D01*
X134069105Y-75472658D01*
X133370233Y-74773787D01*
X133412292Y-74762518D01*
X133537708Y-74690110D01*
X133640110Y-74587708D01*
X133712518Y-74462292D01*
X133723787Y-74420234D01*
X134422658Y-75119105D01*
X134422658Y-75119104D01*
X134482914Y-75036169D01*
X134482918Y-75036163D01*
X134590102Y-74825802D01*
X134663065Y-74601247D01*
X134700000Y-74368052D01*
X134700000Y-74131947D01*
X134663065Y-73898751D01*
X134626741Y-73786956D01*
X134590102Y-73674195D01*
X134482914Y-73463828D01*
X134422658Y-73380894D01*
X134422658Y-73380893D01*
X133723787Y-74079765D01*
X133712518Y-74037708D01*
X133640110Y-73912292D01*
X133537708Y-73809890D01*
X133412292Y-73737482D01*
X133370234Y-73726212D01*
X134069105Y-73027340D01*
X134069104Y-73027338D01*
X133986174Y-72967087D01*
X133775802Y-72859897D01*
X133551247Y-72786934D01*
X133551248Y-72786934D01*
X133318052Y-72750000D01*
X133081948Y-72750000D01*
X132848752Y-72786934D01*
X132624197Y-72859897D01*
X132413830Y-72967084D01*
X132330894Y-73027340D01*
X133029766Y-73726212D01*
X132987708Y-73737482D01*
X132862292Y-73809890D01*
X132759890Y-73912292D01*
X132687482Y-74037708D01*
X132676212Y-74079766D01*
X131977340Y-73380894D01*
X131917084Y-73463830D01*
X131809897Y-73674197D01*
X131736934Y-73898752D01*
X131700000Y-74131947D01*
X128200000Y-74131947D01*
X128163065Y-73898752D01*
X128090102Y-73674197D01*
X127982914Y-73463828D01*
X127922658Y-73380894D01*
X127922658Y-73380893D01*
X127223787Y-74079765D01*
X127212518Y-74037708D01*
X127140110Y-73912292D01*
X127037708Y-73809890D01*
X126912292Y-73737482D01*
X126870234Y-73726212D01*
X127569105Y-73027340D01*
X127569104Y-73027339D01*
X127486174Y-72967087D01*
X127275802Y-72859897D01*
X127051247Y-72786934D01*
X127051248Y-72786934D01*
X126818052Y-72750000D01*
X126581948Y-72750000D01*
X126348752Y-72786934D01*
X126124197Y-72859897D01*
X125913830Y-72967084D01*
X125830894Y-73027340D01*
X126529766Y-73726212D01*
X126487708Y-73737482D01*
X126362292Y-73809890D01*
X126259890Y-73912292D01*
X126187482Y-74037708D01*
X126176212Y-74079766D01*
X125477340Y-73380894D01*
X125417084Y-73463830D01*
X125309897Y-73674197D01*
X125236934Y-73898752D01*
X125200000Y-74131947D01*
X114380499Y-74131947D01*
X114380499Y-74127075D01*
X114380499Y-74102129D01*
X114380498Y-74102123D01*
X114380497Y-74102116D01*
X114374091Y-74042517D01*
X114372297Y-74037708D01*
X114323797Y-73907671D01*
X114323793Y-73907664D01*
X114237547Y-73792455D01*
X114237544Y-73792452D01*
X114122335Y-73706206D01*
X114122328Y-73706202D01*
X113987482Y-73655908D01*
X113987483Y-73655908D01*
X113927883Y-73649501D01*
X113927881Y-73649500D01*
X113927873Y-73649500D01*
X113927864Y-73649500D01*
X112132129Y-73649500D01*
X112132123Y-73649501D01*
X112072516Y-73655908D01*
X111937671Y-73706202D01*
X111937664Y-73706206D01*
X111822455Y-73792452D01*
X111822452Y-73792455D01*
X111736206Y-73907664D01*
X111736202Y-73907671D01*
X111685908Y-74042517D01*
X111679501Y-74102116D01*
X111679501Y-74102123D01*
X111679500Y-74102135D01*
X111679500Y-74112690D01*
X111659815Y-74179729D01*
X111643181Y-74200371D01*
X110972962Y-74870590D01*
X110955925Y-74807007D01*
X110890099Y-74692993D01*
X110797007Y-74599901D01*
X110682993Y-74534075D01*
X110619409Y-74517037D01*
X111251716Y-73884728D01*
X111197550Y-73845375D01*
X111008217Y-73748904D01*
X110806129Y-73683242D01*
X110596246Y-73650000D01*
X110383754Y-73650000D01*
X110173872Y-73683242D01*
X110173869Y-73683242D01*
X109971782Y-73748904D01*
X109782439Y-73845380D01*
X109728282Y-73884727D01*
X109728282Y-73884728D01*
X110360591Y-74517037D01*
X110297007Y-74534075D01*
X110182993Y-74599901D01*
X110089901Y-74692993D01*
X110024075Y-74807007D01*
X110007037Y-74870591D01*
X109374728Y-74238282D01*
X109374727Y-74238282D01*
X109335380Y-74292440D01*
X109335376Y-74292446D01*
X109330760Y-74301505D01*
X109282781Y-74352297D01*
X109214959Y-74369087D01*
X109148826Y-74346543D01*
X109109794Y-74301493D01*
X109105051Y-74292184D01*
X109105049Y-74292181D01*
X109105048Y-74292179D01*
X108980109Y-74120213D01*
X108829786Y-73969890D01*
X108657820Y-73844951D01*
X108468414Y-73748444D01*
X108468413Y-73748443D01*
X108468412Y-73748443D01*
X108266243Y-73682754D01*
X108266241Y-73682753D01*
X108266240Y-73682753D01*
X108104957Y-73657208D01*
X108056287Y-73649500D01*
X107843713Y-73649500D01*
X107795042Y-73657208D01*
X107633760Y-73682753D01*
X107431585Y-73748444D01*
X107242179Y-73844951D01*
X107070213Y-73969890D01*
X106919890Y-74120213D01*
X106794949Y-74292182D01*
X106790484Y-74300946D01*
X106742509Y-74351742D01*
X106674688Y-74368536D01*
X106608553Y-74345998D01*
X106569516Y-74300946D01*
X106565050Y-74292182D01*
X106440109Y-74120213D01*
X106289786Y-73969890D01*
X106117820Y-73844951D01*
X105928414Y-73748444D01*
X105928413Y-73748443D01*
X105928412Y-73748443D01*
X105726243Y-73682754D01*
X105726241Y-73682753D01*
X105726240Y-73682753D01*
X105564957Y-73657208D01*
X105516287Y-73649500D01*
X105303713Y-73649500D01*
X105255042Y-73657208D01*
X105093760Y-73682753D01*
X104891585Y-73748444D01*
X104702179Y-73844951D01*
X104530213Y-73969890D01*
X104379890Y-74120213D01*
X104254949Y-74292182D01*
X104250484Y-74300946D01*
X104202509Y-74351742D01*
X104134688Y-74368536D01*
X104068553Y-74345998D01*
X104029516Y-74300946D01*
X104025050Y-74292182D01*
X103900109Y-74120213D01*
X103749786Y-73969890D01*
X103577820Y-73844951D01*
X103388414Y-73748444D01*
X103388413Y-73748443D01*
X103388412Y-73748443D01*
X103186243Y-73682754D01*
X103186241Y-73682753D01*
X103186240Y-73682753D01*
X103024957Y-73657208D01*
X102976287Y-73649500D01*
X102763713Y-73649500D01*
X102715042Y-73657208D01*
X102553760Y-73682753D01*
X102351585Y-73748444D01*
X102162179Y-73844951D01*
X101990213Y-73969890D01*
X101839890Y-74120213D01*
X101714949Y-74292182D01*
X101710484Y-74300946D01*
X101662509Y-74351742D01*
X101594688Y-74368536D01*
X101528553Y-74345998D01*
X101489516Y-74300946D01*
X101485050Y-74292182D01*
X101360109Y-74120213D01*
X101209786Y-73969890D01*
X101037820Y-73844951D01*
X100848414Y-73748444D01*
X100848413Y-73748443D01*
X100848412Y-73748443D01*
X100646243Y-73682754D01*
X100646241Y-73682753D01*
X100646240Y-73682753D01*
X100484957Y-73657208D01*
X100436287Y-73649500D01*
X100223713Y-73649500D01*
X100175042Y-73657208D01*
X100013760Y-73682753D01*
X99811585Y-73748444D01*
X99622179Y-73844951D01*
X99450213Y-73969890D01*
X99299890Y-74120213D01*
X99174949Y-74292182D01*
X99170484Y-74300946D01*
X99122509Y-74351742D01*
X99054688Y-74368536D01*
X98988553Y-74345998D01*
X98949516Y-74300946D01*
X98945050Y-74292182D01*
X98820109Y-74120213D01*
X98669786Y-73969890D01*
X98497820Y-73844951D01*
X98308414Y-73748444D01*
X98308413Y-73748443D01*
X98308412Y-73748443D01*
X98106243Y-73682754D01*
X98106241Y-73682753D01*
X98106240Y-73682753D01*
X97944957Y-73657208D01*
X97896287Y-73649500D01*
X97683713Y-73649500D01*
X97635042Y-73657208D01*
X97473760Y-73682753D01*
X97271585Y-73748444D01*
X97082179Y-73844951D01*
X96910213Y-73969890D01*
X96759890Y-74120213D01*
X96634949Y-74292182D01*
X96630484Y-74300946D01*
X96582509Y-74351742D01*
X96514688Y-74368536D01*
X96448553Y-74345998D01*
X96409516Y-74300946D01*
X96405050Y-74292182D01*
X96280109Y-74120213D01*
X96129786Y-73969890D01*
X95957820Y-73844951D01*
X95768414Y-73748444D01*
X95768413Y-73748443D01*
X95768412Y-73748443D01*
X95566243Y-73682754D01*
X95566241Y-73682753D01*
X95566240Y-73682753D01*
X95404957Y-73657208D01*
X95356287Y-73649500D01*
X95143713Y-73649500D01*
X95095042Y-73657208D01*
X94933760Y-73682753D01*
X94731585Y-73748444D01*
X94542179Y-73844951D01*
X94370213Y-73969890D01*
X94219890Y-74120213D01*
X94094951Y-74292179D01*
X93998444Y-74481585D01*
X93932753Y-74683760D01*
X93931291Y-74692993D01*
X93899500Y-74893713D01*
X85885500Y-74893713D01*
X85885500Y-71775064D01*
X142875000Y-71775064D01*
X142875000Y-73300000D01*
X144375000Y-73300000D01*
X144375000Y-73800000D01*
X142875000Y-73800000D01*
X142875000Y-75324935D01*
X142911529Y-75602408D01*
X142983966Y-75872746D01*
X143091065Y-76131305D01*
X143091069Y-76131315D01*
X143230999Y-76373683D01*
X143401382Y-76595729D01*
X143599270Y-76793617D01*
X143821316Y-76964000D01*
X144063684Y-77103930D01*
X144063694Y-77103934D01*
X144322255Y-77211034D01*
X144592592Y-77283470D01*
X144592590Y-77283470D01*
X144759999Y-77305508D01*
X144760000Y-77305508D01*
X144760000Y-76113765D01*
X144824777Y-76140597D01*
X144947458Y-76165000D01*
X145072542Y-76165000D01*
X145195223Y-76140597D01*
X145260000Y-76113765D01*
X145260000Y-77305508D01*
X145427408Y-77283470D01*
X145697744Y-77211034D01*
X145956305Y-77103934D01*
X145956315Y-77103930D01*
X146198683Y-76964000D01*
X146420729Y-76793617D01*
X146618617Y-76595729D01*
X146789000Y-76373683D01*
X146928930Y-76131315D01*
X146928934Y-76131305D01*
X147036033Y-75872746D01*
X147108470Y-75602408D01*
X147145000Y-75324935D01*
X147145000Y-73800000D01*
X145645000Y-73800000D01*
X145645000Y-73300000D01*
X147145000Y-73300000D01*
X147145000Y-71775064D01*
X147108470Y-71497591D01*
X147036033Y-71227253D01*
X146928934Y-70968694D01*
X146928930Y-70968684D01*
X146789000Y-70726316D01*
X146618617Y-70504270D01*
X146420729Y-70306382D01*
X146198683Y-70135999D01*
X145956315Y-69996069D01*
X145956305Y-69996065D01*
X145697746Y-69888966D01*
X145427408Y-69816529D01*
X145260000Y-69794489D01*
X145260000Y-70986234D01*
X145195223Y-70959403D01*
X145072542Y-70935000D01*
X144947458Y-70935000D01*
X144824777Y-70959403D01*
X144760000Y-70986234D01*
X144760000Y-69794489D01*
X144592591Y-69816529D01*
X144322253Y-69888966D01*
X144063694Y-69996065D01*
X144063684Y-69996069D01*
X143821316Y-70135999D01*
X143599270Y-70306382D01*
X143401382Y-70504270D01*
X143230999Y-70726316D01*
X143091069Y-70968684D01*
X143091065Y-70968694D01*
X142983966Y-71227253D01*
X142911529Y-71497591D01*
X142875000Y-71775064D01*
X85885500Y-71775064D01*
X85885500Y-53433713D01*
X94599500Y-53433713D01*
X94599500Y-53646286D01*
X94624834Y-53806243D01*
X94632754Y-53856243D01*
X94678257Y-53996287D01*
X94698444Y-54058414D01*
X94794951Y-54247820D01*
X94919890Y-54419786D01*
X95070213Y-54570109D01*
X95242182Y-54695050D01*
X95250946Y-54699516D01*
X95301742Y-54747491D01*
X95318536Y-54815312D01*
X95295998Y-54881447D01*
X95250946Y-54920484D01*
X95242182Y-54924949D01*
X95070213Y-55049890D01*
X94919890Y-55200213D01*
X94794951Y-55372179D01*
X94698444Y-55561585D01*
X94632753Y-55763760D01*
X94599500Y-55973713D01*
X94599500Y-56186286D01*
X94632753Y-56396239D01*
X94698444Y-56598414D01*
X94794951Y-56787820D01*
X94919890Y-56959786D01*
X95070213Y-57110109D01*
X95242182Y-57235050D01*
X95250946Y-57239516D01*
X95301742Y-57287491D01*
X95318536Y-57355312D01*
X95295998Y-57421447D01*
X95250946Y-57460484D01*
X95242182Y-57464949D01*
X95070213Y-57589890D01*
X94919890Y-57740213D01*
X94794951Y-57912179D01*
X94698444Y-58101585D01*
X94632753Y-58303760D01*
X94599500Y-58513713D01*
X94599500Y-58726286D01*
X94632753Y-58936239D01*
X94698444Y-59138414D01*
X94794951Y-59327820D01*
X94919890Y-59499786D01*
X95070213Y-59650109D01*
X95242182Y-59775050D01*
X95250946Y-59779516D01*
X95301742Y-59827491D01*
X95318536Y-59895312D01*
X95295998Y-59961447D01*
X95250946Y-60000484D01*
X95242182Y-60004949D01*
X95070213Y-60129890D01*
X94919890Y-60280213D01*
X94794951Y-60452179D01*
X94698444Y-60641585D01*
X94632753Y-60843760D01*
X94599500Y-61053713D01*
X94599500Y-61266286D01*
X94624834Y-61426243D01*
X94632754Y-61476243D01*
X94691226Y-61656202D01*
X94698444Y-61678414D01*
X94794951Y-61867820D01*
X94919890Y-62039786D01*
X95070213Y-62190109D01*
X95242182Y-62315050D01*
X95250946Y-62319516D01*
X95301742Y-62367491D01*
X95318536Y-62435312D01*
X95295998Y-62501447D01*
X95250946Y-62540484D01*
X95242182Y-62544949D01*
X95070213Y-62669890D01*
X94919890Y-62820213D01*
X94794951Y-62992179D01*
X94698444Y-63181585D01*
X94632753Y-63383760D01*
X94599500Y-63593713D01*
X94599500Y-63806286D01*
X94631429Y-64007882D01*
X94632754Y-64016243D01*
X94683018Y-64170940D01*
X94698444Y-64218414D01*
X94794951Y-64407820D01*
X94919890Y-64579786D01*
X95070213Y-64730109D01*
X95242179Y-64855048D01*
X95242181Y-64855049D01*
X95242184Y-64855051D01*
X95431588Y-64951557D01*
X95633757Y-65017246D01*
X95843713Y-65050500D01*
X95843714Y-65050500D01*
X96056286Y-65050500D01*
X96056287Y-65050500D01*
X96266243Y-65017246D01*
X96468412Y-64951557D01*
X96657816Y-64855051D01*
X96726640Y-64805048D01*
X96829786Y-64730109D01*
X96829788Y-64730106D01*
X96829792Y-64730104D01*
X96980104Y-64579792D01*
X96980106Y-64579788D01*
X96980109Y-64579786D01*
X97105048Y-64407820D01*
X97105047Y-64407820D01*
X97105051Y-64407816D01*
X97201557Y-64218412D01*
X97267246Y-64016243D01*
X97300500Y-63806287D01*
X97300500Y-63593713D01*
X97267246Y-63383757D01*
X97201557Y-63181588D01*
X97105051Y-62992184D01*
X97105049Y-62992181D01*
X97105048Y-62992179D01*
X96980109Y-62820213D01*
X96829786Y-62669890D01*
X96657820Y-62544951D01*
X96657115Y-62544591D01*
X96649054Y-62540485D01*
X96598259Y-62492512D01*
X96581463Y-62424692D01*
X96603999Y-62358556D01*
X96649054Y-62319515D01*
X96657816Y-62315051D01*
X96791497Y-62217927D01*
X96829786Y-62190109D01*
X96829788Y-62190106D01*
X96829792Y-62190104D01*
X96980104Y-62039792D01*
X96980106Y-62039788D01*
X96980109Y-62039786D01*
X97105048Y-61867820D01*
X97105047Y-61867820D01*
X97105051Y-61867816D01*
X97201557Y-61678412D01*
X97267246Y-61476243D01*
X97300500Y-61266287D01*
X97300500Y-61053713D01*
X97267246Y-60843757D01*
X97201557Y-60641588D01*
X97105051Y-60452184D01*
X97105049Y-60452181D01*
X97105048Y-60452179D01*
X96980109Y-60280213D01*
X96829786Y-60129890D01*
X96657820Y-60004951D01*
X96657115Y-60004591D01*
X96649054Y-60000485D01*
X96598259Y-59952512D01*
X96581463Y-59884692D01*
X96603999Y-59818556D01*
X96649054Y-59779515D01*
X96657816Y-59775051D01*
X96726640Y-59725048D01*
X96829786Y-59650109D01*
X96829788Y-59650106D01*
X96829792Y-59650104D01*
X96980104Y-59499792D01*
X96980106Y-59499788D01*
X96980109Y-59499786D01*
X97105048Y-59327820D01*
X97105047Y-59327820D01*
X97105051Y-59327816D01*
X97201557Y-59138412D01*
X97267246Y-58936243D01*
X97300500Y-58726287D01*
X97300500Y-58513713D01*
X97267246Y-58303757D01*
X97201557Y-58101588D01*
X97105051Y-57912184D01*
X97105049Y-57912181D01*
X97105048Y-57912179D01*
X96980109Y-57740213D01*
X96829786Y-57589890D01*
X96657820Y-57464951D01*
X96657115Y-57464591D01*
X96649054Y-57460485D01*
X96598259Y-57412512D01*
X96581463Y-57344692D01*
X96603999Y-57278556D01*
X96649054Y-57239515D01*
X96657816Y-57235051D01*
X96726640Y-57185048D01*
X96829786Y-57110109D01*
X96829788Y-57110106D01*
X96829792Y-57110104D01*
X96980104Y-56959792D01*
X96980106Y-56959788D01*
X96980109Y-56959786D01*
X97105048Y-56787820D01*
X97105047Y-56787820D01*
X97105051Y-56787816D01*
X97201557Y-56598412D01*
X97267246Y-56396243D01*
X97300500Y-56186287D01*
X97300500Y-55973713D01*
X97267246Y-55763757D01*
X97201557Y-55561588D01*
X97105051Y-55372184D01*
X97105049Y-55372181D01*
X97105048Y-55372179D01*
X96980109Y-55200213D01*
X96829786Y-55049890D01*
X96657820Y-54924951D01*
X96657115Y-54924591D01*
X96649054Y-54920485D01*
X96598259Y-54872512D01*
X96581463Y-54804692D01*
X96603999Y-54738556D01*
X96649054Y-54699515D01*
X96657816Y-54695051D01*
X96781390Y-54605270D01*
X96829786Y-54570109D01*
X96829788Y-54570106D01*
X96829792Y-54570104D01*
X96980104Y-54419792D01*
X96980106Y-54419788D01*
X96980109Y-54419786D01*
X97102217Y-54251717D01*
X97105051Y-54247816D01*
X97201557Y-54058412D01*
X97267246Y-53856243D01*
X97300500Y-53646287D01*
X97300500Y-53433713D01*
X97267246Y-53223757D01*
X97201557Y-53021588D01*
X97105051Y-52832184D01*
X97105049Y-52832181D01*
X97105048Y-52832179D01*
X96980109Y-52660213D01*
X96866181Y-52546285D01*
X96832696Y-52484962D01*
X96837680Y-52415270D01*
X96879552Y-52359337D01*
X96910529Y-52342422D01*
X97042086Y-52293354D01*
X97042093Y-52293350D01*
X97157187Y-52207190D01*
X97157190Y-52207187D01*
X97243350Y-52092093D01*
X97243354Y-52092086D01*
X97293596Y-51957379D01*
X97293598Y-51957372D01*
X97299999Y-51897844D01*
X97300000Y-51897827D01*
X97300000Y-51250000D01*
X96383012Y-51250000D01*
X96415925Y-51192993D01*
X96450000Y-51065826D01*
X96450000Y-50934174D01*
X96415925Y-50807007D01*
X96383012Y-50750000D01*
X97300000Y-50750000D01*
X97300000Y-50102172D01*
X97299999Y-50102158D01*
X97295688Y-50062063D01*
X97295688Y-50062062D01*
X97294620Y-50052135D01*
X101829500Y-50052135D01*
X101829500Y-51847870D01*
X101829501Y-51847876D01*
X101835908Y-51907483D01*
X101886202Y-52042328D01*
X101886206Y-52042335D01*
X101972452Y-52157544D01*
X101972455Y-52157547D01*
X102087664Y-52243793D01*
X102087671Y-52243797D01*
X102219082Y-52292810D01*
X102275016Y-52334681D01*
X102299433Y-52400145D01*
X102284582Y-52468418D01*
X102263431Y-52496673D01*
X102149889Y-52610215D01*
X102024951Y-52782179D01*
X101928444Y-52971585D01*
X101862753Y-53173760D01*
X101829500Y-53383713D01*
X101829500Y-53596286D01*
X101862735Y-53806127D01*
X101862754Y-53806243D01*
X101924503Y-53996287D01*
X101928444Y-54008414D01*
X102024951Y-54197820D01*
X102149890Y-54369786D01*
X102300213Y-54520109D01*
X102472182Y-54645050D01*
X102480946Y-54649516D01*
X102531742Y-54697491D01*
X102548536Y-54765312D01*
X102525998Y-54831447D01*
X102480946Y-54870484D01*
X102472182Y-54874949D01*
X102300213Y-54999890D01*
X102149890Y-55150213D01*
X102024951Y-55322179D01*
X101928444Y-55511585D01*
X101862753Y-55713760D01*
X101829500Y-55923713D01*
X101829500Y-56136286D01*
X101862753Y-56346239D01*
X101928444Y-56548414D01*
X102024951Y-56737820D01*
X102149890Y-56909786D01*
X102300213Y-57060109D01*
X102472182Y-57185050D01*
X102480946Y-57189516D01*
X102531742Y-57237491D01*
X102548536Y-57305312D01*
X102525998Y-57371447D01*
X102480946Y-57410484D01*
X102472182Y-57414949D01*
X102300213Y-57539890D01*
X102149890Y-57690213D01*
X102024951Y-57862179D01*
X101928444Y-58051585D01*
X101862753Y-58253760D01*
X101829500Y-58463713D01*
X101829500Y-58676286D01*
X101862753Y-58886239D01*
X101928444Y-59088414D01*
X102024951Y-59277820D01*
X102149890Y-59449786D01*
X102300213Y-59600109D01*
X102472182Y-59725050D01*
X102480946Y-59729516D01*
X102531742Y-59777491D01*
X102548536Y-59845312D01*
X102525998Y-59911447D01*
X102480946Y-59950484D01*
X102472182Y-59954949D01*
X102300213Y-60079890D01*
X102149890Y-60230213D01*
X102024951Y-60402179D01*
X101928444Y-60591585D01*
X101862753Y-60793760D01*
X101854834Y-60843760D01*
X101829500Y-61003713D01*
X101829500Y-61216287D01*
X101862754Y-61426243D01*
X101921131Y-61605909D01*
X101928444Y-61628414D01*
X102024951Y-61817820D01*
X102149890Y-61989786D01*
X102300213Y-62140109D01*
X102472182Y-62265050D01*
X102480946Y-62269516D01*
X102531742Y-62317491D01*
X102548536Y-62385312D01*
X102525998Y-62451447D01*
X102480946Y-62490484D01*
X102472182Y-62494949D01*
X102300213Y-62619890D01*
X102149890Y-62770213D01*
X102024951Y-62942179D01*
X101928444Y-63131585D01*
X101862753Y-63333760D01*
X101830468Y-63537603D01*
X101829500Y-63543713D01*
X101829500Y-63756287D01*
X101837419Y-63806286D01*
X101854746Y-63915687D01*
X101862754Y-63966243D01*
X101910291Y-64112547D01*
X101928444Y-64168414D01*
X102024951Y-64357820D01*
X102149890Y-64529786D01*
X102300213Y-64680109D01*
X102472182Y-64805050D01*
X102480946Y-64809516D01*
X102531742Y-64857491D01*
X102548536Y-64925312D01*
X102525998Y-64991447D01*
X102480946Y-65030484D01*
X102472182Y-65034949D01*
X102300213Y-65159890D01*
X102149890Y-65310213D01*
X102024951Y-65482179D01*
X101928444Y-65671585D01*
X101862753Y-65873760D01*
X101829500Y-66083713D01*
X101829500Y-66296286D01*
X101862753Y-66506239D01*
X101928444Y-66708414D01*
X102024951Y-66897820D01*
X102149890Y-67069786D01*
X102300213Y-67220109D01*
X102472182Y-67345050D01*
X102480946Y-67349516D01*
X102531742Y-67397491D01*
X102548536Y-67465312D01*
X102525998Y-67531447D01*
X102480946Y-67570484D01*
X102472182Y-67574949D01*
X102300213Y-67699890D01*
X102149890Y-67850213D01*
X102024951Y-68022179D01*
X101928444Y-68211585D01*
X101862753Y-68413760D01*
X101832387Y-68605483D01*
X101829500Y-68623713D01*
X101829500Y-68836287D01*
X101862754Y-69046243D01*
X101914136Y-69204381D01*
X101928444Y-69248414D01*
X102024951Y-69437820D01*
X102149890Y-69609786D01*
X102300213Y-69760109D01*
X102472179Y-69885048D01*
X102472181Y-69885049D01*
X102472184Y-69885051D01*
X102661588Y-69981557D01*
X102863757Y-70047246D01*
X103073713Y-70080500D01*
X103073714Y-70080500D01*
X103286286Y-70080500D01*
X103286287Y-70080500D01*
X103496243Y-70047246D01*
X103698412Y-69981557D01*
X103887816Y-69885051D01*
X103911158Y-69868092D01*
X104059786Y-69760109D01*
X104059788Y-69760106D01*
X104059792Y-69760104D01*
X104210104Y-69609792D01*
X104210106Y-69609788D01*
X104210109Y-69609786D01*
X104335048Y-69437820D01*
X104335049Y-69437819D01*
X104335051Y-69437816D01*
X104431557Y-69248412D01*
X104497246Y-69046243D01*
X104530500Y-68836287D01*
X104530500Y-68623713D01*
X104497246Y-68413757D01*
X104431557Y-68211588D01*
X104335051Y-68022184D01*
X104335049Y-68022181D01*
X104335048Y-68022179D01*
X104210109Y-67850213D01*
X104059786Y-67699890D01*
X103887820Y-67574951D01*
X103887115Y-67574591D01*
X103879054Y-67570485D01*
X103828259Y-67522512D01*
X103811463Y-67454692D01*
X103833999Y-67388556D01*
X103879054Y-67349515D01*
X103887816Y-67345051D01*
X103909789Y-67329086D01*
X104059786Y-67220109D01*
X104059788Y-67220106D01*
X104059792Y-67220104D01*
X104210104Y-67069792D01*
X104210106Y-67069788D01*
X104210109Y-67069786D01*
X104335048Y-66897820D01*
X104335047Y-66897820D01*
X104335051Y-66897816D01*
X104431557Y-66708412D01*
X104497246Y-66506243D01*
X104530500Y-66296287D01*
X104530500Y-66083713D01*
X104497246Y-65873757D01*
X104431557Y-65671588D01*
X104335051Y-65482184D01*
X104335049Y-65482181D01*
X104335048Y-65482179D01*
X104210109Y-65310213D01*
X104059786Y-65159890D01*
X103887820Y-65034951D01*
X103887115Y-65034591D01*
X103879054Y-65030485D01*
X103828259Y-64982512D01*
X103811463Y-64914692D01*
X103833999Y-64848556D01*
X103879054Y-64809515D01*
X103887816Y-64805051D01*
X103990966Y-64730109D01*
X104059786Y-64680109D01*
X104059788Y-64680106D01*
X104059792Y-64680104D01*
X104210104Y-64529792D01*
X104210106Y-64529788D01*
X104210109Y-64529786D01*
X104335048Y-64357820D01*
X104335047Y-64357820D01*
X104335051Y-64357816D01*
X104431557Y-64168412D01*
X104497246Y-63966243D01*
X104530500Y-63756287D01*
X104530500Y-63543713D01*
X104497246Y-63333757D01*
X104431557Y-63131588D01*
X104335051Y-62942184D01*
X104335049Y-62942181D01*
X104335048Y-62942179D01*
X104210109Y-62770213D01*
X104059786Y-62619890D01*
X103887820Y-62494951D01*
X103883033Y-62492512D01*
X103879054Y-62490485D01*
X103828259Y-62442512D01*
X103811463Y-62374692D01*
X103833999Y-62308556D01*
X103879054Y-62269515D01*
X103887816Y-62265051D01*
X103990966Y-62190109D01*
X104059786Y-62140109D01*
X104059788Y-62140106D01*
X104059792Y-62140104D01*
X104210104Y-61989792D01*
X104210106Y-61989788D01*
X104210109Y-61989786D01*
X104326882Y-61829060D01*
X104335051Y-61817816D01*
X104431557Y-61628412D01*
X104497246Y-61426243D01*
X104530500Y-61216287D01*
X104530500Y-61003713D01*
X104497246Y-60793757D01*
X104431557Y-60591588D01*
X104335051Y-60402184D01*
X104335049Y-60402181D01*
X104335048Y-60402179D01*
X104210109Y-60230213D01*
X104059786Y-60079890D01*
X103887820Y-59954951D01*
X103883033Y-59952512D01*
X103879054Y-59950485D01*
X103828259Y-59902512D01*
X103811463Y-59834692D01*
X103833999Y-59768556D01*
X103879054Y-59729515D01*
X103887816Y-59725051D01*
X103990966Y-59650109D01*
X104059786Y-59600109D01*
X104059788Y-59600106D01*
X104059792Y-59600104D01*
X104210104Y-59449792D01*
X104210106Y-59449788D01*
X104210109Y-59449786D01*
X104335048Y-59277820D01*
X104335047Y-59277820D01*
X104335051Y-59277816D01*
X104431557Y-59088412D01*
X104497246Y-58886243D01*
X104530500Y-58676287D01*
X104530500Y-58463713D01*
X104497246Y-58253757D01*
X104431557Y-58051588D01*
X104335051Y-57862184D01*
X104335049Y-57862181D01*
X104335048Y-57862179D01*
X104210109Y-57690213D01*
X104059786Y-57539890D01*
X103887820Y-57414951D01*
X103883033Y-57412512D01*
X103879054Y-57410485D01*
X103828259Y-57362512D01*
X103811463Y-57294692D01*
X103833999Y-57228556D01*
X103879054Y-57189515D01*
X103887816Y-57185051D01*
X103990966Y-57110109D01*
X104059786Y-57060109D01*
X104059788Y-57060106D01*
X104059792Y-57060104D01*
X104210104Y-56909792D01*
X104210106Y-56909788D01*
X104210109Y-56909786D01*
X104335048Y-56737820D01*
X104335047Y-56737820D01*
X104335051Y-56737816D01*
X104431557Y-56548412D01*
X104497246Y-56346243D01*
X104530500Y-56136287D01*
X104530500Y-55923713D01*
X104497246Y-55713757D01*
X104431557Y-55511588D01*
X104335051Y-55322184D01*
X104335049Y-55322181D01*
X104335048Y-55322179D01*
X104210109Y-55150213D01*
X104059786Y-54999890D01*
X103887820Y-54874951D01*
X103883033Y-54872512D01*
X103879054Y-54870485D01*
X103828259Y-54822512D01*
X103811463Y-54754692D01*
X103833999Y-54688556D01*
X103879054Y-54649515D01*
X103887816Y-54645051D01*
X103942572Y-54605269D01*
X104059786Y-54520109D01*
X104059788Y-54520106D01*
X104059792Y-54520104D01*
X104210104Y-54369792D01*
X104210106Y-54369788D01*
X104210109Y-54369786D01*
X104335048Y-54197820D01*
X104335047Y-54197820D01*
X104335051Y-54197816D01*
X104431557Y-54008412D01*
X104497246Y-53806243D01*
X104530500Y-53596287D01*
X104530500Y-53383713D01*
X104497246Y-53173757D01*
X104431557Y-52971588D01*
X104335051Y-52782184D01*
X104335049Y-52782181D01*
X104335048Y-52782179D01*
X104210109Y-52610213D01*
X104096569Y-52496673D01*
X104063084Y-52435350D01*
X104068068Y-52365658D01*
X104109940Y-52309725D01*
X104140915Y-52292810D01*
X104272331Y-52243796D01*
X104387546Y-52157546D01*
X104473796Y-52042331D01*
X104524091Y-51907483D01*
X104530500Y-51847873D01*
X104530499Y-50052135D01*
X117369500Y-50052135D01*
X117369500Y-51847870D01*
X117369501Y-51847876D01*
X117375908Y-51907483D01*
X117426202Y-52042328D01*
X117426206Y-52042335D01*
X117512452Y-52157544D01*
X117512455Y-52157547D01*
X117627664Y-52243793D01*
X117627671Y-52243797D01*
X117672618Y-52260561D01*
X117762517Y-52294091D01*
X117822127Y-52300500D01*
X117832685Y-52300499D01*
X117899723Y-52320179D01*
X117920372Y-52336818D01*
X118590591Y-53007037D01*
X118527007Y-53024075D01*
X118412993Y-53089901D01*
X118319901Y-53182993D01*
X118254075Y-53297007D01*
X118237037Y-53360591D01*
X117604728Y-52728282D01*
X117604727Y-52728282D01*
X117565380Y-52782439D01*
X117468904Y-52971782D01*
X117403242Y-53173869D01*
X117403242Y-53173872D01*
X117370000Y-53383753D01*
X117370000Y-53596246D01*
X117403242Y-53806127D01*
X117403242Y-53806130D01*
X117468904Y-54008217D01*
X117565375Y-54197550D01*
X117604728Y-54251716D01*
X118237037Y-53619408D01*
X118254075Y-53682993D01*
X118319901Y-53797007D01*
X118412993Y-53890099D01*
X118527007Y-53955925D01*
X118590590Y-53972962D01*
X117958282Y-54605269D01*
X117958282Y-54605270D01*
X118012452Y-54644626D01*
X118012451Y-54644626D01*
X118021495Y-54649234D01*
X118072292Y-54697208D01*
X118089087Y-54765029D01*
X118066550Y-54831164D01*
X118021499Y-54870202D01*
X118012182Y-54874949D01*
X117840213Y-54999890D01*
X117689890Y-55150213D01*
X117564951Y-55322179D01*
X117468444Y-55511585D01*
X117402753Y-55713760D01*
X117369500Y-55923713D01*
X117369500Y-56136286D01*
X117402753Y-56346239D01*
X117468444Y-56548414D01*
X117564951Y-56737820D01*
X117689890Y-56909786D01*
X117840213Y-57060109D01*
X118012182Y-57185050D01*
X118020946Y-57189516D01*
X118071742Y-57237491D01*
X118088536Y-57305312D01*
X118065998Y-57371447D01*
X118020946Y-57410484D01*
X118012182Y-57414949D01*
X117840213Y-57539890D01*
X117689890Y-57690213D01*
X117564951Y-57862179D01*
X117468444Y-58051585D01*
X117402753Y-58253760D01*
X117369500Y-58463713D01*
X117369500Y-58676286D01*
X117402753Y-58886239D01*
X117468444Y-59088414D01*
X117564951Y-59277820D01*
X117689890Y-59449786D01*
X117840213Y-59600109D01*
X118012182Y-59725050D01*
X118020946Y-59729516D01*
X118071742Y-59777491D01*
X118088536Y-59845312D01*
X118065998Y-59911447D01*
X118020946Y-59950484D01*
X118012182Y-59954949D01*
X117840213Y-60079890D01*
X117689890Y-60230213D01*
X117564951Y-60402179D01*
X117468444Y-60591585D01*
X117402753Y-60793760D01*
X117394834Y-60843760D01*
X117369500Y-61003713D01*
X117369500Y-61216287D01*
X117402754Y-61426243D01*
X117461131Y-61605909D01*
X117468444Y-61628414D01*
X117564951Y-61817820D01*
X117689890Y-61989786D01*
X117840213Y-62140109D01*
X118012182Y-62265050D01*
X118020946Y-62269516D01*
X118071742Y-62317491D01*
X118088536Y-62385312D01*
X118065998Y-62451447D01*
X118020946Y-62490484D01*
X118012182Y-62494949D01*
X117840213Y-62619890D01*
X117689890Y-62770213D01*
X117564951Y-62942179D01*
X117468444Y-63131585D01*
X117402753Y-63333760D01*
X117370468Y-63537603D01*
X117369500Y-63543713D01*
X117369500Y-63756287D01*
X117377419Y-63806286D01*
X117394746Y-63915687D01*
X117402754Y-63966243D01*
X117450291Y-64112547D01*
X117468444Y-64168414D01*
X117564951Y-64357820D01*
X117689890Y-64529786D01*
X117840213Y-64680109D01*
X118012182Y-64805050D01*
X118020946Y-64809516D01*
X118071742Y-64857491D01*
X118088536Y-64925312D01*
X118065998Y-64991447D01*
X118020946Y-65030484D01*
X118012182Y-65034949D01*
X117840213Y-65159890D01*
X117689890Y-65310213D01*
X117564951Y-65482179D01*
X117468444Y-65671585D01*
X117402753Y-65873760D01*
X117369500Y-66083713D01*
X117369500Y-66296286D01*
X117402753Y-66506239D01*
X117468444Y-66708414D01*
X117564951Y-66897820D01*
X117689890Y-67069786D01*
X117840213Y-67220109D01*
X118012182Y-67345050D01*
X118020946Y-67349516D01*
X118071742Y-67397491D01*
X118088536Y-67465312D01*
X118065998Y-67531447D01*
X118020946Y-67570484D01*
X118012182Y-67574949D01*
X117840213Y-67699890D01*
X117689890Y-67850213D01*
X117564951Y-68022179D01*
X117468444Y-68211585D01*
X117402753Y-68413760D01*
X117372387Y-68605483D01*
X117369500Y-68623713D01*
X117369500Y-68836287D01*
X117402754Y-69046243D01*
X117454136Y-69204381D01*
X117468444Y-69248414D01*
X117564951Y-69437820D01*
X117689890Y-69609786D01*
X117840213Y-69760109D01*
X118012179Y-69885048D01*
X118012181Y-69885049D01*
X118012184Y-69885051D01*
X118201588Y-69981557D01*
X118403757Y-70047246D01*
X118613713Y-70080500D01*
X118613714Y-70080500D01*
X118826286Y-70080500D01*
X118826287Y-70080500D01*
X119036243Y-70047246D01*
X119238412Y-69981557D01*
X119427816Y-69885051D01*
X119451158Y-69868092D01*
X119599786Y-69760109D01*
X119599788Y-69760106D01*
X119599792Y-69760104D01*
X119727994Y-69631902D01*
X125199500Y-69631902D01*
X125199500Y-69868097D01*
X125236446Y-70101368D01*
X125309433Y-70325996D01*
X125400269Y-70504270D01*
X125416657Y-70536433D01*
X125555483Y-70727510D01*
X125722490Y-70894517D01*
X125913567Y-71033343D01*
X125998786Y-71076764D01*
X126124003Y-71140566D01*
X126124005Y-71140566D01*
X126124008Y-71140568D01*
X126244412Y-71179689D01*
X126348631Y-71213553D01*
X126581903Y-71250500D01*
X126581908Y-71250500D01*
X126818097Y-71250500D01*
X127051368Y-71213553D01*
X127275992Y-71140568D01*
X127486433Y-71033343D01*
X127677510Y-70894517D01*
X127844517Y-70727510D01*
X127983343Y-70536433D01*
X128090568Y-70325992D01*
X128163553Y-70101368D01*
X128180231Y-69996069D01*
X128200500Y-69868097D01*
X128200500Y-69631902D01*
X131699500Y-69631902D01*
X131699500Y-69868097D01*
X131736446Y-70101368D01*
X131809433Y-70325996D01*
X131900269Y-70504270D01*
X131916657Y-70536433D01*
X132055483Y-70727510D01*
X132222490Y-70894517D01*
X132413567Y-71033343D01*
X132498786Y-71076764D01*
X132624003Y-71140566D01*
X132624005Y-71140566D01*
X132624008Y-71140568D01*
X132744412Y-71179689D01*
X132848631Y-71213553D01*
X133081903Y-71250500D01*
X133081908Y-71250500D01*
X133318097Y-71250500D01*
X133551368Y-71213553D01*
X133775992Y-71140568D01*
X133986433Y-71033343D01*
X134177510Y-70894517D01*
X134344517Y-70727510D01*
X134483343Y-70536433D01*
X134590568Y-70325992D01*
X134663553Y-70101368D01*
X134680231Y-69996069D01*
X134700500Y-69868097D01*
X134700500Y-69631902D01*
X134663553Y-69398631D01*
X134590566Y-69174003D01*
X134534002Y-69062991D01*
X134483343Y-68963567D01*
X134344517Y-68772490D01*
X134177510Y-68605483D01*
X133986433Y-68466657D01*
X133775996Y-68359433D01*
X133551368Y-68286446D01*
X133318097Y-68249500D01*
X133318092Y-68249500D01*
X133081908Y-68249500D01*
X133081903Y-68249500D01*
X132848631Y-68286446D01*
X132624003Y-68359433D01*
X132413566Y-68466657D01*
X132304550Y-68545862D01*
X132222490Y-68605483D01*
X132222488Y-68605485D01*
X132222487Y-68605485D01*
X132055485Y-68772487D01*
X132055485Y-68772488D01*
X132055483Y-68772490D01*
X132009132Y-68836286D01*
X131916657Y-68963566D01*
X131809433Y-69174003D01*
X131736446Y-69398631D01*
X131699500Y-69631902D01*
X128200500Y-69631902D01*
X128163553Y-69398631D01*
X128090566Y-69174003D01*
X128034002Y-69062991D01*
X127983343Y-68963567D01*
X127844517Y-68772490D01*
X127677510Y-68605483D01*
X127486433Y-68466657D01*
X127275996Y-68359433D01*
X127051368Y-68286446D01*
X126818097Y-68249500D01*
X126818092Y-68249500D01*
X126581908Y-68249500D01*
X126581903Y-68249500D01*
X126348631Y-68286446D01*
X126124003Y-68359433D01*
X125913566Y-68466657D01*
X125804550Y-68545862D01*
X125722490Y-68605483D01*
X125722488Y-68605485D01*
X125722487Y-68605485D01*
X125555485Y-68772487D01*
X125555485Y-68772488D01*
X125555483Y-68772490D01*
X125509132Y-68836286D01*
X125416657Y-68963566D01*
X125309433Y-69174003D01*
X125236446Y-69398631D01*
X125199500Y-69631902D01*
X119727994Y-69631902D01*
X119750104Y-69609792D01*
X119875051Y-69437816D01*
X119971557Y-69248412D01*
X120037246Y-69046243D01*
X120070500Y-68836287D01*
X120070500Y-68623713D01*
X120037246Y-68413757D01*
X119971557Y-68211588D01*
X119875051Y-68022184D01*
X119875049Y-68022181D01*
X119875048Y-68022179D01*
X119750109Y-67850213D01*
X119599786Y-67699890D01*
X119427820Y-67574951D01*
X119427115Y-67574591D01*
X119419054Y-67570485D01*
X119368259Y-67522512D01*
X119351463Y-67454692D01*
X119373999Y-67388556D01*
X119419054Y-67349515D01*
X119427816Y-67345051D01*
X119449789Y-67329086D01*
X119599786Y-67220109D01*
X119599788Y-67220106D01*
X119599792Y-67220104D01*
X119750104Y-67069792D01*
X119750106Y-67069788D01*
X119750109Y-67069786D01*
X119875048Y-66897820D01*
X119875047Y-66897820D01*
X119875051Y-66897816D01*
X119971557Y-66708412D01*
X120037246Y-66506243D01*
X120070500Y-66296287D01*
X120070500Y-66083713D01*
X120037246Y-65873757D01*
X119971557Y-65671588D01*
X119875051Y-65482184D01*
X119875049Y-65482181D01*
X119875048Y-65482179D01*
X119750109Y-65310213D01*
X119599786Y-65159890D01*
X119427820Y-65034951D01*
X119427115Y-65034591D01*
X119419054Y-65030485D01*
X119368259Y-64982512D01*
X119351463Y-64914692D01*
X119373999Y-64848556D01*
X119419054Y-64809515D01*
X119427816Y-64805051D01*
X119530966Y-64730109D01*
X119599786Y-64680109D01*
X119599788Y-64680106D01*
X119599792Y-64680104D01*
X119750104Y-64529792D01*
X119750106Y-64529788D01*
X119750109Y-64529786D01*
X119875048Y-64357820D01*
X119875047Y-64357820D01*
X119875051Y-64357816D01*
X119971557Y-64168412D01*
X120037246Y-63966243D01*
X120070500Y-63756287D01*
X120070500Y-63543713D01*
X120037246Y-63333757D01*
X119971557Y-63131588D01*
X119875051Y-62942184D01*
X119867023Y-62931134D01*
X119836977Y-62889778D01*
X124009500Y-62889778D01*
X124009500Y-63110221D01*
X124043985Y-63327952D01*
X124112103Y-63537603D01*
X124112104Y-63537606D01*
X124212187Y-63734025D01*
X124341752Y-63912358D01*
X124341756Y-63912363D01*
X124497636Y-64068243D01*
X124497641Y-64068247D01*
X124653192Y-64181260D01*
X124675978Y-64197815D01*
X124804375Y-64263237D01*
X124872393Y-64297895D01*
X124872396Y-64297896D01*
X124977221Y-64331955D01*
X125082049Y-64366015D01*
X125299778Y-64400500D01*
X125299779Y-64400500D01*
X125520221Y-64400500D01*
X125520222Y-64400500D01*
X125737951Y-64366015D01*
X125947606Y-64297895D01*
X126144022Y-64197815D01*
X126322365Y-64068242D01*
X126372536Y-64018070D01*
X126433857Y-63984586D01*
X126503548Y-63989570D01*
X126559482Y-64031441D01*
X126576398Y-64062419D01*
X126606202Y-64142328D01*
X126606206Y-64142335D01*
X126692452Y-64257544D01*
X126692455Y-64257547D01*
X126807664Y-64343793D01*
X126807671Y-64343797D01*
X126942517Y-64394091D01*
X126942516Y-64394091D01*
X126949444Y-64394835D01*
X127002127Y-64400500D01*
X128897872Y-64400499D01*
X128957483Y-64394091D01*
X129092331Y-64343796D01*
X129207546Y-64257546D01*
X129293796Y-64142331D01*
X129344091Y-64007483D01*
X129350500Y-63947873D01*
X129350499Y-62905513D01*
X131209500Y-62905513D01*
X131209500Y-63094486D01*
X131239059Y-63281118D01*
X131297454Y-63460836D01*
X131383104Y-63628933D01*
X131383240Y-63629199D01*
X131494310Y-63782073D01*
X131627927Y-63915690D01*
X131780801Y-64026760D01*
X131850786Y-64062419D01*
X131949163Y-64112545D01*
X131949165Y-64112545D01*
X131949168Y-64112547D01*
X132040824Y-64142328D01*
X132128881Y-64170940D01*
X132315514Y-64200500D01*
X132315519Y-64200500D01*
X132504486Y-64200500D01*
X132691118Y-64170940D01*
X132698898Y-64168412D01*
X132870832Y-64112547D01*
X133039199Y-64026760D01*
X133065182Y-64007882D01*
X136835669Y-64007882D01*
X136835670Y-64007883D01*
X136861059Y-64026329D01*
X137029362Y-64112085D01*
X137208997Y-64170451D01*
X137395553Y-64200000D01*
X137584447Y-64200000D01*
X137771002Y-64170451D01*
X137950637Y-64112085D01*
X138118937Y-64026331D01*
X138144328Y-64007883D01*
X138144328Y-64007882D01*
X138095100Y-63958654D01*
X138011484Y-63875038D01*
X142874500Y-63875038D01*
X142874500Y-67424961D01*
X142874501Y-67424977D01*
X142911038Y-67702507D01*
X142983491Y-67972905D01*
X143090613Y-68231522D01*
X143090620Y-68231537D01*
X143230586Y-68473965D01*
X143400999Y-68696052D01*
X143401005Y-68696059D01*
X143598940Y-68893994D01*
X143598947Y-68894000D01*
X143821034Y-69064413D01*
X144063462Y-69204379D01*
X144063477Y-69204386D01*
X144169766Y-69248412D01*
X144322093Y-69311508D01*
X144592491Y-69383961D01*
X144870032Y-69420500D01*
X144870039Y-69420500D01*
X145149961Y-69420500D01*
X145149968Y-69420500D01*
X145427509Y-69383961D01*
X145697907Y-69311508D01*
X145956534Y-69204381D01*
X146198966Y-69064413D01*
X146421054Y-68893999D01*
X146618999Y-68696054D01*
X146789413Y-68473966D01*
X146929381Y-68231534D01*
X147036508Y-67972907D01*
X147108961Y-67702509D01*
X147145500Y-67424968D01*
X147145500Y-63875032D01*
X147108961Y-63597491D01*
X147036508Y-63327093D01*
X146929381Y-63068466D01*
X146916455Y-63046078D01*
X146789413Y-62826034D01*
X146619000Y-62603947D01*
X146618994Y-62603940D01*
X146421059Y-62406005D01*
X146421052Y-62405999D01*
X146198965Y-62235586D01*
X145956537Y-62095620D01*
X145956522Y-62095613D01*
X145697905Y-61988491D01*
X145427507Y-61916038D01*
X145149977Y-61879501D01*
X145149974Y-61879500D01*
X145149968Y-61879500D01*
X144870032Y-61879500D01*
X144870026Y-61879500D01*
X144870022Y-61879501D01*
X144592492Y-61916038D01*
X144322094Y-61988491D01*
X144063477Y-62095613D01*
X144063462Y-62095620D01*
X143821034Y-62235586D01*
X143598947Y-62405999D01*
X143598940Y-62406005D01*
X143401005Y-62603940D01*
X143400999Y-62603947D01*
X143230586Y-62826034D01*
X143090620Y-63068462D01*
X143090613Y-63068477D01*
X142983491Y-63327094D01*
X142911038Y-63597492D01*
X142874501Y-63875022D01*
X142874500Y-63875038D01*
X138011484Y-63875038D01*
X137490001Y-63353554D01*
X137490000Y-63353554D01*
X136835669Y-64007882D01*
X133065182Y-64007882D01*
X133192073Y-63915690D01*
X133325690Y-63782073D01*
X133436760Y-63629199D01*
X133522547Y-63460832D01*
X133580940Y-63281118D01*
X133596704Y-63181588D01*
X133610500Y-63094486D01*
X133610500Y-62905552D01*
X136290000Y-62905552D01*
X136290000Y-63094447D01*
X136319548Y-63281002D01*
X136377914Y-63460637D01*
X136463666Y-63628933D01*
X136482116Y-63654328D01*
X137136446Y-63000000D01*
X137136446Y-62999999D01*
X137090369Y-62953922D01*
X137140000Y-62953922D01*
X137140000Y-63046078D01*
X137163852Y-63135095D01*
X137209930Y-63214905D01*
X137275095Y-63280070D01*
X137354905Y-63326148D01*
X137443922Y-63350000D01*
X137536078Y-63350000D01*
X137625095Y-63326148D01*
X137704905Y-63280070D01*
X137770070Y-63214905D01*
X137816148Y-63135095D01*
X137840000Y-63046078D01*
X137840000Y-62999999D01*
X137843554Y-62999999D01*
X137843554Y-63000000D01*
X138497882Y-63654328D01*
X138497883Y-63654328D01*
X138516331Y-63628937D01*
X138602085Y-63460637D01*
X138660451Y-63281002D01*
X138690000Y-63094447D01*
X138690000Y-62905552D01*
X138660451Y-62718997D01*
X138602085Y-62539362D01*
X138516329Y-62371059D01*
X138497883Y-62345670D01*
X138497882Y-62345669D01*
X137843554Y-62999999D01*
X137840000Y-62999999D01*
X137840000Y-62953922D01*
X137816148Y-62864905D01*
X137770070Y-62785095D01*
X137704905Y-62719930D01*
X137625095Y-62673852D01*
X137536078Y-62650000D01*
X137443922Y-62650000D01*
X137354905Y-62673852D01*
X137275095Y-62719930D01*
X137209930Y-62785095D01*
X137163852Y-62864905D01*
X137140000Y-62953922D01*
X137090369Y-62953922D01*
X136482116Y-62345669D01*
X136482116Y-62345670D01*
X136463669Y-62371060D01*
X136377914Y-62539362D01*
X136319548Y-62718997D01*
X136290000Y-62905552D01*
X133610500Y-62905552D01*
X133610500Y-62905513D01*
X133580940Y-62718881D01*
X133522975Y-62540486D01*
X133522547Y-62539168D01*
X133522545Y-62539165D01*
X133522545Y-62539163D01*
X133450844Y-62398443D01*
X133436760Y-62370801D01*
X133325690Y-62217927D01*
X133192073Y-62084310D01*
X133065179Y-61992116D01*
X136835669Y-61992116D01*
X137490000Y-62646446D01*
X137490001Y-62646446D01*
X138144328Y-61992116D01*
X138118933Y-61973666D01*
X137950637Y-61887914D01*
X137771002Y-61829548D01*
X137584447Y-61800000D01*
X137395553Y-61800000D01*
X137208997Y-61829548D01*
X137029362Y-61887914D01*
X136861060Y-61973669D01*
X136835670Y-61992116D01*
X136835669Y-61992116D01*
X133065179Y-61992116D01*
X133039199Y-61973240D01*
X132870836Y-61887454D01*
X132691118Y-61829059D01*
X132504486Y-61799500D01*
X132504481Y-61799500D01*
X132315519Y-61799500D01*
X132315514Y-61799500D01*
X132128881Y-61829059D01*
X131949163Y-61887454D01*
X131780800Y-61973240D01*
X131752896Y-61993514D01*
X131627927Y-62084310D01*
X131627925Y-62084312D01*
X131627924Y-62084312D01*
X131494312Y-62217924D01*
X131494312Y-62217925D01*
X131494310Y-62217927D01*
X131460073Y-62265050D01*
X131383240Y-62370800D01*
X131297454Y-62539163D01*
X131239059Y-62718881D01*
X131209500Y-62905513D01*
X129350499Y-62905513D01*
X129350499Y-62052128D01*
X129344091Y-61992517D01*
X129343941Y-61992116D01*
X129293797Y-61857671D01*
X129293793Y-61857664D01*
X129207547Y-61742455D01*
X129207544Y-61742452D01*
X129092335Y-61656206D01*
X129092328Y-61656202D01*
X128957482Y-61605908D01*
X128957483Y-61605908D01*
X128897883Y-61599501D01*
X128897881Y-61599500D01*
X128897873Y-61599500D01*
X128897864Y-61599500D01*
X127002129Y-61599500D01*
X127002123Y-61599501D01*
X126942516Y-61605908D01*
X126807671Y-61656202D01*
X126807664Y-61656206D01*
X126692455Y-61742452D01*
X126692452Y-61742455D01*
X126606206Y-61857664D01*
X126606203Y-61857669D01*
X126576398Y-61937581D01*
X126534526Y-61993514D01*
X126469062Y-62017931D01*
X126400789Y-62003079D01*
X126372535Y-61981928D01*
X126322363Y-61931756D01*
X126322358Y-61931752D01*
X126144025Y-61802187D01*
X126144024Y-61802186D01*
X126144022Y-61802185D01*
X126026791Y-61742452D01*
X125947606Y-61702104D01*
X125947603Y-61702103D01*
X125737952Y-61633985D01*
X125629086Y-61616742D01*
X125520222Y-61599500D01*
X125299778Y-61599500D01*
X125227201Y-61610995D01*
X125082047Y-61633985D01*
X124872396Y-61702103D01*
X124872393Y-61702104D01*
X124675974Y-61802187D01*
X124497641Y-61931752D01*
X124497636Y-61931756D01*
X124341756Y-62087636D01*
X124341752Y-62087641D01*
X124212187Y-62265974D01*
X124112104Y-62462393D01*
X124112103Y-62462396D01*
X124043985Y-62672047D01*
X124009500Y-62889778D01*
X119836977Y-62889778D01*
X119750109Y-62770213D01*
X119599786Y-62619890D01*
X119427820Y-62494951D01*
X119423033Y-62492512D01*
X119419054Y-62490485D01*
X119368259Y-62442512D01*
X119351463Y-62374692D01*
X119373999Y-62308556D01*
X119419054Y-62269515D01*
X119427816Y-62265051D01*
X119530966Y-62190109D01*
X119599786Y-62140109D01*
X119599788Y-62140106D01*
X119599792Y-62140104D01*
X119750104Y-61989792D01*
X119750106Y-61989788D01*
X119750109Y-61989786D01*
X119866882Y-61829060D01*
X119875051Y-61817816D01*
X119971557Y-61628412D01*
X120037246Y-61426243D01*
X120070500Y-61216287D01*
X120070500Y-61003713D01*
X120037246Y-60793757D01*
X119971557Y-60591588D01*
X119875051Y-60402184D01*
X119875049Y-60402181D01*
X119875048Y-60402179D01*
X119750109Y-60230213D01*
X119599786Y-60079890D01*
X119427820Y-59954951D01*
X119423033Y-59952512D01*
X119419054Y-59950485D01*
X119368259Y-59902512D01*
X119351463Y-59834692D01*
X119373999Y-59768556D01*
X119419054Y-59729515D01*
X119427816Y-59725051D01*
X119530966Y-59650109D01*
X119599786Y-59600109D01*
X119599788Y-59600106D01*
X119599792Y-59600104D01*
X119750104Y-59449792D01*
X119750106Y-59449788D01*
X119750109Y-59449786D01*
X119875048Y-59277820D01*
X119875047Y-59277820D01*
X119875051Y-59277816D01*
X119971557Y-59088412D01*
X120037246Y-58886243D01*
X120070500Y-58676287D01*
X120070500Y-58463713D01*
X120037246Y-58253757D01*
X119971557Y-58051588D01*
X119875051Y-57862184D01*
X119875049Y-57862181D01*
X119875048Y-57862179D01*
X119750109Y-57690213D01*
X119599786Y-57539890D01*
X119427820Y-57414951D01*
X119423033Y-57412512D01*
X119419054Y-57410485D01*
X119368259Y-57362512D01*
X119351463Y-57294692D01*
X119373999Y-57228556D01*
X119419054Y-57189515D01*
X119427816Y-57185051D01*
X119530966Y-57110109D01*
X119599786Y-57060109D01*
X119599788Y-57060106D01*
X119599792Y-57060104D01*
X119750104Y-56909792D01*
X119750106Y-56909788D01*
X119750109Y-56909786D01*
X119875048Y-56737820D01*
X119875047Y-56737820D01*
X119875051Y-56737816D01*
X119971557Y-56548412D01*
X120037246Y-56346243D01*
X120070500Y-56136287D01*
X120070500Y-55923713D01*
X120037246Y-55713757D01*
X119971557Y-55511588D01*
X119875051Y-55322184D01*
X119875049Y-55322181D01*
X119875048Y-55322179D01*
X119750109Y-55150213D01*
X119599786Y-54999890D01*
X119427817Y-54874949D01*
X119418504Y-54870204D01*
X119367707Y-54822230D01*
X119350912Y-54754409D01*
X119373449Y-54688274D01*
X119418507Y-54649232D01*
X119427555Y-54644622D01*
X119481716Y-54605270D01*
X119481717Y-54605270D01*
X118849408Y-53972962D01*
X118912993Y-53955925D01*
X119027007Y-53890099D01*
X119120099Y-53797007D01*
X119185925Y-53682993D01*
X119202962Y-53619408D01*
X119835270Y-54251717D01*
X119835270Y-54251716D01*
X119874622Y-54197554D01*
X119971095Y-54008217D01*
X120036757Y-53806130D01*
X120036757Y-53806127D01*
X120040307Y-53783713D01*
X137849500Y-53783713D01*
X137849500Y-53996287D01*
X137851421Y-54008414D01*
X137881377Y-54197554D01*
X137882754Y-54206243D01*
X137897529Y-54251717D01*
X137948444Y-54408414D01*
X138044951Y-54597820D01*
X138169890Y-54769786D01*
X138283430Y-54883326D01*
X138316915Y-54944649D01*
X138311931Y-55014341D01*
X138270059Y-55070274D01*
X138239083Y-55087189D01*
X138107669Y-55136203D01*
X138107664Y-55136206D01*
X137992455Y-55222452D01*
X137992452Y-55222455D01*
X137906206Y-55337664D01*
X137906202Y-55337671D01*
X137855908Y-55472517D01*
X137851708Y-55511588D01*
X137849501Y-55532123D01*
X137849500Y-55532135D01*
X137849500Y-57327870D01*
X137849501Y-57327876D01*
X137855908Y-57387483D01*
X137906202Y-57522328D01*
X137906206Y-57522335D01*
X137992452Y-57637544D01*
X137992455Y-57637547D01*
X138107664Y-57723793D01*
X138107671Y-57723797D01*
X138242517Y-57774091D01*
X138242516Y-57774091D01*
X138249444Y-57774835D01*
X138302127Y-57780500D01*
X140097872Y-57780499D01*
X140157483Y-57774091D01*
X140292331Y-57723796D01*
X140407546Y-57637546D01*
X140493796Y-57522331D01*
X140544091Y-57387483D01*
X140550500Y-57327873D01*
X140550499Y-55532128D01*
X140544091Y-55472517D01*
X140506669Y-55372184D01*
X140493797Y-55337671D01*
X140493793Y-55337664D01*
X140407547Y-55222455D01*
X140407544Y-55222452D01*
X140292335Y-55136206D01*
X140292328Y-55136202D01*
X140160917Y-55087189D01*
X140104983Y-55045318D01*
X140080566Y-54979853D01*
X140095418Y-54911580D01*
X140116563Y-54883332D01*
X140230104Y-54769792D01*
X140233565Y-54765029D01*
X140355048Y-54597820D01*
X140355047Y-54597820D01*
X140355051Y-54597816D01*
X140451557Y-54408412D01*
X140517246Y-54206243D01*
X140550500Y-53996287D01*
X140550500Y-53783713D01*
X140517246Y-53573757D01*
X140451557Y-53371588D01*
X140355051Y-53182184D01*
X140355049Y-53182181D01*
X140355048Y-53182179D01*
X140230109Y-53010213D01*
X140079786Y-52859890D01*
X139907817Y-52734949D01*
X139898504Y-52730204D01*
X139847707Y-52682230D01*
X139830912Y-52614409D01*
X139853449Y-52548274D01*
X139898507Y-52509232D01*
X139907555Y-52504622D01*
X139961716Y-52465270D01*
X139961717Y-52465270D01*
X139329408Y-51832962D01*
X139392993Y-51815925D01*
X139507007Y-51750099D01*
X139600099Y-51657007D01*
X139665925Y-51542993D01*
X139682962Y-51479408D01*
X140315270Y-52111717D01*
X140315270Y-52111716D01*
X140354622Y-52057554D01*
X140451095Y-51868217D01*
X140516757Y-51666130D01*
X140516757Y-51666127D01*
X140550000Y-51456246D01*
X140550000Y-51243753D01*
X140516757Y-51033872D01*
X140516757Y-51033869D01*
X140451095Y-50831782D01*
X140354624Y-50642449D01*
X140315270Y-50588282D01*
X140315269Y-50588282D01*
X139682962Y-51220590D01*
X139665925Y-51157007D01*
X139600099Y-51042993D01*
X139507007Y-50949901D01*
X139392993Y-50884075D01*
X139329409Y-50867037D01*
X139961716Y-50234728D01*
X139907550Y-50195375D01*
X139718217Y-50098904D01*
X139516129Y-50033242D01*
X139306246Y-50000000D01*
X139093754Y-50000000D01*
X138883872Y-50033242D01*
X138883869Y-50033242D01*
X138681782Y-50098904D01*
X138492439Y-50195380D01*
X138438282Y-50234727D01*
X138438282Y-50234728D01*
X139070591Y-50867037D01*
X139007007Y-50884075D01*
X138892993Y-50949901D01*
X138799901Y-51042993D01*
X138734075Y-51157007D01*
X138717037Y-51220591D01*
X138084728Y-50588282D01*
X138084727Y-50588282D01*
X138045380Y-50642439D01*
X137948904Y-50831782D01*
X137883242Y-51033869D01*
X137883242Y-51033872D01*
X137850000Y-51243753D01*
X137850000Y-51456246D01*
X137883242Y-51666127D01*
X137883242Y-51666130D01*
X137948904Y-51868217D01*
X138045375Y-52057550D01*
X138084728Y-52111716D01*
X138717036Y-51479407D01*
X138734075Y-51542993D01*
X138799901Y-51657007D01*
X138892993Y-51750099D01*
X139007007Y-51815925D01*
X139070590Y-51832962D01*
X138438282Y-52465269D01*
X138438282Y-52465270D01*
X138492452Y-52504626D01*
X138492451Y-52504626D01*
X138501495Y-52509234D01*
X138552292Y-52557208D01*
X138569087Y-52625029D01*
X138546550Y-52691164D01*
X138501499Y-52730202D01*
X138492182Y-52734949D01*
X138320213Y-52859890D01*
X138169890Y-53010213D01*
X138044951Y-53182179D01*
X137948444Y-53371585D01*
X137882753Y-53573760D01*
X137853344Y-53759443D01*
X137849500Y-53783713D01*
X120040307Y-53783713D01*
X120044152Y-53759443D01*
X120070000Y-53596246D01*
X120070000Y-53383753D01*
X120036757Y-53173872D01*
X120036757Y-53173869D01*
X119971095Y-52971782D01*
X119874624Y-52782449D01*
X119835270Y-52728282D01*
X119835269Y-52728282D01*
X119202962Y-53360590D01*
X119185925Y-53297007D01*
X119120099Y-53182993D01*
X119027007Y-53089901D01*
X118912993Y-53024075D01*
X118849409Y-53007037D01*
X119519627Y-52336818D01*
X119580950Y-52303333D01*
X119607307Y-52300499D01*
X119617872Y-52300499D01*
X119677483Y-52294091D01*
X119812331Y-52243796D01*
X119927546Y-52157546D01*
X120013796Y-52042331D01*
X120064091Y-51907483D01*
X120070500Y-51847873D01*
X120070499Y-50949901D01*
X120070499Y-50281987D01*
X120070499Y-50052129D01*
X120070498Y-50052123D01*
X120070497Y-50052116D01*
X120064091Y-49992517D01*
X120013796Y-49857669D01*
X120013795Y-49857668D01*
X120013793Y-49857664D01*
X119927547Y-49742455D01*
X119927544Y-49742452D01*
X119812335Y-49656206D01*
X119812328Y-49656202D01*
X119677482Y-49605908D01*
X119677483Y-49605908D01*
X119617883Y-49599501D01*
X119617881Y-49599500D01*
X119617873Y-49599500D01*
X119617864Y-49599500D01*
X117822129Y-49599500D01*
X117822123Y-49599501D01*
X117762516Y-49605908D01*
X117627671Y-49656202D01*
X117627664Y-49656206D01*
X117512455Y-49742452D01*
X117512452Y-49742455D01*
X117426206Y-49857664D01*
X117426202Y-49857671D01*
X117375908Y-49992517D01*
X117375104Y-50000000D01*
X117369501Y-50052123D01*
X117369500Y-50052135D01*
X104530499Y-50052135D01*
X104530499Y-50052128D01*
X104524091Y-49992517D01*
X104473796Y-49857669D01*
X104473795Y-49857668D01*
X104473793Y-49857664D01*
X104387547Y-49742455D01*
X104387544Y-49742452D01*
X104272335Y-49656206D01*
X104272328Y-49656202D01*
X104137482Y-49605908D01*
X104137483Y-49605908D01*
X104077883Y-49599501D01*
X104077881Y-49599500D01*
X104077873Y-49599500D01*
X104077864Y-49599500D01*
X102282129Y-49599500D01*
X102282123Y-49599501D01*
X102222516Y-49605908D01*
X102087671Y-49656202D01*
X102087664Y-49656206D01*
X101972455Y-49742452D01*
X101972452Y-49742455D01*
X101886206Y-49857664D01*
X101886202Y-49857671D01*
X101835908Y-49992517D01*
X101835104Y-50000000D01*
X101829501Y-50052123D01*
X101829500Y-50052135D01*
X97294620Y-50052135D01*
X97293598Y-50042627D01*
X97293596Y-50042620D01*
X97243354Y-49907913D01*
X97243350Y-49907906D01*
X97157190Y-49792812D01*
X97157187Y-49792809D01*
X97042093Y-49706649D01*
X97042086Y-49706645D01*
X96907379Y-49656403D01*
X96907372Y-49656401D01*
X96847844Y-49650000D01*
X96200000Y-49650000D01*
X96200000Y-50566988D01*
X96142993Y-50534075D01*
X96015826Y-50500000D01*
X95884174Y-50500000D01*
X95757007Y-50534075D01*
X95700000Y-50566988D01*
X95700000Y-49650000D01*
X95052155Y-49650000D01*
X94992627Y-49656401D01*
X94992620Y-49656403D01*
X94857913Y-49706645D01*
X94857906Y-49706649D01*
X94742812Y-49792809D01*
X94742809Y-49792812D01*
X94656649Y-49907906D01*
X94656645Y-49907913D01*
X94606403Y-50042620D01*
X94606401Y-50042627D01*
X94600000Y-50102155D01*
X94600000Y-50750000D01*
X95516988Y-50750000D01*
X95484075Y-50807007D01*
X95450000Y-50934174D01*
X95450000Y-51065826D01*
X95484075Y-51192993D01*
X95516988Y-51250000D01*
X94600000Y-51250000D01*
X94600000Y-51897844D01*
X94606401Y-51957372D01*
X94606403Y-51957379D01*
X94656645Y-52092086D01*
X94656649Y-52092093D01*
X94742809Y-52207187D01*
X94742812Y-52207190D01*
X94857906Y-52293350D01*
X94857913Y-52293354D01*
X94989470Y-52342422D01*
X95045404Y-52384293D01*
X95069821Y-52449758D01*
X95054969Y-52518031D01*
X95033819Y-52546285D01*
X94919889Y-52660215D01*
X94794951Y-52832179D01*
X94698444Y-53021585D01*
X94632753Y-53223760D01*
X94599500Y-53433713D01*
X85885500Y-53433713D01*
X85885500Y-29238713D01*
X90754500Y-29238713D01*
X90754500Y-29451286D01*
X90781695Y-29622993D01*
X90787754Y-29661243D01*
X90827495Y-29783554D01*
X90853444Y-29863414D01*
X90949951Y-30052820D01*
X91074890Y-30224786D01*
X91225213Y-30375109D01*
X91397179Y-30500048D01*
X91397181Y-30500049D01*
X91397184Y-30500051D01*
X91586588Y-30596557D01*
X91788757Y-30662246D01*
X91998713Y-30695500D01*
X91998714Y-30695500D01*
X92211286Y-30695500D01*
X92211287Y-30695500D01*
X92421243Y-30662246D01*
X92623412Y-30596557D01*
X92812816Y-30500051D01*
X92867792Y-30460109D01*
X92984786Y-30375109D01*
X92984788Y-30375106D01*
X92984792Y-30375104D01*
X93135104Y-30224792D01*
X93135106Y-30224788D01*
X93135109Y-30224786D01*
X93260048Y-30052820D01*
X93260047Y-30052820D01*
X93260051Y-30052816D01*
X93264514Y-30044054D01*
X93312488Y-29993259D01*
X93380308Y-29976463D01*
X93446444Y-29998999D01*
X93485486Y-30044056D01*
X93489951Y-30052820D01*
X93614890Y-30224786D01*
X93765213Y-30375109D01*
X93937179Y-30500048D01*
X93937181Y-30500049D01*
X93937184Y-30500051D01*
X94126588Y-30596557D01*
X94328757Y-30662246D01*
X94538713Y-30695500D01*
X94538714Y-30695500D01*
X94751286Y-30695500D01*
X94751287Y-30695500D01*
X94961243Y-30662246D01*
X95163412Y-30596557D01*
X95352816Y-30500051D01*
X95407792Y-30460109D01*
X95524786Y-30375109D01*
X95524788Y-30375106D01*
X95524792Y-30375104D01*
X95675104Y-30224792D01*
X95675106Y-30224788D01*
X95675109Y-30224786D01*
X95800048Y-30052820D01*
X95800047Y-30052820D01*
X95800051Y-30052816D01*
X95804514Y-30044054D01*
X95852488Y-29993259D01*
X95920308Y-29976463D01*
X95986444Y-29998999D01*
X96025486Y-30044056D01*
X96029951Y-30052820D01*
X96154890Y-30224786D01*
X96305213Y-30375109D01*
X96477179Y-30500048D01*
X96477181Y-30500049D01*
X96477184Y-30500051D01*
X96666588Y-30596557D01*
X96868757Y-30662246D01*
X97078713Y-30695500D01*
X97078714Y-30695500D01*
X97291286Y-30695500D01*
X97291287Y-30695500D01*
X97501243Y-30662246D01*
X97703412Y-30596557D01*
X97892816Y-30500051D01*
X97947792Y-30460109D01*
X98064786Y-30375109D01*
X98064788Y-30375106D01*
X98064792Y-30375104D01*
X98215104Y-30224792D01*
X98215106Y-30224788D01*
X98215109Y-30224786D01*
X98340048Y-30052820D01*
X98340047Y-30052820D01*
X98340051Y-30052816D01*
X98344514Y-30044054D01*
X98392488Y-29993259D01*
X98460308Y-29976463D01*
X98526444Y-29998999D01*
X98565486Y-30044056D01*
X98569951Y-30052820D01*
X98694890Y-30224786D01*
X98845213Y-30375109D01*
X99017179Y-30500048D01*
X99017181Y-30500049D01*
X99017184Y-30500051D01*
X99206588Y-30596557D01*
X99408757Y-30662246D01*
X99618713Y-30695500D01*
X99618714Y-30695500D01*
X99831286Y-30695500D01*
X99831287Y-30695500D01*
X100041243Y-30662246D01*
X100243412Y-30596557D01*
X100432816Y-30500051D01*
X100487792Y-30460109D01*
X100604786Y-30375109D01*
X100604788Y-30375106D01*
X100604792Y-30375104D01*
X100755104Y-30224792D01*
X100755106Y-30224788D01*
X100755109Y-30224786D01*
X100880048Y-30052820D01*
X100880047Y-30052820D01*
X100880051Y-30052816D01*
X100884514Y-30044054D01*
X100932488Y-29993259D01*
X101000308Y-29976463D01*
X101066444Y-29998999D01*
X101105486Y-30044056D01*
X101109951Y-30052820D01*
X101234890Y-30224786D01*
X101385213Y-30375109D01*
X101557179Y-30500048D01*
X101557181Y-30500049D01*
X101557184Y-30500051D01*
X101746588Y-30596557D01*
X101948757Y-30662246D01*
X102158713Y-30695500D01*
X102158714Y-30695500D01*
X102371286Y-30695500D01*
X102371287Y-30695500D01*
X102581243Y-30662246D01*
X102783412Y-30596557D01*
X102972816Y-30500051D01*
X103027792Y-30460109D01*
X103144786Y-30375109D01*
X103144788Y-30375106D01*
X103144792Y-30375104D01*
X103295104Y-30224792D01*
X103295106Y-30224788D01*
X103295109Y-30224786D01*
X103420048Y-30052820D01*
X103420047Y-30052820D01*
X103420051Y-30052816D01*
X103424514Y-30044054D01*
X103472488Y-29993259D01*
X103540308Y-29976463D01*
X103606444Y-29998999D01*
X103645486Y-30044056D01*
X103649951Y-30052820D01*
X103774890Y-30224786D01*
X103925213Y-30375109D01*
X104097179Y-30500048D01*
X104097181Y-30500049D01*
X104097184Y-30500051D01*
X104286588Y-30596557D01*
X104488757Y-30662246D01*
X104698713Y-30695500D01*
X104698714Y-30695500D01*
X104911286Y-30695500D01*
X104911287Y-30695500D01*
X105121243Y-30662246D01*
X105323412Y-30596557D01*
X105512816Y-30500051D01*
X105567792Y-30460109D01*
X105684786Y-30375109D01*
X105684788Y-30375106D01*
X105684792Y-30375104D01*
X105835104Y-30224792D01*
X105835106Y-30224788D01*
X105835109Y-30224786D01*
X105960048Y-30052820D01*
X105960047Y-30052820D01*
X105960051Y-30052816D01*
X105964514Y-30044054D01*
X106012488Y-29993259D01*
X106080308Y-29976463D01*
X106146444Y-29998999D01*
X106185486Y-30044056D01*
X106189951Y-30052820D01*
X106314890Y-30224786D01*
X106465213Y-30375109D01*
X106637179Y-30500048D01*
X106637181Y-30500049D01*
X106637184Y-30500051D01*
X106826588Y-30596557D01*
X107028757Y-30662246D01*
X107238713Y-30695500D01*
X107238714Y-30695500D01*
X107451286Y-30695500D01*
X107451287Y-30695500D01*
X107661243Y-30662246D01*
X107863412Y-30596557D01*
X108052816Y-30500051D01*
X108107792Y-30460109D01*
X108224786Y-30375109D01*
X108224788Y-30375106D01*
X108224792Y-30375104D01*
X108375104Y-30224792D01*
X108375106Y-30224788D01*
X108375109Y-30224786D01*
X108500048Y-30052820D01*
X108500047Y-30052820D01*
X108500051Y-30052816D01*
X108504514Y-30044054D01*
X108552488Y-29993259D01*
X108620308Y-29976463D01*
X108686444Y-29998999D01*
X108725486Y-30044056D01*
X108729951Y-30052820D01*
X108854890Y-30224786D01*
X109005213Y-30375109D01*
X109177179Y-30500048D01*
X109177181Y-30500049D01*
X109177184Y-30500051D01*
X109366588Y-30596557D01*
X109568757Y-30662246D01*
X109778713Y-30695500D01*
X109778714Y-30695500D01*
X109991286Y-30695500D01*
X109991287Y-30695500D01*
X110201243Y-30662246D01*
X110403412Y-30596557D01*
X110592816Y-30500051D01*
X110647792Y-30460109D01*
X110764786Y-30375109D01*
X110764788Y-30375106D01*
X110764792Y-30375104D01*
X110915104Y-30224792D01*
X110915106Y-30224788D01*
X110915109Y-30224786D01*
X110985064Y-30128500D01*
X111040051Y-30052816D01*
X111044793Y-30043508D01*
X111092763Y-29992711D01*
X111160583Y-29975911D01*
X111226719Y-29998445D01*
X111265763Y-30043500D01*
X111270373Y-30052547D01*
X111309728Y-30106716D01*
X111942037Y-29474408D01*
X111959075Y-29537993D01*
X112024901Y-29652007D01*
X112117993Y-29745099D01*
X112232007Y-29810925D01*
X112295590Y-29827962D01*
X111663282Y-30460269D01*
X111663282Y-30460270D01*
X111717449Y-30499624D01*
X111906782Y-30596095D01*
X112108870Y-30661757D01*
X112318754Y-30695000D01*
X112531246Y-30695000D01*
X112741127Y-30661757D01*
X112741130Y-30661757D01*
X112943217Y-30596095D01*
X113132554Y-30499622D01*
X113186716Y-30460270D01*
X113186717Y-30460270D01*
X112554408Y-29827962D01*
X112617993Y-29810925D01*
X112732007Y-29745099D01*
X112825099Y-29652007D01*
X112890925Y-29537993D01*
X112907962Y-29474409D01*
X113578181Y-30144628D01*
X113611666Y-30205951D01*
X113614500Y-30232300D01*
X113614500Y-30242865D01*
X113614501Y-30242876D01*
X113620908Y-30302483D01*
X113671202Y-30437328D01*
X113671206Y-30437335D01*
X113757452Y-30552544D01*
X113757455Y-30552547D01*
X113872664Y-30638793D01*
X113872671Y-30638797D01*
X114007517Y-30689091D01*
X114007516Y-30689091D01*
X114014444Y-30689835D01*
X114067127Y-30695500D01*
X115862872Y-30695499D01*
X115922483Y-30689091D01*
X116057331Y-30638796D01*
X116172546Y-30552546D01*
X116258796Y-30437331D01*
X116309091Y-30302483D01*
X116315500Y-30242873D01*
X116315499Y-28532135D01*
X124049500Y-28532135D01*
X124049500Y-30327870D01*
X124049501Y-30327876D01*
X124055908Y-30387483D01*
X124106202Y-30522328D01*
X124106206Y-30522335D01*
X124192452Y-30637544D01*
X124192455Y-30637547D01*
X124307664Y-30723793D01*
X124307671Y-30723797D01*
X124442517Y-30774091D01*
X124442516Y-30774091D01*
X124449444Y-30774835D01*
X124502127Y-30780500D01*
X126297872Y-30780499D01*
X126357483Y-30774091D01*
X126492331Y-30723796D01*
X126607546Y-30637546D01*
X126693796Y-30522331D01*
X126742810Y-30390916D01*
X126784681Y-30334984D01*
X126850145Y-30310566D01*
X126918418Y-30325417D01*
X126946673Y-30346569D01*
X127060213Y-30460109D01*
X127232179Y-30585048D01*
X127232181Y-30585049D01*
X127232184Y-30585051D01*
X127421588Y-30681557D01*
X127623757Y-30747246D01*
X127833713Y-30780500D01*
X127833714Y-30780500D01*
X128046286Y-30780500D01*
X128046287Y-30780500D01*
X128256243Y-30747246D01*
X128458412Y-30681557D01*
X128647816Y-30585051D01*
X128719620Y-30532883D01*
X128819786Y-30460109D01*
X128819788Y-30460106D01*
X128819792Y-30460104D01*
X128970104Y-30309792D01*
X128970106Y-30309788D01*
X128970109Y-30309786D01*
X129055890Y-30191717D01*
X129095051Y-30137816D01*
X129099793Y-30128508D01*
X129147763Y-30077711D01*
X129215583Y-30060911D01*
X129281719Y-30083445D01*
X129320763Y-30128500D01*
X129325373Y-30137547D01*
X129364728Y-30191716D01*
X129997037Y-29559408D01*
X130014075Y-29622993D01*
X130079901Y-29737007D01*
X130172993Y-29830099D01*
X130287007Y-29895925D01*
X130350590Y-29912962D01*
X129718282Y-30545269D01*
X129718282Y-30545270D01*
X129772449Y-30584624D01*
X129961782Y-30681095D01*
X130163870Y-30746757D01*
X130373754Y-30780000D01*
X130586246Y-30780000D01*
X130796127Y-30746757D01*
X130796130Y-30746757D01*
X130998217Y-30681095D01*
X131172043Y-30592526D01*
X131172044Y-30592525D01*
X131187552Y-30584624D01*
X131241716Y-30545270D01*
X131241717Y-30545270D01*
X130609408Y-29912962D01*
X130672993Y-29895925D01*
X130787007Y-29830099D01*
X130880099Y-29737007D01*
X130945925Y-29622993D01*
X130962962Y-29559408D01*
X131595270Y-30191717D01*
X131595270Y-30191716D01*
X131634622Y-30137554D01*
X131731095Y-29948217D01*
X131796757Y-29746130D01*
X131796757Y-29746127D01*
X131830000Y-29536246D01*
X131830000Y-29528753D01*
X139195000Y-29528753D01*
X139195000Y-29741246D01*
X139228242Y-29951127D01*
X139228242Y-29951130D01*
X139293904Y-30153217D01*
X139390375Y-30342550D01*
X139429728Y-30396716D01*
X140062036Y-29764407D01*
X140079075Y-29827993D01*
X140144901Y-29942007D01*
X140237993Y-30035099D01*
X140352007Y-30100925D01*
X140415590Y-30117962D01*
X139783282Y-30750269D01*
X139783282Y-30750270D01*
X139837449Y-30789624D01*
X140026782Y-30886095D01*
X140228870Y-30951757D01*
X140438754Y-30985000D01*
X140651246Y-30985000D01*
X140861127Y-30951757D01*
X140861130Y-30951757D01*
X141063217Y-30886095D01*
X141252554Y-30789622D01*
X141306716Y-30750270D01*
X141306717Y-30750270D01*
X140674408Y-30117962D01*
X140737993Y-30100925D01*
X140852007Y-30035099D01*
X140945099Y-29942007D01*
X141010925Y-29827993D01*
X141027962Y-29764408D01*
X141660270Y-30396717D01*
X141660270Y-30396716D01*
X141699622Y-30342555D01*
X141704232Y-30333507D01*
X141752205Y-30282709D01*
X141820025Y-30265912D01*
X141886161Y-30288447D01*
X141925204Y-30333504D01*
X141929949Y-30342817D01*
X142054890Y-30514786D01*
X142205213Y-30665109D01*
X142377179Y-30790048D01*
X142377181Y-30790049D01*
X142377184Y-30790051D01*
X142566588Y-30886557D01*
X142768757Y-30952246D01*
X142978713Y-30985500D01*
X142978714Y-30985500D01*
X143191286Y-30985500D01*
X143191287Y-30985500D01*
X143401243Y-30952246D01*
X143603412Y-30886557D01*
X143792816Y-30790051D01*
X143851732Y-30747246D01*
X143964784Y-30665110D01*
X143964784Y-30665109D01*
X143964792Y-30665104D01*
X144078329Y-30551566D01*
X144139648Y-30518084D01*
X144209340Y-30523068D01*
X144265274Y-30564939D01*
X144282189Y-30595917D01*
X144331202Y-30727328D01*
X144331206Y-30727335D01*
X144417452Y-30842544D01*
X144417455Y-30842547D01*
X144532664Y-30928793D01*
X144532671Y-30928797D01*
X144667517Y-30979091D01*
X144667516Y-30979091D01*
X144674444Y-30979835D01*
X144727127Y-30985500D01*
X146522872Y-30985499D01*
X146582483Y-30979091D01*
X146717331Y-30928796D01*
X146832546Y-30842546D01*
X146918796Y-30727331D01*
X146969091Y-30592483D01*
X146975500Y-30532873D01*
X146975499Y-28737128D01*
X146969091Y-28677517D01*
X146967810Y-28674083D01*
X146918797Y-28542671D01*
X146918793Y-28542664D01*
X146832547Y-28427455D01*
X146832544Y-28427452D01*
X146717335Y-28341206D01*
X146717328Y-28341202D01*
X146582482Y-28290908D01*
X146582483Y-28290908D01*
X146522883Y-28284501D01*
X146522881Y-28284500D01*
X146522873Y-28284500D01*
X146522864Y-28284500D01*
X144727129Y-28284500D01*
X144727123Y-28284501D01*
X144667516Y-28290908D01*
X144532671Y-28341202D01*
X144532664Y-28341206D01*
X144417455Y-28427452D01*
X144417452Y-28427455D01*
X144331206Y-28542664D01*
X144331203Y-28542669D01*
X144282189Y-28674083D01*
X144240317Y-28730016D01*
X144174853Y-28754433D01*
X144106580Y-28739581D01*
X144078326Y-28718430D01*
X143964786Y-28604890D01*
X143792820Y-28479951D01*
X143603414Y-28383444D01*
X143603413Y-28383443D01*
X143603412Y-28383443D01*
X143401243Y-28317754D01*
X143401241Y-28317753D01*
X143401240Y-28317753D01*
X143239957Y-28292208D01*
X143191287Y-28284500D01*
X142978713Y-28284500D01*
X142930042Y-28292208D01*
X142768760Y-28317753D01*
X142566585Y-28383444D01*
X142377179Y-28479951D01*
X142205213Y-28604890D01*
X142054890Y-28755213D01*
X141929949Y-28927182D01*
X141925202Y-28936499D01*
X141877227Y-28987293D01*
X141809405Y-29004087D01*
X141743271Y-28981548D01*
X141704234Y-28936495D01*
X141699626Y-28927452D01*
X141660270Y-28873282D01*
X141660269Y-28873282D01*
X141027962Y-29505590D01*
X141010925Y-29442007D01*
X140945099Y-29327993D01*
X140852007Y-29234901D01*
X140737993Y-29169075D01*
X140674409Y-29152037D01*
X141306716Y-28519728D01*
X141252550Y-28480375D01*
X141063217Y-28383904D01*
X140861129Y-28318242D01*
X140651246Y-28285000D01*
X140438754Y-28285000D01*
X140228872Y-28318242D01*
X140228869Y-28318242D01*
X140026782Y-28383904D01*
X139837439Y-28480380D01*
X139783282Y-28519727D01*
X139783282Y-28519728D01*
X140415591Y-29152037D01*
X140352007Y-29169075D01*
X140237993Y-29234901D01*
X140144901Y-29327993D01*
X140079075Y-29442007D01*
X140062037Y-29505591D01*
X139429728Y-28873282D01*
X139429727Y-28873282D01*
X139390380Y-28927439D01*
X139293904Y-29116782D01*
X139228242Y-29318869D01*
X139228242Y-29318872D01*
X139195000Y-29528753D01*
X131830000Y-29528753D01*
X131830000Y-29323753D01*
X131796757Y-29113872D01*
X131796757Y-29113869D01*
X131731095Y-28911782D01*
X131634623Y-28722447D01*
X131634621Y-28722443D01*
X131595271Y-28668282D01*
X131595269Y-28668282D01*
X130962962Y-29300590D01*
X130945925Y-29237007D01*
X130880099Y-29122993D01*
X130787007Y-29029901D01*
X130672993Y-28964075D01*
X130609409Y-28947037D01*
X131241716Y-28314728D01*
X131187550Y-28275375D01*
X130998217Y-28178904D01*
X130796129Y-28113242D01*
X130586246Y-28080000D01*
X130373754Y-28080000D01*
X130163872Y-28113242D01*
X130163869Y-28113242D01*
X129961782Y-28178904D01*
X129772439Y-28275380D01*
X129718282Y-28314727D01*
X129718282Y-28314728D01*
X130350591Y-28947037D01*
X130287007Y-28964075D01*
X130172993Y-29029901D01*
X130079901Y-29122993D01*
X130014075Y-29237007D01*
X129997037Y-29300591D01*
X129364728Y-28668282D01*
X129364727Y-28668282D01*
X129325380Y-28722440D01*
X129325376Y-28722446D01*
X129320760Y-28731505D01*
X129272781Y-28782297D01*
X129204959Y-28799087D01*
X129138826Y-28776543D01*
X129099794Y-28731493D01*
X129095051Y-28722184D01*
X129095049Y-28722181D01*
X129095048Y-28722179D01*
X128970109Y-28550213D01*
X128819786Y-28399890D01*
X128647820Y-28274951D01*
X128458414Y-28178444D01*
X128458413Y-28178443D01*
X128458412Y-28178443D01*
X128256243Y-28112754D01*
X128256241Y-28112753D01*
X128256240Y-28112753D01*
X128094957Y-28087208D01*
X128046287Y-28079500D01*
X127833713Y-28079500D01*
X127785042Y-28087208D01*
X127623760Y-28112753D01*
X127421585Y-28178444D01*
X127232179Y-28274951D01*
X127060215Y-28399889D01*
X126946673Y-28513431D01*
X126885350Y-28546915D01*
X126815658Y-28541931D01*
X126759725Y-28500059D01*
X126742810Y-28469082D01*
X126693797Y-28337671D01*
X126693793Y-28337664D01*
X126607547Y-28222455D01*
X126607544Y-28222452D01*
X126492335Y-28136206D01*
X126492328Y-28136202D01*
X126357482Y-28085908D01*
X126357483Y-28085908D01*
X126297883Y-28079501D01*
X126297881Y-28079500D01*
X126297873Y-28079500D01*
X126297864Y-28079500D01*
X124502129Y-28079500D01*
X124502123Y-28079501D01*
X124442516Y-28085908D01*
X124307671Y-28136202D01*
X124307664Y-28136206D01*
X124192455Y-28222452D01*
X124192452Y-28222455D01*
X124106206Y-28337664D01*
X124106202Y-28337671D01*
X124055908Y-28472517D01*
X124049501Y-28532116D01*
X124049500Y-28532135D01*
X116315499Y-28532135D01*
X116315499Y-28447128D01*
X116309091Y-28387517D01*
X116307743Y-28383904D01*
X116258797Y-28252671D01*
X116258793Y-28252664D01*
X116172547Y-28137455D01*
X116172544Y-28137452D01*
X116057335Y-28051206D01*
X116057328Y-28051202D01*
X115922482Y-28000908D01*
X115922483Y-28000908D01*
X115862883Y-27994501D01*
X115862881Y-27994500D01*
X115862873Y-27994500D01*
X115862864Y-27994500D01*
X114067129Y-27994500D01*
X114067123Y-27994501D01*
X114007516Y-28000908D01*
X113872671Y-28051202D01*
X113872664Y-28051206D01*
X113757455Y-28137452D01*
X113757452Y-28137455D01*
X113671206Y-28252664D01*
X113671202Y-28252671D01*
X113620908Y-28387517D01*
X113616615Y-28427452D01*
X113614501Y-28447123D01*
X113614500Y-28447135D01*
X113614500Y-28457690D01*
X113594815Y-28524729D01*
X113578181Y-28545371D01*
X112907962Y-29215590D01*
X112890925Y-29152007D01*
X112825099Y-29037993D01*
X112732007Y-28944901D01*
X112617993Y-28879075D01*
X112554409Y-28862037D01*
X113186716Y-28229728D01*
X113132550Y-28190375D01*
X112943217Y-28093904D01*
X112741129Y-28028242D01*
X112531246Y-27995000D01*
X112318754Y-27995000D01*
X112108872Y-28028242D01*
X112108869Y-28028242D01*
X111906782Y-28093904D01*
X111717439Y-28190380D01*
X111663282Y-28229727D01*
X111663282Y-28229728D01*
X112295591Y-28862037D01*
X112232007Y-28879075D01*
X112117993Y-28944901D01*
X112024901Y-29037993D01*
X111959075Y-29152007D01*
X111942037Y-29215591D01*
X111309728Y-28583282D01*
X111309727Y-28583282D01*
X111270380Y-28637440D01*
X111270376Y-28637446D01*
X111265760Y-28646505D01*
X111217781Y-28697297D01*
X111149959Y-28714087D01*
X111083826Y-28691543D01*
X111044794Y-28646493D01*
X111040051Y-28637184D01*
X111040049Y-28637181D01*
X111040048Y-28637179D01*
X110915109Y-28465213D01*
X110764786Y-28314890D01*
X110592820Y-28189951D01*
X110403414Y-28093444D01*
X110403413Y-28093443D01*
X110403412Y-28093443D01*
X110201243Y-28027754D01*
X110201241Y-28027753D01*
X110201240Y-28027753D01*
X110039957Y-28002208D01*
X109991287Y-27994500D01*
X109778713Y-27994500D01*
X109730042Y-28002208D01*
X109568760Y-28027753D01*
X109366585Y-28093444D01*
X109177179Y-28189951D01*
X109005213Y-28314890D01*
X108854890Y-28465213D01*
X108729949Y-28637182D01*
X108725484Y-28645946D01*
X108677509Y-28696742D01*
X108609688Y-28713536D01*
X108543553Y-28690998D01*
X108504516Y-28645946D01*
X108500050Y-28637182D01*
X108375109Y-28465213D01*
X108224786Y-28314890D01*
X108052820Y-28189951D01*
X107863414Y-28093444D01*
X107863413Y-28093443D01*
X107863412Y-28093443D01*
X107661243Y-28027754D01*
X107661241Y-28027753D01*
X107661240Y-28027753D01*
X107499957Y-28002208D01*
X107451287Y-27994500D01*
X107238713Y-27994500D01*
X107190042Y-28002208D01*
X107028760Y-28027753D01*
X106826585Y-28093444D01*
X106637179Y-28189951D01*
X106465213Y-28314890D01*
X106314890Y-28465213D01*
X106189949Y-28637182D01*
X106185484Y-28645946D01*
X106137509Y-28696742D01*
X106069688Y-28713536D01*
X106003553Y-28690998D01*
X105964516Y-28645946D01*
X105960050Y-28637182D01*
X105835109Y-28465213D01*
X105684786Y-28314890D01*
X105512820Y-28189951D01*
X105323414Y-28093444D01*
X105323413Y-28093443D01*
X105323412Y-28093443D01*
X105121243Y-28027754D01*
X105121241Y-28027753D01*
X105121240Y-28027753D01*
X104959957Y-28002208D01*
X104911287Y-27994500D01*
X104698713Y-27994500D01*
X104650042Y-28002208D01*
X104488760Y-28027753D01*
X104286585Y-28093444D01*
X104097179Y-28189951D01*
X103925213Y-28314890D01*
X103774890Y-28465213D01*
X103649949Y-28637182D01*
X103645484Y-28645946D01*
X103597509Y-28696742D01*
X103529688Y-28713536D01*
X103463553Y-28690998D01*
X103424516Y-28645946D01*
X103420050Y-28637182D01*
X103295109Y-28465213D01*
X103144786Y-28314890D01*
X102972820Y-28189951D01*
X102783414Y-28093444D01*
X102783413Y-28093443D01*
X102783412Y-28093443D01*
X102581243Y-28027754D01*
X102581241Y-28027753D01*
X102581240Y-28027753D01*
X102419957Y-28002208D01*
X102371287Y-27994500D01*
X102158713Y-27994500D01*
X102110042Y-28002208D01*
X101948760Y-28027753D01*
X101746585Y-28093444D01*
X101557179Y-28189951D01*
X101385213Y-28314890D01*
X101234890Y-28465213D01*
X101109949Y-28637182D01*
X101105484Y-28645946D01*
X101057509Y-28696742D01*
X100989688Y-28713536D01*
X100923553Y-28690998D01*
X100884516Y-28645946D01*
X100880050Y-28637182D01*
X100755109Y-28465213D01*
X100604786Y-28314890D01*
X100432820Y-28189951D01*
X100243414Y-28093444D01*
X100243413Y-28093443D01*
X100243412Y-28093443D01*
X100041243Y-28027754D01*
X100041241Y-28027753D01*
X100041240Y-28027753D01*
X99879957Y-28002208D01*
X99831287Y-27994500D01*
X99618713Y-27994500D01*
X99570042Y-28002208D01*
X99408760Y-28027753D01*
X99206585Y-28093444D01*
X99017179Y-28189951D01*
X98845213Y-28314890D01*
X98694890Y-28465213D01*
X98569949Y-28637182D01*
X98565484Y-28645946D01*
X98517509Y-28696742D01*
X98449688Y-28713536D01*
X98383553Y-28690998D01*
X98344516Y-28645946D01*
X98340050Y-28637182D01*
X98215109Y-28465213D01*
X98064786Y-28314890D01*
X97892820Y-28189951D01*
X97703414Y-28093444D01*
X97703413Y-28093443D01*
X97703412Y-28093443D01*
X97501243Y-28027754D01*
X97501241Y-28027753D01*
X97501240Y-28027753D01*
X97339957Y-28002208D01*
X97291287Y-27994500D01*
X97078713Y-27994500D01*
X97030042Y-28002208D01*
X96868760Y-28027753D01*
X96666585Y-28093444D01*
X96477179Y-28189951D01*
X96305213Y-28314890D01*
X96154890Y-28465213D01*
X96029949Y-28637182D01*
X96025484Y-28645946D01*
X95977509Y-28696742D01*
X95909688Y-28713536D01*
X95843553Y-28690998D01*
X95804516Y-28645946D01*
X95800050Y-28637182D01*
X95675109Y-28465213D01*
X95524786Y-28314890D01*
X95352820Y-28189951D01*
X95163414Y-28093444D01*
X95163413Y-28093443D01*
X95163412Y-28093443D01*
X94961243Y-28027754D01*
X94961241Y-28027753D01*
X94961240Y-28027753D01*
X94799957Y-28002208D01*
X94751287Y-27994500D01*
X94538713Y-27994500D01*
X94490042Y-28002208D01*
X94328760Y-28027753D01*
X94126585Y-28093444D01*
X93937179Y-28189951D01*
X93765213Y-28314890D01*
X93614890Y-28465213D01*
X93489949Y-28637182D01*
X93485484Y-28645946D01*
X93437509Y-28696742D01*
X93369688Y-28713536D01*
X93303553Y-28690998D01*
X93264516Y-28645946D01*
X93260050Y-28637182D01*
X93135109Y-28465213D01*
X92984786Y-28314890D01*
X92812820Y-28189951D01*
X92623414Y-28093444D01*
X92623413Y-28093443D01*
X92623412Y-28093443D01*
X92421243Y-28027754D01*
X92421241Y-28027753D01*
X92421240Y-28027753D01*
X92259957Y-28002208D01*
X92211287Y-27994500D01*
X91998713Y-27994500D01*
X91950042Y-28002208D01*
X91788760Y-28027753D01*
X91586585Y-28093444D01*
X91397179Y-28189951D01*
X91225213Y-28314890D01*
X91074890Y-28465213D01*
X90949951Y-28637179D01*
X90853444Y-28826585D01*
X90787753Y-29028760D01*
X90754500Y-29238713D01*
X85885500Y-29238713D01*
X85885500Y-20274500D01*
X85905185Y-20207461D01*
X85957989Y-20161706D01*
X86009500Y-20150500D01*
X150190500Y-20150500D01*
X150257539Y-20170185D01*
G37*
%TD.AperFunction*%
%TD*%
M02*
