%TF.GenerationSoftware,KiCad,Pcbnew,9.0.4*%
%TF.CreationDate,2026-06-01T14:33:05-04:00*%
%TF.ProjectId,joulemeter,6a6f756c-656d-4657-9465-722e6b696361,rev?*%
%TF.SameCoordinates,Original*%
%TF.FileFunction,Legend,Top*%
%TF.FilePolarity,Positive*%
%FSLAX46Y46*%
G04 Gerber Fmt 4.6, Leading zero omitted, Abs format (unit mm)*
G04 Created by KiCad (PCBNEW 9.0.4) date 2026-06-01 14:33:05*
%MOMM*%
%LPD*%
G01*
G04 APERTURE LIST*
%ADD10C,0.125000*%
%ADD11C,0.150000*%
%ADD12C,0.100000*%
%ADD13C,0.120000*%
%ADD14C,0.300000*%
%ADD15C,1.700000*%
%ADD16R,1.700000X1.700000*%
%ADD17C,2.000000*%
%ADD18R,1.800000X1.800000*%
%ADD19C,1.800000*%
%ADD20C,1.400000*%
%ADD21O,3.474000X6.744000*%
G04 APERTURE END LIST*
D10*
X132919047Y-76451690D02*
X132871428Y-76413595D01*
X132871428Y-76413595D02*
X132799999Y-76413595D01*
X132799999Y-76413595D02*
X132728571Y-76451690D01*
X132728571Y-76451690D02*
X132680952Y-76527880D01*
X132680952Y-76527880D02*
X132657142Y-76604071D01*
X132657142Y-76604071D02*
X132633333Y-76756452D01*
X132633333Y-76756452D02*
X132633333Y-76870738D01*
X132633333Y-76870738D02*
X132657142Y-77023119D01*
X132657142Y-77023119D02*
X132680952Y-77099309D01*
X132680952Y-77099309D02*
X132728571Y-77175500D01*
X132728571Y-77175500D02*
X132799999Y-77213595D01*
X132799999Y-77213595D02*
X132847618Y-77213595D01*
X132847618Y-77213595D02*
X132919047Y-77175500D01*
X132919047Y-77175500D02*
X132942856Y-77137404D01*
X132942856Y-77137404D02*
X132942856Y-76870738D01*
X132942856Y-76870738D02*
X132847618Y-76870738D01*
X133157142Y-77213595D02*
X133157142Y-76413595D01*
X133157142Y-76413595D02*
X133442856Y-77213595D01*
X133442856Y-77213595D02*
X133442856Y-76413595D01*
X133680952Y-77213595D02*
X133680952Y-76413595D01*
X133680952Y-76413595D02*
X133800000Y-76413595D01*
X133800000Y-76413595D02*
X133871428Y-76451690D01*
X133871428Y-76451690D02*
X133919047Y-76527880D01*
X133919047Y-76527880D02*
X133942857Y-76604071D01*
X133942857Y-76604071D02*
X133966666Y-76756452D01*
X133966666Y-76756452D02*
X133966666Y-76870738D01*
X133966666Y-76870738D02*
X133942857Y-77023119D01*
X133942857Y-77023119D02*
X133919047Y-77099309D01*
X133919047Y-77099309D02*
X133871428Y-77175500D01*
X133871428Y-77175500D02*
X133800000Y-77213595D01*
X133800000Y-77213595D02*
X133680952Y-77213595D01*
X92752380Y-56287404D02*
X92728571Y-56325500D01*
X92728571Y-56325500D02*
X92657142Y-56363595D01*
X92657142Y-56363595D02*
X92609523Y-56363595D01*
X92609523Y-56363595D02*
X92538095Y-56325500D01*
X92538095Y-56325500D02*
X92490476Y-56249309D01*
X92490476Y-56249309D02*
X92466666Y-56173119D01*
X92466666Y-56173119D02*
X92442857Y-56020738D01*
X92442857Y-56020738D02*
X92442857Y-55906452D01*
X92442857Y-55906452D02*
X92466666Y-55754071D01*
X92466666Y-55754071D02*
X92490476Y-55677880D01*
X92490476Y-55677880D02*
X92538095Y-55601690D01*
X92538095Y-55601690D02*
X92609523Y-55563595D01*
X92609523Y-55563595D02*
X92657142Y-55563595D01*
X92657142Y-55563595D02*
X92728571Y-55601690D01*
X92728571Y-55601690D02*
X92752380Y-55639785D01*
X93204761Y-56363595D02*
X92966666Y-56363595D01*
X92966666Y-56363595D02*
X92966666Y-55563595D01*
X93371428Y-56363595D02*
X93371428Y-55563595D01*
X93657142Y-56363595D02*
X93442857Y-55906452D01*
X93657142Y-55563595D02*
X93371428Y-56020738D01*
X112530953Y-77263595D02*
X112840477Y-77263595D01*
X112840477Y-77263595D02*
X112673810Y-77568357D01*
X112673810Y-77568357D02*
X112745239Y-77568357D01*
X112745239Y-77568357D02*
X112792858Y-77606452D01*
X112792858Y-77606452D02*
X112816667Y-77644547D01*
X112816667Y-77644547D02*
X112840477Y-77720738D01*
X112840477Y-77720738D02*
X112840477Y-77911214D01*
X112840477Y-77911214D02*
X112816667Y-77987404D01*
X112816667Y-77987404D02*
X112792858Y-78025500D01*
X112792858Y-78025500D02*
X112745239Y-78063595D01*
X112745239Y-78063595D02*
X112602382Y-78063595D01*
X112602382Y-78063595D02*
X112554763Y-78025500D01*
X112554763Y-78025500D02*
X112530953Y-77987404D01*
X112983334Y-77263595D02*
X113150000Y-78063595D01*
X113150000Y-78063595D02*
X113316667Y-77263595D01*
X113435714Y-77263595D02*
X113745238Y-77263595D01*
X113745238Y-77263595D02*
X113578571Y-77568357D01*
X113578571Y-77568357D02*
X113650000Y-77568357D01*
X113650000Y-77568357D02*
X113697619Y-77606452D01*
X113697619Y-77606452D02*
X113721428Y-77644547D01*
X113721428Y-77644547D02*
X113745238Y-77720738D01*
X113745238Y-77720738D02*
X113745238Y-77911214D01*
X113745238Y-77911214D02*
X113721428Y-77987404D01*
X113721428Y-77987404D02*
X113697619Y-78025500D01*
X113697619Y-78025500D02*
X113650000Y-78063595D01*
X113650000Y-78063595D02*
X113507143Y-78063595D01*
X113507143Y-78063595D02*
X113459524Y-78025500D01*
X113459524Y-78025500D02*
X113435714Y-77987404D01*
X126319047Y-76601690D02*
X126271428Y-76563595D01*
X126271428Y-76563595D02*
X126199999Y-76563595D01*
X126199999Y-76563595D02*
X126128571Y-76601690D01*
X126128571Y-76601690D02*
X126080952Y-76677880D01*
X126080952Y-76677880D02*
X126057142Y-76754071D01*
X126057142Y-76754071D02*
X126033333Y-76906452D01*
X126033333Y-76906452D02*
X126033333Y-77020738D01*
X126033333Y-77020738D02*
X126057142Y-77173119D01*
X126057142Y-77173119D02*
X126080952Y-77249309D01*
X126080952Y-77249309D02*
X126128571Y-77325500D01*
X126128571Y-77325500D02*
X126199999Y-77363595D01*
X126199999Y-77363595D02*
X126247618Y-77363595D01*
X126247618Y-77363595D02*
X126319047Y-77325500D01*
X126319047Y-77325500D02*
X126342856Y-77287404D01*
X126342856Y-77287404D02*
X126342856Y-77020738D01*
X126342856Y-77020738D02*
X126247618Y-77020738D01*
X126557142Y-77363595D02*
X126557142Y-76563595D01*
X126557142Y-76563595D02*
X126842856Y-77363595D01*
X126842856Y-77363595D02*
X126842856Y-76563595D01*
X127080952Y-77363595D02*
X127080952Y-76563595D01*
X127080952Y-76563595D02*
X127200000Y-76563595D01*
X127200000Y-76563595D02*
X127271428Y-76601690D01*
X127271428Y-76601690D02*
X127319047Y-76677880D01*
X127319047Y-76677880D02*
X127342857Y-76754071D01*
X127342857Y-76754071D02*
X127366666Y-76906452D01*
X127366666Y-76906452D02*
X127366666Y-77020738D01*
X127366666Y-77020738D02*
X127342857Y-77173119D01*
X127342857Y-77173119D02*
X127319047Y-77249309D01*
X127319047Y-77249309D02*
X127271428Y-77325500D01*
X127271428Y-77325500D02*
X127200000Y-77363595D01*
X127200000Y-77363595D02*
X127080952Y-77363595D01*
X91164285Y-58663595D02*
X91164285Y-57863595D01*
X91164285Y-57863595D02*
X91330952Y-58435023D01*
X91330952Y-58435023D02*
X91497618Y-57863595D01*
X91497618Y-57863595D02*
X91497618Y-58663595D01*
X91830952Y-57863595D02*
X91926190Y-57863595D01*
X91926190Y-57863595D02*
X91973809Y-57901690D01*
X91973809Y-57901690D02*
X92021428Y-57977880D01*
X92021428Y-57977880D02*
X92045238Y-58130261D01*
X92045238Y-58130261D02*
X92045238Y-58396928D01*
X92045238Y-58396928D02*
X92021428Y-58549309D01*
X92021428Y-58549309D02*
X91973809Y-58625500D01*
X91973809Y-58625500D02*
X91926190Y-58663595D01*
X91926190Y-58663595D02*
X91830952Y-58663595D01*
X91830952Y-58663595D02*
X91783333Y-58625500D01*
X91783333Y-58625500D02*
X91735714Y-58549309D01*
X91735714Y-58549309D02*
X91711905Y-58396928D01*
X91711905Y-58396928D02*
X91711905Y-58130261D01*
X91711905Y-58130261D02*
X91735714Y-57977880D01*
X91735714Y-57977880D02*
X91783333Y-57901690D01*
X91783333Y-57901690D02*
X91830952Y-57863595D01*
X92235715Y-58625500D02*
X92307143Y-58663595D01*
X92307143Y-58663595D02*
X92426191Y-58663595D01*
X92426191Y-58663595D02*
X92473810Y-58625500D01*
X92473810Y-58625500D02*
X92497619Y-58587404D01*
X92497619Y-58587404D02*
X92521429Y-58511214D01*
X92521429Y-58511214D02*
X92521429Y-58435023D01*
X92521429Y-58435023D02*
X92497619Y-58358833D01*
X92497619Y-58358833D02*
X92473810Y-58320738D01*
X92473810Y-58320738D02*
X92426191Y-58282642D01*
X92426191Y-58282642D02*
X92330953Y-58244547D01*
X92330953Y-58244547D02*
X92283334Y-58206452D01*
X92283334Y-58206452D02*
X92259524Y-58168357D01*
X92259524Y-58168357D02*
X92235715Y-58092166D01*
X92235715Y-58092166D02*
X92235715Y-58015976D01*
X92235715Y-58015976D02*
X92259524Y-57939785D01*
X92259524Y-57939785D02*
X92283334Y-57901690D01*
X92283334Y-57901690D02*
X92330953Y-57863595D01*
X92330953Y-57863595D02*
X92450000Y-57863595D01*
X92450000Y-57863595D02*
X92521429Y-57901690D01*
X92735714Y-58663595D02*
X92735714Y-57863595D01*
X145152858Y-26705023D02*
X145390953Y-26705023D01*
X145105239Y-26933595D02*
X145271905Y-26133595D01*
X145271905Y-26133595D02*
X145438572Y-26933595D01*
X145867143Y-26933595D02*
X145581429Y-26933595D01*
X145724286Y-26933595D02*
X145724286Y-26133595D01*
X145724286Y-26133595D02*
X145676667Y-26247880D01*
X145676667Y-26247880D02*
X145629048Y-26324071D01*
X145629048Y-26324071D02*
X145581429Y-26362166D01*
X122248309Y-65311905D02*
X122286404Y-65264286D01*
X122286404Y-65264286D02*
X122286404Y-65192857D01*
X122286404Y-65192857D02*
X122248309Y-65121429D01*
X122248309Y-65121429D02*
X122172119Y-65073810D01*
X122172119Y-65073810D02*
X122095928Y-65050000D01*
X122095928Y-65050000D02*
X121943547Y-65026191D01*
X121943547Y-65026191D02*
X121829261Y-65026191D01*
X121829261Y-65026191D02*
X121676880Y-65050000D01*
X121676880Y-65050000D02*
X121600690Y-65073810D01*
X121600690Y-65073810D02*
X121524500Y-65121429D01*
X121524500Y-65121429D02*
X121486404Y-65192857D01*
X121486404Y-65192857D02*
X121486404Y-65240476D01*
X121486404Y-65240476D02*
X121524500Y-65311905D01*
X121524500Y-65311905D02*
X121562595Y-65335714D01*
X121562595Y-65335714D02*
X121829261Y-65335714D01*
X121829261Y-65335714D02*
X121829261Y-65240476D01*
X121486404Y-65550000D02*
X122286404Y-65550000D01*
X122286404Y-65550000D02*
X122286404Y-65740476D01*
X122286404Y-65740476D02*
X122248309Y-65788095D01*
X122248309Y-65788095D02*
X122210214Y-65811905D01*
X122210214Y-65811905D02*
X122134023Y-65835714D01*
X122134023Y-65835714D02*
X122019738Y-65835714D01*
X122019738Y-65835714D02*
X121943547Y-65811905D01*
X121943547Y-65811905D02*
X121905452Y-65788095D01*
X121905452Y-65788095D02*
X121867357Y-65740476D01*
X121867357Y-65740476D02*
X121867357Y-65550000D01*
X121486404Y-66050000D02*
X122286404Y-66050000D01*
X122286404Y-66383333D02*
X122286404Y-66478571D01*
X122286404Y-66478571D02*
X122248309Y-66526190D01*
X122248309Y-66526190D02*
X122172119Y-66573809D01*
X122172119Y-66573809D02*
X122019738Y-66597619D01*
X122019738Y-66597619D02*
X121753071Y-66597619D01*
X121753071Y-66597619D02*
X121600690Y-66573809D01*
X121600690Y-66573809D02*
X121524500Y-66526190D01*
X121524500Y-66526190D02*
X121486404Y-66478571D01*
X121486404Y-66478571D02*
X121486404Y-66383333D01*
X121486404Y-66383333D02*
X121524500Y-66335714D01*
X121524500Y-66335714D02*
X121600690Y-66288095D01*
X121600690Y-66288095D02*
X121753071Y-66264286D01*
X121753071Y-66264286D02*
X122019738Y-66264286D01*
X122019738Y-66264286D02*
X122172119Y-66288095D01*
X122172119Y-66288095D02*
X122248309Y-66335714D01*
X122248309Y-66335714D02*
X122286404Y-66383333D01*
X121486404Y-67073810D02*
X121486404Y-66788096D01*
X121486404Y-66930953D02*
X122286404Y-66930953D01*
X122286404Y-66930953D02*
X122172119Y-66883334D01*
X122172119Y-66883334D02*
X122095928Y-66835715D01*
X122095928Y-66835715D02*
X122057833Y-66788096D01*
X99269048Y-56475500D02*
X99340476Y-56513595D01*
X99340476Y-56513595D02*
X99459524Y-56513595D01*
X99459524Y-56513595D02*
X99507143Y-56475500D01*
X99507143Y-56475500D02*
X99530952Y-56437404D01*
X99530952Y-56437404D02*
X99554762Y-56361214D01*
X99554762Y-56361214D02*
X99554762Y-56285023D01*
X99554762Y-56285023D02*
X99530952Y-56208833D01*
X99530952Y-56208833D02*
X99507143Y-56170738D01*
X99507143Y-56170738D02*
X99459524Y-56132642D01*
X99459524Y-56132642D02*
X99364286Y-56094547D01*
X99364286Y-56094547D02*
X99316667Y-56056452D01*
X99316667Y-56056452D02*
X99292857Y-56018357D01*
X99292857Y-56018357D02*
X99269048Y-55942166D01*
X99269048Y-55942166D02*
X99269048Y-55865976D01*
X99269048Y-55865976D02*
X99292857Y-55789785D01*
X99292857Y-55789785D02*
X99316667Y-55751690D01*
X99316667Y-55751690D02*
X99364286Y-55713595D01*
X99364286Y-55713595D02*
X99483333Y-55713595D01*
X99483333Y-55713595D02*
X99554762Y-55751690D01*
X99745238Y-56475500D02*
X99816666Y-56513595D01*
X99816666Y-56513595D02*
X99935714Y-56513595D01*
X99935714Y-56513595D02*
X99983333Y-56475500D01*
X99983333Y-56475500D02*
X100007142Y-56437404D01*
X100007142Y-56437404D02*
X100030952Y-56361214D01*
X100030952Y-56361214D02*
X100030952Y-56285023D01*
X100030952Y-56285023D02*
X100007142Y-56208833D01*
X100007142Y-56208833D02*
X99983333Y-56170738D01*
X99983333Y-56170738D02*
X99935714Y-56132642D01*
X99935714Y-56132642D02*
X99840476Y-56094547D01*
X99840476Y-56094547D02*
X99792857Y-56056452D01*
X99792857Y-56056452D02*
X99769047Y-56018357D01*
X99769047Y-56018357D02*
X99745238Y-55942166D01*
X99745238Y-55942166D02*
X99745238Y-55865976D01*
X99745238Y-55865976D02*
X99769047Y-55789785D01*
X99769047Y-55789785D02*
X99792857Y-55751690D01*
X99792857Y-55751690D02*
X99840476Y-55713595D01*
X99840476Y-55713595D02*
X99959523Y-55713595D01*
X99959523Y-55713595D02*
X100030952Y-55751690D01*
D11*
X121990475Y-80604819D02*
X122323808Y-81604819D01*
X122323808Y-81604819D02*
X122657141Y-80604819D01*
X123514284Y-81604819D02*
X122942856Y-81604819D01*
X123228570Y-81604819D02*
X123228570Y-80604819D01*
X123228570Y-80604819D02*
X123133332Y-80747676D01*
X123133332Y-80747676D02*
X123038094Y-80842914D01*
X123038094Y-80842914D02*
X122942856Y-80890533D01*
X124561904Y-80604819D02*
X125133332Y-80604819D01*
X124847618Y-81604819D02*
X124847618Y-80604819D01*
X125847618Y-81557200D02*
X125752380Y-81604819D01*
X125752380Y-81604819D02*
X125561904Y-81604819D01*
X125561904Y-81604819D02*
X125466666Y-81557200D01*
X125466666Y-81557200D02*
X125419047Y-81461961D01*
X125419047Y-81461961D02*
X125419047Y-81081009D01*
X125419047Y-81081009D02*
X125466666Y-80985771D01*
X125466666Y-80985771D02*
X125561904Y-80938152D01*
X125561904Y-80938152D02*
X125752380Y-80938152D01*
X125752380Y-80938152D02*
X125847618Y-80985771D01*
X125847618Y-80985771D02*
X125895237Y-81081009D01*
X125895237Y-81081009D02*
X125895237Y-81176247D01*
X125895237Y-81176247D02*
X125419047Y-81271485D01*
X126466666Y-81604819D02*
X126371428Y-81557200D01*
X126371428Y-81557200D02*
X126323809Y-81461961D01*
X126323809Y-81461961D02*
X126323809Y-80604819D01*
X127228571Y-81557200D02*
X127133333Y-81604819D01*
X127133333Y-81604819D02*
X126942857Y-81604819D01*
X126942857Y-81604819D02*
X126847619Y-81557200D01*
X126847619Y-81557200D02*
X126800000Y-81461961D01*
X126800000Y-81461961D02*
X126800000Y-81081009D01*
X126800000Y-81081009D02*
X126847619Y-80985771D01*
X126847619Y-80985771D02*
X126942857Y-80938152D01*
X126942857Y-80938152D02*
X127133333Y-80938152D01*
X127133333Y-80938152D02*
X127228571Y-80985771D01*
X127228571Y-80985771D02*
X127276190Y-81081009D01*
X127276190Y-81081009D02*
X127276190Y-81176247D01*
X127276190Y-81176247D02*
X126800000Y-81271485D01*
X127704762Y-81604819D02*
X127704762Y-80938152D01*
X127704762Y-81033390D02*
X127752381Y-80985771D01*
X127752381Y-80985771D02*
X127847619Y-80938152D01*
X127847619Y-80938152D02*
X127990476Y-80938152D01*
X127990476Y-80938152D02*
X128085714Y-80985771D01*
X128085714Y-80985771D02*
X128133333Y-81081009D01*
X128133333Y-81081009D02*
X128133333Y-81604819D01*
X128133333Y-81081009D02*
X128180952Y-80985771D01*
X128180952Y-80985771D02*
X128276190Y-80938152D01*
X128276190Y-80938152D02*
X128419047Y-80938152D01*
X128419047Y-80938152D02*
X128514286Y-80985771D01*
X128514286Y-80985771D02*
X128561905Y-81081009D01*
X128561905Y-81081009D02*
X128561905Y-81604819D01*
X129419047Y-81557200D02*
X129323809Y-81604819D01*
X129323809Y-81604819D02*
X129133333Y-81604819D01*
X129133333Y-81604819D02*
X129038095Y-81557200D01*
X129038095Y-81557200D02*
X128990476Y-81461961D01*
X128990476Y-81461961D02*
X128990476Y-81081009D01*
X128990476Y-81081009D02*
X129038095Y-80985771D01*
X129038095Y-80985771D02*
X129133333Y-80938152D01*
X129133333Y-80938152D02*
X129323809Y-80938152D01*
X129323809Y-80938152D02*
X129419047Y-80985771D01*
X129419047Y-80985771D02*
X129466666Y-81081009D01*
X129466666Y-81081009D02*
X129466666Y-81176247D01*
X129466666Y-81176247D02*
X128990476Y-81271485D01*
X129752381Y-80938152D02*
X130133333Y-80938152D01*
X129895238Y-80604819D02*
X129895238Y-81461961D01*
X129895238Y-81461961D02*
X129942857Y-81557200D01*
X129942857Y-81557200D02*
X130038095Y-81604819D01*
X130038095Y-81604819D02*
X130133333Y-81604819D01*
X130466667Y-81604819D02*
X130466667Y-80938152D01*
X130466667Y-81128628D02*
X130514286Y-81033390D01*
X130514286Y-81033390D02*
X130561905Y-80985771D01*
X130561905Y-80985771D02*
X130657143Y-80938152D01*
X130657143Y-80938152D02*
X130752381Y-80938152D01*
X130990477Y-80938152D02*
X131228572Y-81604819D01*
X131466667Y-80938152D02*
X131228572Y-81604819D01*
X131228572Y-81604819D02*
X131133334Y-81842914D01*
X131133334Y-81842914D02*
X131085715Y-81890533D01*
X131085715Y-81890533D02*
X130990477Y-81938152D01*
X132895239Y-81985771D02*
X132847620Y-81938152D01*
X132847620Y-81938152D02*
X132752382Y-81795295D01*
X132752382Y-81795295D02*
X132704763Y-81700057D01*
X132704763Y-81700057D02*
X132657144Y-81557200D01*
X132657144Y-81557200D02*
X132609525Y-81319104D01*
X132609525Y-81319104D02*
X132609525Y-81128628D01*
X132609525Y-81128628D02*
X132657144Y-80890533D01*
X132657144Y-80890533D02*
X132704763Y-80747676D01*
X132704763Y-80747676D02*
X132752382Y-80652438D01*
X132752382Y-80652438D02*
X132847620Y-80509580D01*
X132847620Y-80509580D02*
X132895239Y-80461961D01*
X133276192Y-81604819D02*
X133276192Y-80604819D01*
X133276192Y-80604819D02*
X133609525Y-81319104D01*
X133609525Y-81319104D02*
X133942858Y-80604819D01*
X133942858Y-80604819D02*
X133942858Y-81604819D01*
X134276192Y-80604819D02*
X134609525Y-81604819D01*
X134609525Y-81604819D02*
X134942858Y-80604819D01*
X135276192Y-81604819D02*
X135276192Y-80604819D01*
X135276192Y-80604819D02*
X135657144Y-80604819D01*
X135657144Y-80604819D02*
X135752382Y-80652438D01*
X135752382Y-80652438D02*
X135800001Y-80700057D01*
X135800001Y-80700057D02*
X135847620Y-80795295D01*
X135847620Y-80795295D02*
X135847620Y-80938152D01*
X135847620Y-80938152D02*
X135800001Y-81033390D01*
X135800001Y-81033390D02*
X135752382Y-81081009D01*
X135752382Y-81081009D02*
X135657144Y-81128628D01*
X135657144Y-81128628D02*
X135276192Y-81128628D01*
X136180954Y-81985771D02*
X136228573Y-81938152D01*
X136228573Y-81938152D02*
X136323811Y-81795295D01*
X136323811Y-81795295D02*
X136371430Y-81700057D01*
X136371430Y-81700057D02*
X136419049Y-81557200D01*
X136419049Y-81557200D02*
X136466668Y-81319104D01*
X136466668Y-81319104D02*
X136466668Y-81128628D01*
X136466668Y-81128628D02*
X136419049Y-80890533D01*
X136419049Y-80890533D02*
X136371430Y-80747676D01*
X136371430Y-80747676D02*
X136323811Y-80652438D01*
X136323811Y-80652438D02*
X136228573Y-80509580D01*
X136228573Y-80509580D02*
X136180954Y-80461961D01*
X147912438Y-73971904D02*
X147864819Y-74067142D01*
X147864819Y-74067142D02*
X147864819Y-74209999D01*
X147864819Y-74209999D02*
X147912438Y-74352856D01*
X147912438Y-74352856D02*
X148007676Y-74448094D01*
X148007676Y-74448094D02*
X148102914Y-74495713D01*
X148102914Y-74495713D02*
X148293390Y-74543332D01*
X148293390Y-74543332D02*
X148436247Y-74543332D01*
X148436247Y-74543332D02*
X148626723Y-74495713D01*
X148626723Y-74495713D02*
X148721961Y-74448094D01*
X148721961Y-74448094D02*
X148817200Y-74352856D01*
X148817200Y-74352856D02*
X148864819Y-74209999D01*
X148864819Y-74209999D02*
X148864819Y-74114761D01*
X148864819Y-74114761D02*
X148817200Y-73971904D01*
X148817200Y-73971904D02*
X148769580Y-73924285D01*
X148769580Y-73924285D02*
X148436247Y-73924285D01*
X148436247Y-73924285D02*
X148436247Y-74114761D01*
X148864819Y-73495713D02*
X147864819Y-73495713D01*
X147864819Y-73495713D02*
X148864819Y-72924285D01*
X148864819Y-72924285D02*
X147864819Y-72924285D01*
X148864819Y-72448094D02*
X147864819Y-72448094D01*
X147864819Y-72448094D02*
X147864819Y-72209999D01*
X147864819Y-72209999D02*
X147912438Y-72067142D01*
X147912438Y-72067142D02*
X148007676Y-71971904D01*
X148007676Y-71971904D02*
X148102914Y-71924285D01*
X148102914Y-71924285D02*
X148293390Y-71876666D01*
X148293390Y-71876666D02*
X148436247Y-71876666D01*
X148436247Y-71876666D02*
X148626723Y-71924285D01*
X148626723Y-71924285D02*
X148721961Y-71971904D01*
X148721961Y-71971904D02*
X148817200Y-72067142D01*
X148817200Y-72067142D02*
X148864819Y-72209999D01*
X148864819Y-72209999D02*
X148864819Y-72448094D01*
D10*
X99142858Y-59275500D02*
X99214286Y-59313595D01*
X99214286Y-59313595D02*
X99333334Y-59313595D01*
X99333334Y-59313595D02*
X99380953Y-59275500D01*
X99380953Y-59275500D02*
X99404762Y-59237404D01*
X99404762Y-59237404D02*
X99428572Y-59161214D01*
X99428572Y-59161214D02*
X99428572Y-59085023D01*
X99428572Y-59085023D02*
X99404762Y-59008833D01*
X99404762Y-59008833D02*
X99380953Y-58970738D01*
X99380953Y-58970738D02*
X99333334Y-58932642D01*
X99333334Y-58932642D02*
X99238096Y-58894547D01*
X99238096Y-58894547D02*
X99190477Y-58856452D01*
X99190477Y-58856452D02*
X99166667Y-58818357D01*
X99166667Y-58818357D02*
X99142858Y-58742166D01*
X99142858Y-58742166D02*
X99142858Y-58665976D01*
X99142858Y-58665976D02*
X99166667Y-58589785D01*
X99166667Y-58589785D02*
X99190477Y-58551690D01*
X99190477Y-58551690D02*
X99238096Y-58513595D01*
X99238096Y-58513595D02*
X99357143Y-58513595D01*
X99357143Y-58513595D02*
X99428572Y-58551690D01*
X99642857Y-59313595D02*
X99642857Y-58513595D01*
X99642857Y-58513595D02*
X99761905Y-58513595D01*
X99761905Y-58513595D02*
X99833333Y-58551690D01*
X99833333Y-58551690D02*
X99880952Y-58627880D01*
X99880952Y-58627880D02*
X99904762Y-58704071D01*
X99904762Y-58704071D02*
X99928571Y-58856452D01*
X99928571Y-58856452D02*
X99928571Y-58970738D01*
X99928571Y-58970738D02*
X99904762Y-59123119D01*
X99904762Y-59123119D02*
X99880952Y-59199309D01*
X99880952Y-59199309D02*
X99833333Y-59275500D01*
X99833333Y-59275500D02*
X99761905Y-59313595D01*
X99761905Y-59313595D02*
X99642857Y-59313595D01*
X100119048Y-59085023D02*
X100357143Y-59085023D01*
X100071429Y-59313595D02*
X100238095Y-58513595D01*
X100238095Y-58513595D02*
X100404762Y-59313595D01*
X123764762Y-31593595D02*
X123526667Y-31593595D01*
X123526667Y-31593595D02*
X123502858Y-31974547D01*
X123502858Y-31974547D02*
X123526667Y-31936452D01*
X123526667Y-31936452D02*
X123574286Y-31898357D01*
X123574286Y-31898357D02*
X123693334Y-31898357D01*
X123693334Y-31898357D02*
X123740953Y-31936452D01*
X123740953Y-31936452D02*
X123764762Y-31974547D01*
X123764762Y-31974547D02*
X123788572Y-32050738D01*
X123788572Y-32050738D02*
X123788572Y-32241214D01*
X123788572Y-32241214D02*
X123764762Y-32317404D01*
X123764762Y-32317404D02*
X123740953Y-32355500D01*
X123740953Y-32355500D02*
X123693334Y-32393595D01*
X123693334Y-32393595D02*
X123574286Y-32393595D01*
X123574286Y-32393595D02*
X123526667Y-32355500D01*
X123526667Y-32355500D02*
X123502858Y-32317404D01*
X123931429Y-31593595D02*
X124098095Y-32393595D01*
X124098095Y-32393595D02*
X124264762Y-31593595D01*
X111934047Y-26246690D02*
X111886428Y-26208595D01*
X111886428Y-26208595D02*
X111814999Y-26208595D01*
X111814999Y-26208595D02*
X111743571Y-26246690D01*
X111743571Y-26246690D02*
X111695952Y-26322880D01*
X111695952Y-26322880D02*
X111672142Y-26399071D01*
X111672142Y-26399071D02*
X111648333Y-26551452D01*
X111648333Y-26551452D02*
X111648333Y-26665738D01*
X111648333Y-26665738D02*
X111672142Y-26818119D01*
X111672142Y-26818119D02*
X111695952Y-26894309D01*
X111695952Y-26894309D02*
X111743571Y-26970500D01*
X111743571Y-26970500D02*
X111814999Y-27008595D01*
X111814999Y-27008595D02*
X111862618Y-27008595D01*
X111862618Y-27008595D02*
X111934047Y-26970500D01*
X111934047Y-26970500D02*
X111957856Y-26932404D01*
X111957856Y-26932404D02*
X111957856Y-26665738D01*
X111957856Y-26665738D02*
X111862618Y-26665738D01*
X112172142Y-27008595D02*
X112172142Y-26208595D01*
X112172142Y-26208595D02*
X112457856Y-27008595D01*
X112457856Y-27008595D02*
X112457856Y-26208595D01*
X112695952Y-27008595D02*
X112695952Y-26208595D01*
X112695952Y-26208595D02*
X112815000Y-26208595D01*
X112815000Y-26208595D02*
X112886428Y-26246690D01*
X112886428Y-26246690D02*
X112934047Y-26322880D01*
X112934047Y-26322880D02*
X112957857Y-26399071D01*
X112957857Y-26399071D02*
X112981666Y-26551452D01*
X112981666Y-26551452D02*
X112981666Y-26665738D01*
X112981666Y-26665738D02*
X112957857Y-26818119D01*
X112957857Y-26818119D02*
X112934047Y-26894309D01*
X112934047Y-26894309D02*
X112886428Y-26970500D01*
X112886428Y-26970500D02*
X112815000Y-27008595D01*
X112815000Y-27008595D02*
X112695952Y-27008595D01*
X121580953Y-55663595D02*
X121890477Y-55663595D01*
X121890477Y-55663595D02*
X121723810Y-55968357D01*
X121723810Y-55968357D02*
X121795239Y-55968357D01*
X121795239Y-55968357D02*
X121842858Y-56006452D01*
X121842858Y-56006452D02*
X121866667Y-56044547D01*
X121866667Y-56044547D02*
X121890477Y-56120738D01*
X121890477Y-56120738D02*
X121890477Y-56311214D01*
X121890477Y-56311214D02*
X121866667Y-56387404D01*
X121866667Y-56387404D02*
X121842858Y-56425500D01*
X121842858Y-56425500D02*
X121795239Y-56463595D01*
X121795239Y-56463595D02*
X121652382Y-56463595D01*
X121652382Y-56463595D02*
X121604763Y-56425500D01*
X121604763Y-56425500D02*
X121580953Y-56387404D01*
X122033334Y-55663595D02*
X122200000Y-56463595D01*
X122200000Y-56463595D02*
X122366667Y-55663595D01*
X122485714Y-55663595D02*
X122795238Y-55663595D01*
X122795238Y-55663595D02*
X122628571Y-55968357D01*
X122628571Y-55968357D02*
X122700000Y-55968357D01*
X122700000Y-55968357D02*
X122747619Y-56006452D01*
X122747619Y-56006452D02*
X122771428Y-56044547D01*
X122771428Y-56044547D02*
X122795238Y-56120738D01*
X122795238Y-56120738D02*
X122795238Y-56311214D01*
X122795238Y-56311214D02*
X122771428Y-56387404D01*
X122771428Y-56387404D02*
X122747619Y-56425500D01*
X122747619Y-56425500D02*
X122700000Y-56463595D01*
X122700000Y-56463595D02*
X122557143Y-56463595D01*
X122557143Y-56463595D02*
X122509524Y-56425500D01*
X122509524Y-56425500D02*
X122485714Y-56387404D01*
X92469047Y-50401690D02*
X92421428Y-50363595D01*
X92421428Y-50363595D02*
X92349999Y-50363595D01*
X92349999Y-50363595D02*
X92278571Y-50401690D01*
X92278571Y-50401690D02*
X92230952Y-50477880D01*
X92230952Y-50477880D02*
X92207142Y-50554071D01*
X92207142Y-50554071D02*
X92183333Y-50706452D01*
X92183333Y-50706452D02*
X92183333Y-50820738D01*
X92183333Y-50820738D02*
X92207142Y-50973119D01*
X92207142Y-50973119D02*
X92230952Y-51049309D01*
X92230952Y-51049309D02*
X92278571Y-51125500D01*
X92278571Y-51125500D02*
X92349999Y-51163595D01*
X92349999Y-51163595D02*
X92397618Y-51163595D01*
X92397618Y-51163595D02*
X92469047Y-51125500D01*
X92469047Y-51125500D02*
X92492856Y-51087404D01*
X92492856Y-51087404D02*
X92492856Y-50820738D01*
X92492856Y-50820738D02*
X92397618Y-50820738D01*
X92707142Y-51163595D02*
X92707142Y-50363595D01*
X92707142Y-50363595D02*
X92992856Y-51163595D01*
X92992856Y-51163595D02*
X92992856Y-50363595D01*
X93230952Y-51163595D02*
X93230952Y-50363595D01*
X93230952Y-50363595D02*
X93350000Y-50363595D01*
X93350000Y-50363595D02*
X93421428Y-50401690D01*
X93421428Y-50401690D02*
X93469047Y-50477880D01*
X93469047Y-50477880D02*
X93492857Y-50554071D01*
X93492857Y-50554071D02*
X93516666Y-50706452D01*
X93516666Y-50706452D02*
X93516666Y-50820738D01*
X93516666Y-50820738D02*
X93492857Y-50973119D01*
X93492857Y-50973119D02*
X93469047Y-51049309D01*
X93469047Y-51049309D02*
X93421428Y-51125500D01*
X93421428Y-51125500D02*
X93350000Y-51163595D01*
X93350000Y-51163595D02*
X93230952Y-51163595D01*
X121707143Y-58675500D02*
X121778571Y-58713595D01*
X121778571Y-58713595D02*
X121897619Y-58713595D01*
X121897619Y-58713595D02*
X121945238Y-58675500D01*
X121945238Y-58675500D02*
X121969047Y-58637404D01*
X121969047Y-58637404D02*
X121992857Y-58561214D01*
X121992857Y-58561214D02*
X121992857Y-58485023D01*
X121992857Y-58485023D02*
X121969047Y-58408833D01*
X121969047Y-58408833D02*
X121945238Y-58370738D01*
X121945238Y-58370738D02*
X121897619Y-58332642D01*
X121897619Y-58332642D02*
X121802381Y-58294547D01*
X121802381Y-58294547D02*
X121754762Y-58256452D01*
X121754762Y-58256452D02*
X121730952Y-58218357D01*
X121730952Y-58218357D02*
X121707143Y-58142166D01*
X121707143Y-58142166D02*
X121707143Y-58065976D01*
X121707143Y-58065976D02*
X121730952Y-57989785D01*
X121730952Y-57989785D02*
X121754762Y-57951690D01*
X121754762Y-57951690D02*
X121802381Y-57913595D01*
X121802381Y-57913595D02*
X121921428Y-57913595D01*
X121921428Y-57913595D02*
X121992857Y-57951690D01*
X122492856Y-58637404D02*
X122469047Y-58675500D01*
X122469047Y-58675500D02*
X122397618Y-58713595D01*
X122397618Y-58713595D02*
X122349999Y-58713595D01*
X122349999Y-58713595D02*
X122278571Y-58675500D01*
X122278571Y-58675500D02*
X122230952Y-58599309D01*
X122230952Y-58599309D02*
X122207142Y-58523119D01*
X122207142Y-58523119D02*
X122183333Y-58370738D01*
X122183333Y-58370738D02*
X122183333Y-58256452D01*
X122183333Y-58256452D02*
X122207142Y-58104071D01*
X122207142Y-58104071D02*
X122230952Y-58027880D01*
X122230952Y-58027880D02*
X122278571Y-57951690D01*
X122278571Y-57951690D02*
X122349999Y-57913595D01*
X122349999Y-57913595D02*
X122397618Y-57913595D01*
X122397618Y-57913595D02*
X122469047Y-57951690D01*
X122469047Y-57951690D02*
X122492856Y-57989785D01*
X122707142Y-58713595D02*
X122707142Y-57913595D01*
X122992856Y-58713595D02*
X122778571Y-58256452D01*
X122992856Y-57913595D02*
X122707142Y-58370738D01*
X92430953Y-63263595D02*
X92740477Y-63263595D01*
X92740477Y-63263595D02*
X92573810Y-63568357D01*
X92573810Y-63568357D02*
X92645239Y-63568357D01*
X92645239Y-63568357D02*
X92692858Y-63606452D01*
X92692858Y-63606452D02*
X92716667Y-63644547D01*
X92716667Y-63644547D02*
X92740477Y-63720738D01*
X92740477Y-63720738D02*
X92740477Y-63911214D01*
X92740477Y-63911214D02*
X92716667Y-63987404D01*
X92716667Y-63987404D02*
X92692858Y-64025500D01*
X92692858Y-64025500D02*
X92645239Y-64063595D01*
X92645239Y-64063595D02*
X92502382Y-64063595D01*
X92502382Y-64063595D02*
X92454763Y-64025500D01*
X92454763Y-64025500D02*
X92430953Y-63987404D01*
X92883334Y-63263595D02*
X93050000Y-64063595D01*
X93050000Y-64063595D02*
X93216667Y-63263595D01*
X93335714Y-63263595D02*
X93645238Y-63263595D01*
X93645238Y-63263595D02*
X93478571Y-63568357D01*
X93478571Y-63568357D02*
X93550000Y-63568357D01*
X93550000Y-63568357D02*
X93597619Y-63606452D01*
X93597619Y-63606452D02*
X93621428Y-63644547D01*
X93621428Y-63644547D02*
X93645238Y-63720738D01*
X93645238Y-63720738D02*
X93645238Y-63911214D01*
X93645238Y-63911214D02*
X93621428Y-63987404D01*
X93621428Y-63987404D02*
X93597619Y-64025500D01*
X93597619Y-64025500D02*
X93550000Y-64063595D01*
X93550000Y-64063595D02*
X93407143Y-64063595D01*
X93407143Y-64063595D02*
X93359524Y-64025500D01*
X93359524Y-64025500D02*
X93335714Y-63987404D01*
X110219047Y-78551690D02*
X110171428Y-78513595D01*
X110171428Y-78513595D02*
X110099999Y-78513595D01*
X110099999Y-78513595D02*
X110028571Y-78551690D01*
X110028571Y-78551690D02*
X109980952Y-78627880D01*
X109980952Y-78627880D02*
X109957142Y-78704071D01*
X109957142Y-78704071D02*
X109933333Y-78856452D01*
X109933333Y-78856452D02*
X109933333Y-78970738D01*
X109933333Y-78970738D02*
X109957142Y-79123119D01*
X109957142Y-79123119D02*
X109980952Y-79199309D01*
X109980952Y-79199309D02*
X110028571Y-79275500D01*
X110028571Y-79275500D02*
X110099999Y-79313595D01*
X110099999Y-79313595D02*
X110147618Y-79313595D01*
X110147618Y-79313595D02*
X110219047Y-79275500D01*
X110219047Y-79275500D02*
X110242856Y-79237404D01*
X110242856Y-79237404D02*
X110242856Y-78970738D01*
X110242856Y-78970738D02*
X110147618Y-78970738D01*
X110457142Y-79313595D02*
X110457142Y-78513595D01*
X110457142Y-78513595D02*
X110742856Y-79313595D01*
X110742856Y-79313595D02*
X110742856Y-78513595D01*
X110980952Y-79313595D02*
X110980952Y-78513595D01*
X110980952Y-78513595D02*
X111100000Y-78513595D01*
X111100000Y-78513595D02*
X111171428Y-78551690D01*
X111171428Y-78551690D02*
X111219047Y-78627880D01*
X111219047Y-78627880D02*
X111242857Y-78704071D01*
X111242857Y-78704071D02*
X111266666Y-78856452D01*
X111266666Y-78856452D02*
X111266666Y-78970738D01*
X111266666Y-78970738D02*
X111242857Y-79123119D01*
X111242857Y-79123119D02*
X111219047Y-79199309D01*
X111219047Y-79199309D02*
X111171428Y-79275500D01*
X111171428Y-79275500D02*
X111100000Y-79313595D01*
X111100000Y-79313595D02*
X110980952Y-79313595D01*
X141574762Y-53538595D02*
X141336667Y-53538595D01*
X141336667Y-53538595D02*
X141312858Y-53919547D01*
X141312858Y-53919547D02*
X141336667Y-53881452D01*
X141336667Y-53881452D02*
X141384286Y-53843357D01*
X141384286Y-53843357D02*
X141503334Y-53843357D01*
X141503334Y-53843357D02*
X141550953Y-53881452D01*
X141550953Y-53881452D02*
X141574762Y-53919547D01*
X141574762Y-53919547D02*
X141598572Y-53995738D01*
X141598572Y-53995738D02*
X141598572Y-54186214D01*
X141598572Y-54186214D02*
X141574762Y-54262404D01*
X141574762Y-54262404D02*
X141550953Y-54300500D01*
X141550953Y-54300500D02*
X141503334Y-54338595D01*
X141503334Y-54338595D02*
X141384286Y-54338595D01*
X141384286Y-54338595D02*
X141336667Y-54300500D01*
X141336667Y-54300500D02*
X141312858Y-54262404D01*
X141741429Y-53538595D02*
X141908095Y-54338595D01*
X141908095Y-54338595D02*
X142074762Y-53538595D01*
X98304762Y-61325500D02*
X98376190Y-61363595D01*
X98376190Y-61363595D02*
X98495238Y-61363595D01*
X98495238Y-61363595D02*
X98542857Y-61325500D01*
X98542857Y-61325500D02*
X98566666Y-61287404D01*
X98566666Y-61287404D02*
X98590476Y-61211214D01*
X98590476Y-61211214D02*
X98590476Y-61135023D01*
X98590476Y-61135023D02*
X98566666Y-61058833D01*
X98566666Y-61058833D02*
X98542857Y-61020738D01*
X98542857Y-61020738D02*
X98495238Y-60982642D01*
X98495238Y-60982642D02*
X98400000Y-60944547D01*
X98400000Y-60944547D02*
X98352381Y-60906452D01*
X98352381Y-60906452D02*
X98328571Y-60868357D01*
X98328571Y-60868357D02*
X98304762Y-60792166D01*
X98304762Y-60792166D02*
X98304762Y-60715976D01*
X98304762Y-60715976D02*
X98328571Y-60639785D01*
X98328571Y-60639785D02*
X98352381Y-60601690D01*
X98352381Y-60601690D02*
X98400000Y-60563595D01*
X98400000Y-60563595D02*
X98519047Y-60563595D01*
X98519047Y-60563595D02*
X98590476Y-60601690D01*
X99090475Y-61287404D02*
X99066666Y-61325500D01*
X99066666Y-61325500D02*
X98995237Y-61363595D01*
X98995237Y-61363595D02*
X98947618Y-61363595D01*
X98947618Y-61363595D02*
X98876190Y-61325500D01*
X98876190Y-61325500D02*
X98828571Y-61249309D01*
X98828571Y-61249309D02*
X98804761Y-61173119D01*
X98804761Y-61173119D02*
X98780952Y-61020738D01*
X98780952Y-61020738D02*
X98780952Y-60906452D01*
X98780952Y-60906452D02*
X98804761Y-60754071D01*
X98804761Y-60754071D02*
X98828571Y-60677880D01*
X98828571Y-60677880D02*
X98876190Y-60601690D01*
X98876190Y-60601690D02*
X98947618Y-60563595D01*
X98947618Y-60563595D02*
X98995237Y-60563595D01*
X98995237Y-60563595D02*
X99066666Y-60601690D01*
X99066666Y-60601690D02*
X99090475Y-60639785D01*
X99542856Y-61363595D02*
X99304761Y-61363595D01*
X99304761Y-61363595D02*
X99304761Y-60563595D01*
X104792858Y-77875500D02*
X104864286Y-77913595D01*
X104864286Y-77913595D02*
X104983334Y-77913595D01*
X104983334Y-77913595D02*
X105030953Y-77875500D01*
X105030953Y-77875500D02*
X105054762Y-77837404D01*
X105054762Y-77837404D02*
X105078572Y-77761214D01*
X105078572Y-77761214D02*
X105078572Y-77685023D01*
X105078572Y-77685023D02*
X105054762Y-77608833D01*
X105054762Y-77608833D02*
X105030953Y-77570738D01*
X105030953Y-77570738D02*
X104983334Y-77532642D01*
X104983334Y-77532642D02*
X104888096Y-77494547D01*
X104888096Y-77494547D02*
X104840477Y-77456452D01*
X104840477Y-77456452D02*
X104816667Y-77418357D01*
X104816667Y-77418357D02*
X104792858Y-77342166D01*
X104792858Y-77342166D02*
X104792858Y-77265976D01*
X104792858Y-77265976D02*
X104816667Y-77189785D01*
X104816667Y-77189785D02*
X104840477Y-77151690D01*
X104840477Y-77151690D02*
X104888096Y-77113595D01*
X104888096Y-77113595D02*
X105007143Y-77113595D01*
X105007143Y-77113595D02*
X105078572Y-77151690D01*
X105292857Y-77913595D02*
X105292857Y-77113595D01*
X105292857Y-77113595D02*
X105411905Y-77113595D01*
X105411905Y-77113595D02*
X105483333Y-77151690D01*
X105483333Y-77151690D02*
X105530952Y-77227880D01*
X105530952Y-77227880D02*
X105554762Y-77304071D01*
X105554762Y-77304071D02*
X105578571Y-77456452D01*
X105578571Y-77456452D02*
X105578571Y-77570738D01*
X105578571Y-77570738D02*
X105554762Y-77723119D01*
X105554762Y-77723119D02*
X105530952Y-77799309D01*
X105530952Y-77799309D02*
X105483333Y-77875500D01*
X105483333Y-77875500D02*
X105411905Y-77913595D01*
X105411905Y-77913595D02*
X105292857Y-77913595D01*
X105769048Y-77685023D02*
X106007143Y-77685023D01*
X105721429Y-77913595D02*
X105888095Y-77113595D01*
X105888095Y-77113595D02*
X106054762Y-77913595D01*
X107204762Y-77875500D02*
X107276190Y-77913595D01*
X107276190Y-77913595D02*
X107395238Y-77913595D01*
X107395238Y-77913595D02*
X107442857Y-77875500D01*
X107442857Y-77875500D02*
X107466666Y-77837404D01*
X107466666Y-77837404D02*
X107490476Y-77761214D01*
X107490476Y-77761214D02*
X107490476Y-77685023D01*
X107490476Y-77685023D02*
X107466666Y-77608833D01*
X107466666Y-77608833D02*
X107442857Y-77570738D01*
X107442857Y-77570738D02*
X107395238Y-77532642D01*
X107395238Y-77532642D02*
X107300000Y-77494547D01*
X107300000Y-77494547D02*
X107252381Y-77456452D01*
X107252381Y-77456452D02*
X107228571Y-77418357D01*
X107228571Y-77418357D02*
X107204762Y-77342166D01*
X107204762Y-77342166D02*
X107204762Y-77265976D01*
X107204762Y-77265976D02*
X107228571Y-77189785D01*
X107228571Y-77189785D02*
X107252381Y-77151690D01*
X107252381Y-77151690D02*
X107300000Y-77113595D01*
X107300000Y-77113595D02*
X107419047Y-77113595D01*
X107419047Y-77113595D02*
X107490476Y-77151690D01*
X107990475Y-77837404D02*
X107966666Y-77875500D01*
X107966666Y-77875500D02*
X107895237Y-77913595D01*
X107895237Y-77913595D02*
X107847618Y-77913595D01*
X107847618Y-77913595D02*
X107776190Y-77875500D01*
X107776190Y-77875500D02*
X107728571Y-77799309D01*
X107728571Y-77799309D02*
X107704761Y-77723119D01*
X107704761Y-77723119D02*
X107680952Y-77570738D01*
X107680952Y-77570738D02*
X107680952Y-77456452D01*
X107680952Y-77456452D02*
X107704761Y-77304071D01*
X107704761Y-77304071D02*
X107728571Y-77227880D01*
X107728571Y-77227880D02*
X107776190Y-77151690D01*
X107776190Y-77151690D02*
X107847618Y-77113595D01*
X107847618Y-77113595D02*
X107895237Y-77113595D01*
X107895237Y-77113595D02*
X107966666Y-77151690D01*
X107966666Y-77151690D02*
X107990475Y-77189785D01*
X108442856Y-77913595D02*
X108204761Y-77913595D01*
X108204761Y-77913595D02*
X108204761Y-77113595D01*
X99657858Y-32180023D02*
X99895953Y-32180023D01*
X99610239Y-32408595D02*
X99776905Y-31608595D01*
X99776905Y-31608595D02*
X99943572Y-32408595D01*
X100205476Y-31608595D02*
X100253095Y-31608595D01*
X100253095Y-31608595D02*
X100300714Y-31646690D01*
X100300714Y-31646690D02*
X100324524Y-31684785D01*
X100324524Y-31684785D02*
X100348333Y-31760976D01*
X100348333Y-31760976D02*
X100372143Y-31913357D01*
X100372143Y-31913357D02*
X100372143Y-32103833D01*
X100372143Y-32103833D02*
X100348333Y-32256214D01*
X100348333Y-32256214D02*
X100324524Y-32332404D01*
X100324524Y-32332404D02*
X100300714Y-32370500D01*
X100300714Y-32370500D02*
X100253095Y-32408595D01*
X100253095Y-32408595D02*
X100205476Y-32408595D01*
X100205476Y-32408595D02*
X100157857Y-32370500D01*
X100157857Y-32370500D02*
X100134048Y-32332404D01*
X100134048Y-32332404D02*
X100110238Y-32256214D01*
X100110238Y-32256214D02*
X100086429Y-32103833D01*
X100086429Y-32103833D02*
X100086429Y-31913357D01*
X100086429Y-31913357D02*
X100110238Y-31760976D01*
X100110238Y-31760976D02*
X100134048Y-31684785D01*
X100134048Y-31684785D02*
X100157857Y-31646690D01*
X100157857Y-31646690D02*
X100205476Y-31608595D01*
X141679047Y-51071690D02*
X141631428Y-51033595D01*
X141631428Y-51033595D02*
X141559999Y-51033595D01*
X141559999Y-51033595D02*
X141488571Y-51071690D01*
X141488571Y-51071690D02*
X141440952Y-51147880D01*
X141440952Y-51147880D02*
X141417142Y-51224071D01*
X141417142Y-51224071D02*
X141393333Y-51376452D01*
X141393333Y-51376452D02*
X141393333Y-51490738D01*
X141393333Y-51490738D02*
X141417142Y-51643119D01*
X141417142Y-51643119D02*
X141440952Y-51719309D01*
X141440952Y-51719309D02*
X141488571Y-51795500D01*
X141488571Y-51795500D02*
X141559999Y-51833595D01*
X141559999Y-51833595D02*
X141607618Y-51833595D01*
X141607618Y-51833595D02*
X141679047Y-51795500D01*
X141679047Y-51795500D02*
X141702856Y-51757404D01*
X141702856Y-51757404D02*
X141702856Y-51490738D01*
X141702856Y-51490738D02*
X141607618Y-51490738D01*
X141917142Y-51833595D02*
X141917142Y-51033595D01*
X141917142Y-51033595D02*
X142202856Y-51833595D01*
X142202856Y-51833595D02*
X142202856Y-51033595D01*
X142440952Y-51833595D02*
X142440952Y-51033595D01*
X142440952Y-51033595D02*
X142560000Y-51033595D01*
X142560000Y-51033595D02*
X142631428Y-51071690D01*
X142631428Y-51071690D02*
X142679047Y-51147880D01*
X142679047Y-51147880D02*
X142702857Y-51224071D01*
X142702857Y-51224071D02*
X142726666Y-51376452D01*
X142726666Y-51376452D02*
X142726666Y-51490738D01*
X142726666Y-51490738D02*
X142702857Y-51643119D01*
X142702857Y-51643119D02*
X142679047Y-51719309D01*
X142679047Y-51719309D02*
X142631428Y-51795500D01*
X142631428Y-51795500D02*
X142560000Y-51833595D01*
X142560000Y-51833595D02*
X142440952Y-51833595D01*
X127402858Y-26745023D02*
X127640953Y-26745023D01*
X127355239Y-26973595D02*
X127521905Y-26173595D01*
X127521905Y-26173595D02*
X127688572Y-26973595D01*
X127950476Y-26173595D02*
X127998095Y-26173595D01*
X127998095Y-26173595D02*
X128045714Y-26211690D01*
X128045714Y-26211690D02*
X128069524Y-26249785D01*
X128069524Y-26249785D02*
X128093333Y-26325976D01*
X128093333Y-26325976D02*
X128117143Y-26478357D01*
X128117143Y-26478357D02*
X128117143Y-26668833D01*
X128117143Y-26668833D02*
X128093333Y-26821214D01*
X128093333Y-26821214D02*
X128069524Y-26897404D01*
X128069524Y-26897404D02*
X128045714Y-26935500D01*
X128045714Y-26935500D02*
X127998095Y-26973595D01*
X127998095Y-26973595D02*
X127950476Y-26973595D01*
X127950476Y-26973595D02*
X127902857Y-26935500D01*
X127902857Y-26935500D02*
X127879048Y-26897404D01*
X127879048Y-26897404D02*
X127855238Y-26821214D01*
X127855238Y-26821214D02*
X127831429Y-26668833D01*
X127831429Y-26668833D02*
X127831429Y-26478357D01*
X127831429Y-26478357D02*
X127855238Y-26325976D01*
X127855238Y-26325976D02*
X127879048Y-26249785D01*
X127879048Y-26249785D02*
X127902857Y-26211690D01*
X127902857Y-26211690D02*
X127950476Y-26173595D01*
X139269047Y-26311690D02*
X139221428Y-26273595D01*
X139221428Y-26273595D02*
X139149999Y-26273595D01*
X139149999Y-26273595D02*
X139078571Y-26311690D01*
X139078571Y-26311690D02*
X139030952Y-26387880D01*
X139030952Y-26387880D02*
X139007142Y-26464071D01*
X139007142Y-26464071D02*
X138983333Y-26616452D01*
X138983333Y-26616452D02*
X138983333Y-26730738D01*
X138983333Y-26730738D02*
X139007142Y-26883119D01*
X139007142Y-26883119D02*
X139030952Y-26959309D01*
X139030952Y-26959309D02*
X139078571Y-27035500D01*
X139078571Y-27035500D02*
X139149999Y-27073595D01*
X139149999Y-27073595D02*
X139197618Y-27073595D01*
X139197618Y-27073595D02*
X139269047Y-27035500D01*
X139269047Y-27035500D02*
X139292856Y-26997404D01*
X139292856Y-26997404D02*
X139292856Y-26730738D01*
X139292856Y-26730738D02*
X139197618Y-26730738D01*
X139507142Y-27073595D02*
X139507142Y-26273595D01*
X139507142Y-26273595D02*
X139792856Y-27073595D01*
X139792856Y-27073595D02*
X139792856Y-26273595D01*
X140030952Y-27073595D02*
X140030952Y-26273595D01*
X140030952Y-26273595D02*
X140150000Y-26273595D01*
X140150000Y-26273595D02*
X140221428Y-26311690D01*
X140221428Y-26311690D02*
X140269047Y-26387880D01*
X140269047Y-26387880D02*
X140292857Y-26464071D01*
X140292857Y-26464071D02*
X140316666Y-26616452D01*
X140316666Y-26616452D02*
X140316666Y-26730738D01*
X140316666Y-26730738D02*
X140292857Y-26883119D01*
X140292857Y-26883119D02*
X140269047Y-26959309D01*
X140269047Y-26959309D02*
X140221428Y-27035500D01*
X140221428Y-27035500D02*
X140150000Y-27073595D01*
X140150000Y-27073595D02*
X140030952Y-27073595D01*
X109069762Y-27020500D02*
X109141190Y-27058595D01*
X109141190Y-27058595D02*
X109260238Y-27058595D01*
X109260238Y-27058595D02*
X109307857Y-27020500D01*
X109307857Y-27020500D02*
X109331666Y-26982404D01*
X109331666Y-26982404D02*
X109355476Y-26906214D01*
X109355476Y-26906214D02*
X109355476Y-26830023D01*
X109355476Y-26830023D02*
X109331666Y-26753833D01*
X109331666Y-26753833D02*
X109307857Y-26715738D01*
X109307857Y-26715738D02*
X109260238Y-26677642D01*
X109260238Y-26677642D02*
X109165000Y-26639547D01*
X109165000Y-26639547D02*
X109117381Y-26601452D01*
X109117381Y-26601452D02*
X109093571Y-26563357D01*
X109093571Y-26563357D02*
X109069762Y-26487166D01*
X109069762Y-26487166D02*
X109069762Y-26410976D01*
X109069762Y-26410976D02*
X109093571Y-26334785D01*
X109093571Y-26334785D02*
X109117381Y-26296690D01*
X109117381Y-26296690D02*
X109165000Y-26258595D01*
X109165000Y-26258595D02*
X109284047Y-26258595D01*
X109284047Y-26258595D02*
X109355476Y-26296690D01*
X109855475Y-26982404D02*
X109831666Y-27020500D01*
X109831666Y-27020500D02*
X109760237Y-27058595D01*
X109760237Y-27058595D02*
X109712618Y-27058595D01*
X109712618Y-27058595D02*
X109641190Y-27020500D01*
X109641190Y-27020500D02*
X109593571Y-26944309D01*
X109593571Y-26944309D02*
X109569761Y-26868119D01*
X109569761Y-26868119D02*
X109545952Y-26715738D01*
X109545952Y-26715738D02*
X109545952Y-26601452D01*
X109545952Y-26601452D02*
X109569761Y-26449071D01*
X109569761Y-26449071D02*
X109593571Y-26372880D01*
X109593571Y-26372880D02*
X109641190Y-26296690D01*
X109641190Y-26296690D02*
X109712618Y-26258595D01*
X109712618Y-26258595D02*
X109760237Y-26258595D01*
X109760237Y-26258595D02*
X109831666Y-26296690D01*
X109831666Y-26296690D02*
X109855475Y-26334785D01*
X110307856Y-27058595D02*
X110069761Y-27058595D01*
X110069761Y-27058595D02*
X110069761Y-26258595D01*
X141185237Y-56903595D02*
X141185237Y-56103595D01*
X141185237Y-56103595D02*
X141375713Y-56103595D01*
X141375713Y-56103595D02*
X141423332Y-56141690D01*
X141423332Y-56141690D02*
X141447142Y-56179785D01*
X141447142Y-56179785D02*
X141470951Y-56255976D01*
X141470951Y-56255976D02*
X141470951Y-56370261D01*
X141470951Y-56370261D02*
X141447142Y-56446452D01*
X141447142Y-56446452D02*
X141423332Y-56484547D01*
X141423332Y-56484547D02*
X141375713Y-56522642D01*
X141375713Y-56522642D02*
X141185237Y-56522642D01*
X141780475Y-56103595D02*
X141875713Y-56103595D01*
X141875713Y-56103595D02*
X141923332Y-56141690D01*
X141923332Y-56141690D02*
X141970951Y-56217880D01*
X141970951Y-56217880D02*
X141994761Y-56370261D01*
X141994761Y-56370261D02*
X141994761Y-56636928D01*
X141994761Y-56636928D02*
X141970951Y-56789309D01*
X141970951Y-56789309D02*
X141923332Y-56865500D01*
X141923332Y-56865500D02*
X141875713Y-56903595D01*
X141875713Y-56903595D02*
X141780475Y-56903595D01*
X141780475Y-56903595D02*
X141732856Y-56865500D01*
X141732856Y-56865500D02*
X141685237Y-56789309D01*
X141685237Y-56789309D02*
X141661428Y-56636928D01*
X141661428Y-56636928D02*
X141661428Y-56370261D01*
X141661428Y-56370261D02*
X141685237Y-56217880D01*
X141685237Y-56217880D02*
X141732856Y-56141690D01*
X141732856Y-56141690D02*
X141780475Y-56103595D01*
X142161428Y-56103595D02*
X142280476Y-56903595D01*
X142280476Y-56903595D02*
X142375714Y-56332166D01*
X142375714Y-56332166D02*
X142470952Y-56903595D01*
X142470952Y-56903595D02*
X142590000Y-56103595D01*
X142780476Y-56484547D02*
X142947143Y-56484547D01*
X143018571Y-56903595D02*
X142780476Y-56903595D01*
X142780476Y-56903595D02*
X142780476Y-56103595D01*
X142780476Y-56103595D02*
X143018571Y-56103595D01*
X143518571Y-56903595D02*
X143351905Y-56522642D01*
X143232857Y-56903595D02*
X143232857Y-56103595D01*
X143232857Y-56103595D02*
X143423333Y-56103595D01*
X143423333Y-56103595D02*
X143470952Y-56141690D01*
X143470952Y-56141690D02*
X143494762Y-56179785D01*
X143494762Y-56179785D02*
X143518571Y-56255976D01*
X143518571Y-56255976D02*
X143518571Y-56370261D01*
X143518571Y-56370261D02*
X143494762Y-56446452D01*
X143494762Y-56446452D02*
X143470952Y-56484547D01*
X143470952Y-56484547D02*
X143423333Y-56522642D01*
X143423333Y-56522642D02*
X143232857Y-56522642D01*
X98914285Y-50463595D02*
X98914285Y-49663595D01*
X98914285Y-49663595D02*
X99080952Y-50235023D01*
X99080952Y-50235023D02*
X99247618Y-49663595D01*
X99247618Y-49663595D02*
X99247618Y-50463595D01*
X99485714Y-50463595D02*
X99485714Y-49663595D01*
X99700000Y-50425500D02*
X99771428Y-50463595D01*
X99771428Y-50463595D02*
X99890476Y-50463595D01*
X99890476Y-50463595D02*
X99938095Y-50425500D01*
X99938095Y-50425500D02*
X99961904Y-50387404D01*
X99961904Y-50387404D02*
X99985714Y-50311214D01*
X99985714Y-50311214D02*
X99985714Y-50235023D01*
X99985714Y-50235023D02*
X99961904Y-50158833D01*
X99961904Y-50158833D02*
X99938095Y-50120738D01*
X99938095Y-50120738D02*
X99890476Y-50082642D01*
X99890476Y-50082642D02*
X99795238Y-50044547D01*
X99795238Y-50044547D02*
X99747619Y-50006452D01*
X99747619Y-50006452D02*
X99723809Y-49968357D01*
X99723809Y-49968357D02*
X99700000Y-49892166D01*
X99700000Y-49892166D02*
X99700000Y-49815976D01*
X99700000Y-49815976D02*
X99723809Y-49739785D01*
X99723809Y-49739785D02*
X99747619Y-49701690D01*
X99747619Y-49701690D02*
X99795238Y-49663595D01*
X99795238Y-49663595D02*
X99914285Y-49663595D01*
X99914285Y-49663595D02*
X99985714Y-49701690D01*
X100295237Y-49663595D02*
X100390475Y-49663595D01*
X100390475Y-49663595D02*
X100438094Y-49701690D01*
X100438094Y-49701690D02*
X100485713Y-49777880D01*
X100485713Y-49777880D02*
X100509523Y-49930261D01*
X100509523Y-49930261D02*
X100509523Y-50196928D01*
X100509523Y-50196928D02*
X100485713Y-50349309D01*
X100485713Y-50349309D02*
X100438094Y-50425500D01*
X100438094Y-50425500D02*
X100390475Y-50463595D01*
X100390475Y-50463595D02*
X100295237Y-50463595D01*
X100295237Y-50463595D02*
X100247618Y-50425500D01*
X100247618Y-50425500D02*
X100199999Y-50349309D01*
X100199999Y-50349309D02*
X100176190Y-50196928D01*
X100176190Y-50196928D02*
X100176190Y-49930261D01*
X100176190Y-49930261D02*
X100199999Y-49777880D01*
X100199999Y-49777880D02*
X100247618Y-49701690D01*
X100247618Y-49701690D02*
X100295237Y-49663595D01*
D11*
X148864819Y-67959523D02*
X147864819Y-67959523D01*
X147864819Y-67959523D02*
X147864819Y-67578571D01*
X147864819Y-67578571D02*
X147912438Y-67483333D01*
X147912438Y-67483333D02*
X147960057Y-67435714D01*
X147960057Y-67435714D02*
X148055295Y-67388095D01*
X148055295Y-67388095D02*
X148198152Y-67388095D01*
X148198152Y-67388095D02*
X148293390Y-67435714D01*
X148293390Y-67435714D02*
X148341009Y-67483333D01*
X148341009Y-67483333D02*
X148388628Y-67578571D01*
X148388628Y-67578571D02*
X148388628Y-67959523D01*
X147864819Y-66769047D02*
X147864819Y-66578571D01*
X147864819Y-66578571D02*
X147912438Y-66483333D01*
X147912438Y-66483333D02*
X148007676Y-66388095D01*
X148007676Y-66388095D02*
X148198152Y-66340476D01*
X148198152Y-66340476D02*
X148531485Y-66340476D01*
X148531485Y-66340476D02*
X148721961Y-66388095D01*
X148721961Y-66388095D02*
X148817200Y-66483333D01*
X148817200Y-66483333D02*
X148864819Y-66578571D01*
X148864819Y-66578571D02*
X148864819Y-66769047D01*
X148864819Y-66769047D02*
X148817200Y-66864285D01*
X148817200Y-66864285D02*
X148721961Y-66959523D01*
X148721961Y-66959523D02*
X148531485Y-67007142D01*
X148531485Y-67007142D02*
X148198152Y-67007142D01*
X148198152Y-67007142D02*
X148007676Y-66959523D01*
X148007676Y-66959523D02*
X147912438Y-66864285D01*
X147912438Y-66864285D02*
X147864819Y-66769047D01*
X147864819Y-66007142D02*
X148864819Y-65769047D01*
X148864819Y-65769047D02*
X148150533Y-65578571D01*
X148150533Y-65578571D02*
X148864819Y-65388095D01*
X148864819Y-65388095D02*
X147864819Y-65150000D01*
X148341009Y-64769047D02*
X148341009Y-64435714D01*
X148864819Y-64292857D02*
X148864819Y-64769047D01*
X148864819Y-64769047D02*
X147864819Y-64769047D01*
X147864819Y-64769047D02*
X147864819Y-64292857D01*
X148864819Y-63292857D02*
X148388628Y-63626190D01*
X148864819Y-63864285D02*
X147864819Y-63864285D01*
X147864819Y-63864285D02*
X147864819Y-63483333D01*
X147864819Y-63483333D02*
X147912438Y-63388095D01*
X147912438Y-63388095D02*
X147960057Y-63340476D01*
X147960057Y-63340476D02*
X148055295Y-63292857D01*
X148055295Y-63292857D02*
X148198152Y-63292857D01*
X148198152Y-63292857D02*
X148293390Y-63340476D01*
X148293390Y-63340476D02*
X148341009Y-63388095D01*
X148341009Y-63388095D02*
X148388628Y-63483333D01*
X148388628Y-63483333D02*
X148388628Y-63864285D01*
D10*
X92114285Y-53913595D02*
X92114285Y-53113595D01*
X92114285Y-53113595D02*
X92280952Y-53685023D01*
X92280952Y-53685023D02*
X92447618Y-53113595D01*
X92447618Y-53113595D02*
X92447618Y-53913595D01*
X92685714Y-53913595D02*
X92685714Y-53113595D01*
X92900000Y-53875500D02*
X92971428Y-53913595D01*
X92971428Y-53913595D02*
X93090476Y-53913595D01*
X93090476Y-53913595D02*
X93138095Y-53875500D01*
X93138095Y-53875500D02*
X93161904Y-53837404D01*
X93161904Y-53837404D02*
X93185714Y-53761214D01*
X93185714Y-53761214D02*
X93185714Y-53685023D01*
X93185714Y-53685023D02*
X93161904Y-53608833D01*
X93161904Y-53608833D02*
X93138095Y-53570738D01*
X93138095Y-53570738D02*
X93090476Y-53532642D01*
X93090476Y-53532642D02*
X92995238Y-53494547D01*
X92995238Y-53494547D02*
X92947619Y-53456452D01*
X92947619Y-53456452D02*
X92923809Y-53418357D01*
X92923809Y-53418357D02*
X92900000Y-53342166D01*
X92900000Y-53342166D02*
X92900000Y-53265976D01*
X92900000Y-53265976D02*
X92923809Y-53189785D01*
X92923809Y-53189785D02*
X92947619Y-53151690D01*
X92947619Y-53151690D02*
X92995238Y-53113595D01*
X92995238Y-53113595D02*
X93114285Y-53113595D01*
X93114285Y-53113595D02*
X93185714Y-53151690D01*
X93495237Y-53113595D02*
X93590475Y-53113595D01*
X93590475Y-53113595D02*
X93638094Y-53151690D01*
X93638094Y-53151690D02*
X93685713Y-53227880D01*
X93685713Y-53227880D02*
X93709523Y-53380261D01*
X93709523Y-53380261D02*
X93709523Y-53646928D01*
X93709523Y-53646928D02*
X93685713Y-53799309D01*
X93685713Y-53799309D02*
X93638094Y-53875500D01*
X93638094Y-53875500D02*
X93590475Y-53913595D01*
X93590475Y-53913595D02*
X93495237Y-53913595D01*
X93495237Y-53913595D02*
X93447618Y-53875500D01*
X93447618Y-53875500D02*
X93399999Y-53799309D01*
X93399999Y-53799309D02*
X93376190Y-53646928D01*
X93376190Y-53646928D02*
X93376190Y-53380261D01*
X93376190Y-53380261D02*
X93399999Y-53227880D01*
X93399999Y-53227880D02*
X93447618Y-53151690D01*
X93447618Y-53151690D02*
X93495237Y-53113595D01*
X98964285Y-53263595D02*
X98964285Y-52463595D01*
X98964285Y-52463595D02*
X99130952Y-53035023D01*
X99130952Y-53035023D02*
X99297618Y-52463595D01*
X99297618Y-52463595D02*
X99297618Y-53263595D01*
X99630952Y-52463595D02*
X99726190Y-52463595D01*
X99726190Y-52463595D02*
X99773809Y-52501690D01*
X99773809Y-52501690D02*
X99821428Y-52577880D01*
X99821428Y-52577880D02*
X99845238Y-52730261D01*
X99845238Y-52730261D02*
X99845238Y-52996928D01*
X99845238Y-52996928D02*
X99821428Y-53149309D01*
X99821428Y-53149309D02*
X99773809Y-53225500D01*
X99773809Y-53225500D02*
X99726190Y-53263595D01*
X99726190Y-53263595D02*
X99630952Y-53263595D01*
X99630952Y-53263595D02*
X99583333Y-53225500D01*
X99583333Y-53225500D02*
X99535714Y-53149309D01*
X99535714Y-53149309D02*
X99511905Y-52996928D01*
X99511905Y-52996928D02*
X99511905Y-52730261D01*
X99511905Y-52730261D02*
X99535714Y-52577880D01*
X99535714Y-52577880D02*
X99583333Y-52501690D01*
X99583333Y-52501690D02*
X99630952Y-52463595D01*
X100035715Y-53225500D02*
X100107143Y-53263595D01*
X100107143Y-53263595D02*
X100226191Y-53263595D01*
X100226191Y-53263595D02*
X100273810Y-53225500D01*
X100273810Y-53225500D02*
X100297619Y-53187404D01*
X100297619Y-53187404D02*
X100321429Y-53111214D01*
X100321429Y-53111214D02*
X100321429Y-53035023D01*
X100321429Y-53035023D02*
X100297619Y-52958833D01*
X100297619Y-52958833D02*
X100273810Y-52920738D01*
X100273810Y-52920738D02*
X100226191Y-52882642D01*
X100226191Y-52882642D02*
X100130953Y-52844547D01*
X100130953Y-52844547D02*
X100083334Y-52806452D01*
X100083334Y-52806452D02*
X100059524Y-52768357D01*
X100059524Y-52768357D02*
X100035715Y-52692166D01*
X100035715Y-52692166D02*
X100035715Y-52615976D01*
X100035715Y-52615976D02*
X100059524Y-52539785D01*
X100059524Y-52539785D02*
X100083334Y-52501690D01*
X100083334Y-52501690D02*
X100130953Y-52463595D01*
X100130953Y-52463595D02*
X100250000Y-52463595D01*
X100250000Y-52463595D02*
X100321429Y-52501690D01*
X100535714Y-53263595D02*
X100535714Y-52463595D01*
X93166666Y-61487404D02*
X93142857Y-61525500D01*
X93142857Y-61525500D02*
X93071428Y-61563595D01*
X93071428Y-61563595D02*
X93023809Y-61563595D01*
X93023809Y-61563595D02*
X92952381Y-61525500D01*
X92952381Y-61525500D02*
X92904762Y-61449309D01*
X92904762Y-61449309D02*
X92880952Y-61373119D01*
X92880952Y-61373119D02*
X92857143Y-61220738D01*
X92857143Y-61220738D02*
X92857143Y-61106452D01*
X92857143Y-61106452D02*
X92880952Y-60954071D01*
X92880952Y-60954071D02*
X92904762Y-60877880D01*
X92904762Y-60877880D02*
X92952381Y-60801690D01*
X92952381Y-60801690D02*
X93023809Y-60763595D01*
X93023809Y-60763595D02*
X93071428Y-60763595D01*
X93071428Y-60763595D02*
X93142857Y-60801690D01*
X93142857Y-60801690D02*
X93166666Y-60839785D01*
X93357143Y-61525500D02*
X93428571Y-61563595D01*
X93428571Y-61563595D02*
X93547619Y-61563595D01*
X93547619Y-61563595D02*
X93595238Y-61525500D01*
X93595238Y-61525500D02*
X93619047Y-61487404D01*
X93619047Y-61487404D02*
X93642857Y-61411214D01*
X93642857Y-61411214D02*
X93642857Y-61335023D01*
X93642857Y-61335023D02*
X93619047Y-61258833D01*
X93619047Y-61258833D02*
X93595238Y-61220738D01*
X93595238Y-61220738D02*
X93547619Y-61182642D01*
X93547619Y-61182642D02*
X93452381Y-61144547D01*
X93452381Y-61144547D02*
X93404762Y-61106452D01*
X93404762Y-61106452D02*
X93380952Y-61068357D01*
X93380952Y-61068357D02*
X93357143Y-60992166D01*
X93357143Y-60992166D02*
X93357143Y-60915976D01*
X93357143Y-60915976D02*
X93380952Y-60839785D01*
X93380952Y-60839785D02*
X93404762Y-60801690D01*
X93404762Y-60801690D02*
X93452381Y-60763595D01*
X93452381Y-60763595D02*
X93571428Y-60763595D01*
X93571428Y-60763595D02*
X93642857Y-60801690D01*
D11*
X137772619Y-48211009D02*
X137915476Y-48258628D01*
X137915476Y-48258628D02*
X137963095Y-48306247D01*
X137963095Y-48306247D02*
X138010714Y-48401485D01*
X138010714Y-48401485D02*
X138010714Y-48544342D01*
X138010714Y-48544342D02*
X137963095Y-48639580D01*
X137963095Y-48639580D02*
X137915476Y-48687200D01*
X137915476Y-48687200D02*
X137820238Y-48734819D01*
X137820238Y-48734819D02*
X137439286Y-48734819D01*
X137439286Y-48734819D02*
X137439286Y-47734819D01*
X137439286Y-47734819D02*
X137772619Y-47734819D01*
X137772619Y-47734819D02*
X137867857Y-47782438D01*
X137867857Y-47782438D02*
X137915476Y-47830057D01*
X137915476Y-47830057D02*
X137963095Y-47925295D01*
X137963095Y-47925295D02*
X137963095Y-48020533D01*
X137963095Y-48020533D02*
X137915476Y-48115771D01*
X137915476Y-48115771D02*
X137867857Y-48163390D01*
X137867857Y-48163390D02*
X137772619Y-48211009D01*
X137772619Y-48211009D02*
X137439286Y-48211009D01*
X138439286Y-47734819D02*
X138439286Y-48544342D01*
X138439286Y-48544342D02*
X138486905Y-48639580D01*
X138486905Y-48639580D02*
X138534524Y-48687200D01*
X138534524Y-48687200D02*
X138629762Y-48734819D01*
X138629762Y-48734819D02*
X138820238Y-48734819D01*
X138820238Y-48734819D02*
X138915476Y-48687200D01*
X138915476Y-48687200D02*
X138963095Y-48639580D01*
X138963095Y-48639580D02*
X139010714Y-48544342D01*
X139010714Y-48544342D02*
X139010714Y-47734819D01*
X140058333Y-48639580D02*
X140010714Y-48687200D01*
X140010714Y-48687200D02*
X139867857Y-48734819D01*
X139867857Y-48734819D02*
X139772619Y-48734819D01*
X139772619Y-48734819D02*
X139629762Y-48687200D01*
X139629762Y-48687200D02*
X139534524Y-48591961D01*
X139534524Y-48591961D02*
X139486905Y-48496723D01*
X139486905Y-48496723D02*
X139439286Y-48306247D01*
X139439286Y-48306247D02*
X139439286Y-48163390D01*
X139439286Y-48163390D02*
X139486905Y-47972914D01*
X139486905Y-47972914D02*
X139534524Y-47877676D01*
X139534524Y-47877676D02*
X139629762Y-47782438D01*
X139629762Y-47782438D02*
X139772619Y-47734819D01*
X139772619Y-47734819D02*
X139867857Y-47734819D01*
X139867857Y-47734819D02*
X140010714Y-47782438D01*
X140010714Y-47782438D02*
X140058333Y-47830057D01*
X140486905Y-48734819D02*
X140486905Y-47734819D01*
X141058333Y-48734819D02*
X140629762Y-48163390D01*
X141058333Y-47734819D02*
X140486905Y-48306247D01*
D10*
X122004762Y-49313595D02*
X121766667Y-49313595D01*
X121766667Y-49313595D02*
X121742858Y-49694547D01*
X121742858Y-49694547D02*
X121766667Y-49656452D01*
X121766667Y-49656452D02*
X121814286Y-49618357D01*
X121814286Y-49618357D02*
X121933334Y-49618357D01*
X121933334Y-49618357D02*
X121980953Y-49656452D01*
X121980953Y-49656452D02*
X122004762Y-49694547D01*
X122004762Y-49694547D02*
X122028572Y-49770738D01*
X122028572Y-49770738D02*
X122028572Y-49961214D01*
X122028572Y-49961214D02*
X122004762Y-50037404D01*
X122004762Y-50037404D02*
X121980953Y-50075500D01*
X121980953Y-50075500D02*
X121933334Y-50113595D01*
X121933334Y-50113595D02*
X121814286Y-50113595D01*
X121814286Y-50113595D02*
X121766667Y-50075500D01*
X121766667Y-50075500D02*
X121742858Y-50037404D01*
X122171429Y-49313595D02*
X122338095Y-50113595D01*
X122338095Y-50113595D02*
X122504762Y-49313595D01*
D11*
X125569048Y-67073866D02*
X126330953Y-67073866D01*
X125950000Y-67454819D02*
X125950000Y-66692914D01*
D10*
X96957858Y-32080023D02*
X97195953Y-32080023D01*
X96910239Y-32308595D02*
X97076905Y-31508595D01*
X97076905Y-31508595D02*
X97243572Y-32308595D01*
X97672143Y-32308595D02*
X97386429Y-32308595D01*
X97529286Y-32308595D02*
X97529286Y-31508595D01*
X97529286Y-31508595D02*
X97481667Y-31622880D01*
X97481667Y-31622880D02*
X97434048Y-31699071D01*
X97434048Y-31699071D02*
X97386429Y-31737166D01*
X114619762Y-26358595D02*
X114381667Y-26358595D01*
X114381667Y-26358595D02*
X114357858Y-26739547D01*
X114357858Y-26739547D02*
X114381667Y-26701452D01*
X114381667Y-26701452D02*
X114429286Y-26663357D01*
X114429286Y-26663357D02*
X114548334Y-26663357D01*
X114548334Y-26663357D02*
X114595953Y-26701452D01*
X114595953Y-26701452D02*
X114619762Y-26739547D01*
X114619762Y-26739547D02*
X114643572Y-26815738D01*
X114643572Y-26815738D02*
X114643572Y-27006214D01*
X114643572Y-27006214D02*
X114619762Y-27082404D01*
X114619762Y-27082404D02*
X114595953Y-27120500D01*
X114595953Y-27120500D02*
X114548334Y-27158595D01*
X114548334Y-27158595D02*
X114429286Y-27158595D01*
X114429286Y-27158595D02*
X114381667Y-27120500D01*
X114381667Y-27120500D02*
X114357858Y-27082404D01*
X114786429Y-26358595D02*
X114953095Y-27158595D01*
X114953095Y-27158595D02*
X115119762Y-26358595D01*
X106807858Y-27070500D02*
X106879286Y-27108595D01*
X106879286Y-27108595D02*
X106998334Y-27108595D01*
X106998334Y-27108595D02*
X107045953Y-27070500D01*
X107045953Y-27070500D02*
X107069762Y-27032404D01*
X107069762Y-27032404D02*
X107093572Y-26956214D01*
X107093572Y-26956214D02*
X107093572Y-26880023D01*
X107093572Y-26880023D02*
X107069762Y-26803833D01*
X107069762Y-26803833D02*
X107045953Y-26765738D01*
X107045953Y-26765738D02*
X106998334Y-26727642D01*
X106998334Y-26727642D02*
X106903096Y-26689547D01*
X106903096Y-26689547D02*
X106855477Y-26651452D01*
X106855477Y-26651452D02*
X106831667Y-26613357D01*
X106831667Y-26613357D02*
X106807858Y-26537166D01*
X106807858Y-26537166D02*
X106807858Y-26460976D01*
X106807858Y-26460976D02*
X106831667Y-26384785D01*
X106831667Y-26384785D02*
X106855477Y-26346690D01*
X106855477Y-26346690D02*
X106903096Y-26308595D01*
X106903096Y-26308595D02*
X107022143Y-26308595D01*
X107022143Y-26308595D02*
X107093572Y-26346690D01*
X107307857Y-27108595D02*
X107307857Y-26308595D01*
X107307857Y-26308595D02*
X107426905Y-26308595D01*
X107426905Y-26308595D02*
X107498333Y-26346690D01*
X107498333Y-26346690D02*
X107545952Y-26422880D01*
X107545952Y-26422880D02*
X107569762Y-26499071D01*
X107569762Y-26499071D02*
X107593571Y-26651452D01*
X107593571Y-26651452D02*
X107593571Y-26765738D01*
X107593571Y-26765738D02*
X107569762Y-26918119D01*
X107569762Y-26918119D02*
X107545952Y-26994309D01*
X107545952Y-26994309D02*
X107498333Y-27070500D01*
X107498333Y-27070500D02*
X107426905Y-27108595D01*
X107426905Y-27108595D02*
X107307857Y-27108595D01*
X107784048Y-26880023D02*
X108022143Y-26880023D01*
X107736429Y-27108595D02*
X107903095Y-26308595D01*
X107903095Y-26308595D02*
X108069762Y-27108595D01*
X130439047Y-26171690D02*
X130391428Y-26133595D01*
X130391428Y-26133595D02*
X130319999Y-26133595D01*
X130319999Y-26133595D02*
X130248571Y-26171690D01*
X130248571Y-26171690D02*
X130200952Y-26247880D01*
X130200952Y-26247880D02*
X130177142Y-26324071D01*
X130177142Y-26324071D02*
X130153333Y-26476452D01*
X130153333Y-26476452D02*
X130153333Y-26590738D01*
X130153333Y-26590738D02*
X130177142Y-26743119D01*
X130177142Y-26743119D02*
X130200952Y-26819309D01*
X130200952Y-26819309D02*
X130248571Y-26895500D01*
X130248571Y-26895500D02*
X130319999Y-26933595D01*
X130319999Y-26933595D02*
X130367618Y-26933595D01*
X130367618Y-26933595D02*
X130439047Y-26895500D01*
X130439047Y-26895500D02*
X130462856Y-26857404D01*
X130462856Y-26857404D02*
X130462856Y-26590738D01*
X130462856Y-26590738D02*
X130367618Y-26590738D01*
X130677142Y-26933595D02*
X130677142Y-26133595D01*
X130677142Y-26133595D02*
X130962856Y-26933595D01*
X130962856Y-26933595D02*
X130962856Y-26133595D01*
X131200952Y-26933595D02*
X131200952Y-26133595D01*
X131200952Y-26133595D02*
X131320000Y-26133595D01*
X131320000Y-26133595D02*
X131391428Y-26171690D01*
X131391428Y-26171690D02*
X131439047Y-26247880D01*
X131439047Y-26247880D02*
X131462857Y-26324071D01*
X131462857Y-26324071D02*
X131486666Y-26476452D01*
X131486666Y-26476452D02*
X131486666Y-26590738D01*
X131486666Y-26590738D02*
X131462857Y-26743119D01*
X131462857Y-26743119D02*
X131439047Y-26819309D01*
X131439047Y-26819309D02*
X131391428Y-26895500D01*
X131391428Y-26895500D02*
X131320000Y-26933595D01*
X131320000Y-26933595D02*
X131200952Y-26933595D01*
X121711905Y-68201690D02*
X121664286Y-68163595D01*
X121664286Y-68163595D02*
X121592857Y-68163595D01*
X121592857Y-68163595D02*
X121521429Y-68201690D01*
X121521429Y-68201690D02*
X121473810Y-68277880D01*
X121473810Y-68277880D02*
X121450000Y-68354071D01*
X121450000Y-68354071D02*
X121426191Y-68506452D01*
X121426191Y-68506452D02*
X121426191Y-68620738D01*
X121426191Y-68620738D02*
X121450000Y-68773119D01*
X121450000Y-68773119D02*
X121473810Y-68849309D01*
X121473810Y-68849309D02*
X121521429Y-68925500D01*
X121521429Y-68925500D02*
X121592857Y-68963595D01*
X121592857Y-68963595D02*
X121640476Y-68963595D01*
X121640476Y-68963595D02*
X121711905Y-68925500D01*
X121711905Y-68925500D02*
X121735714Y-68887404D01*
X121735714Y-68887404D02*
X121735714Y-68620738D01*
X121735714Y-68620738D02*
X121640476Y-68620738D01*
X121950000Y-68963595D02*
X121950000Y-68163595D01*
X121950000Y-68163595D02*
X122140476Y-68163595D01*
X122140476Y-68163595D02*
X122188095Y-68201690D01*
X122188095Y-68201690D02*
X122211905Y-68239785D01*
X122211905Y-68239785D02*
X122235714Y-68315976D01*
X122235714Y-68315976D02*
X122235714Y-68430261D01*
X122235714Y-68430261D02*
X122211905Y-68506452D01*
X122211905Y-68506452D02*
X122188095Y-68544547D01*
X122188095Y-68544547D02*
X122140476Y-68582642D01*
X122140476Y-68582642D02*
X121950000Y-68582642D01*
X122450000Y-68963595D02*
X122450000Y-68163595D01*
X122783333Y-68163595D02*
X122878571Y-68163595D01*
X122878571Y-68163595D02*
X122926190Y-68201690D01*
X122926190Y-68201690D02*
X122973809Y-68277880D01*
X122973809Y-68277880D02*
X122997619Y-68430261D01*
X122997619Y-68430261D02*
X122997619Y-68696928D01*
X122997619Y-68696928D02*
X122973809Y-68849309D01*
X122973809Y-68849309D02*
X122926190Y-68925500D01*
X122926190Y-68925500D02*
X122878571Y-68963595D01*
X122878571Y-68963595D02*
X122783333Y-68963595D01*
X122783333Y-68963595D02*
X122735714Y-68925500D01*
X122735714Y-68925500D02*
X122688095Y-68849309D01*
X122688095Y-68849309D02*
X122664286Y-68696928D01*
X122664286Y-68696928D02*
X122664286Y-68430261D01*
X122664286Y-68430261D02*
X122688095Y-68277880D01*
X122688095Y-68277880D02*
X122735714Y-68201690D01*
X122735714Y-68201690D02*
X122783333Y-68163595D01*
X123307143Y-68163595D02*
X123354762Y-68163595D01*
X123354762Y-68163595D02*
X123402381Y-68201690D01*
X123402381Y-68201690D02*
X123426191Y-68239785D01*
X123426191Y-68239785D02*
X123450000Y-68315976D01*
X123450000Y-68315976D02*
X123473810Y-68468357D01*
X123473810Y-68468357D02*
X123473810Y-68658833D01*
X123473810Y-68658833D02*
X123450000Y-68811214D01*
X123450000Y-68811214D02*
X123426191Y-68887404D01*
X123426191Y-68887404D02*
X123402381Y-68925500D01*
X123402381Y-68925500D02*
X123354762Y-68963595D01*
X123354762Y-68963595D02*
X123307143Y-68963595D01*
X123307143Y-68963595D02*
X123259524Y-68925500D01*
X123259524Y-68925500D02*
X123235715Y-68887404D01*
X123235715Y-68887404D02*
X123211905Y-68811214D01*
X123211905Y-68811214D02*
X123188096Y-68658833D01*
X123188096Y-68658833D02*
X123188096Y-68468357D01*
X123188096Y-68468357D02*
X123211905Y-68315976D01*
X123211905Y-68315976D02*
X123235715Y-68239785D01*
X123235715Y-68239785D02*
X123259524Y-68201690D01*
X123259524Y-68201690D02*
X123307143Y-68163595D01*
X121819047Y-53951690D02*
X121771428Y-53913595D01*
X121771428Y-53913595D02*
X121699999Y-53913595D01*
X121699999Y-53913595D02*
X121628571Y-53951690D01*
X121628571Y-53951690D02*
X121580952Y-54027880D01*
X121580952Y-54027880D02*
X121557142Y-54104071D01*
X121557142Y-54104071D02*
X121533333Y-54256452D01*
X121533333Y-54256452D02*
X121533333Y-54370738D01*
X121533333Y-54370738D02*
X121557142Y-54523119D01*
X121557142Y-54523119D02*
X121580952Y-54599309D01*
X121580952Y-54599309D02*
X121628571Y-54675500D01*
X121628571Y-54675500D02*
X121699999Y-54713595D01*
X121699999Y-54713595D02*
X121747618Y-54713595D01*
X121747618Y-54713595D02*
X121819047Y-54675500D01*
X121819047Y-54675500D02*
X121842856Y-54637404D01*
X121842856Y-54637404D02*
X121842856Y-54370738D01*
X121842856Y-54370738D02*
X121747618Y-54370738D01*
X122057142Y-54713595D02*
X122057142Y-53913595D01*
X122057142Y-53913595D02*
X122342856Y-54713595D01*
X122342856Y-54713595D02*
X122342856Y-53913595D01*
X122580952Y-54713595D02*
X122580952Y-53913595D01*
X122580952Y-53913595D02*
X122700000Y-53913595D01*
X122700000Y-53913595D02*
X122771428Y-53951690D01*
X122771428Y-53951690D02*
X122819047Y-54027880D01*
X122819047Y-54027880D02*
X122842857Y-54104071D01*
X122842857Y-54104071D02*
X122866666Y-54256452D01*
X122866666Y-54256452D02*
X122866666Y-54370738D01*
X122866666Y-54370738D02*
X122842857Y-54523119D01*
X122842857Y-54523119D02*
X122819047Y-54599309D01*
X122819047Y-54599309D02*
X122771428Y-54675500D01*
X122771428Y-54675500D02*
X122700000Y-54713595D01*
X122700000Y-54713595D02*
X122580952Y-54713595D01*
D11*
X127569048Y-67073866D02*
X128330953Y-67073866D01*
D12*
X107211905Y-60933609D02*
X107545238Y-60933609D01*
X107688095Y-61457419D02*
X107211905Y-61457419D01*
X107211905Y-61457419D02*
X107211905Y-60457419D01*
X107211905Y-60457419D02*
X107688095Y-60457419D01*
X108069048Y-61409800D02*
X108211905Y-61457419D01*
X108211905Y-61457419D02*
X108450000Y-61457419D01*
X108450000Y-61457419D02*
X108545238Y-61409800D01*
X108545238Y-61409800D02*
X108592857Y-61362180D01*
X108592857Y-61362180D02*
X108640476Y-61266942D01*
X108640476Y-61266942D02*
X108640476Y-61171704D01*
X108640476Y-61171704D02*
X108592857Y-61076466D01*
X108592857Y-61076466D02*
X108545238Y-61028847D01*
X108545238Y-61028847D02*
X108450000Y-60981228D01*
X108450000Y-60981228D02*
X108259524Y-60933609D01*
X108259524Y-60933609D02*
X108164286Y-60885990D01*
X108164286Y-60885990D02*
X108116667Y-60838371D01*
X108116667Y-60838371D02*
X108069048Y-60743133D01*
X108069048Y-60743133D02*
X108069048Y-60647895D01*
X108069048Y-60647895D02*
X108116667Y-60552657D01*
X108116667Y-60552657D02*
X108164286Y-60505038D01*
X108164286Y-60505038D02*
X108259524Y-60457419D01*
X108259524Y-60457419D02*
X108497619Y-60457419D01*
X108497619Y-60457419D02*
X108640476Y-60505038D01*
X109069048Y-61457419D02*
X109069048Y-60457419D01*
X109069048Y-60457419D02*
X109450000Y-60457419D01*
X109450000Y-60457419D02*
X109545238Y-60505038D01*
X109545238Y-60505038D02*
X109592857Y-60552657D01*
X109592857Y-60552657D02*
X109640476Y-60647895D01*
X109640476Y-60647895D02*
X109640476Y-60790752D01*
X109640476Y-60790752D02*
X109592857Y-60885990D01*
X109592857Y-60885990D02*
X109545238Y-60933609D01*
X109545238Y-60933609D02*
X109450000Y-60981228D01*
X109450000Y-60981228D02*
X109069048Y-60981228D01*
X109973810Y-60457419D02*
X110592857Y-60457419D01*
X110592857Y-60457419D02*
X110259524Y-60838371D01*
X110259524Y-60838371D02*
X110402381Y-60838371D01*
X110402381Y-60838371D02*
X110497619Y-60885990D01*
X110497619Y-60885990D02*
X110545238Y-60933609D01*
X110545238Y-60933609D02*
X110592857Y-61028847D01*
X110592857Y-61028847D02*
X110592857Y-61266942D01*
X110592857Y-61266942D02*
X110545238Y-61362180D01*
X110545238Y-61362180D02*
X110497619Y-61409800D01*
X110497619Y-61409800D02*
X110402381Y-61457419D01*
X110402381Y-61457419D02*
X110116667Y-61457419D01*
X110116667Y-61457419D02*
X110021429Y-61409800D01*
X110021429Y-61409800D02*
X109973810Y-61362180D01*
X110973810Y-60552657D02*
X111021429Y-60505038D01*
X111021429Y-60505038D02*
X111116667Y-60457419D01*
X111116667Y-60457419D02*
X111354762Y-60457419D01*
X111354762Y-60457419D02*
X111450000Y-60505038D01*
X111450000Y-60505038D02*
X111497619Y-60552657D01*
X111497619Y-60552657D02*
X111545238Y-60647895D01*
X111545238Y-60647895D02*
X111545238Y-60743133D01*
X111545238Y-60743133D02*
X111497619Y-60885990D01*
X111497619Y-60885990D02*
X110926191Y-61457419D01*
X110926191Y-61457419D02*
X111545238Y-61457419D01*
X111973810Y-61076466D02*
X112735715Y-61076466D01*
X113783333Y-61362180D02*
X113735714Y-61409800D01*
X113735714Y-61409800D02*
X113592857Y-61457419D01*
X113592857Y-61457419D02*
X113497619Y-61457419D01*
X113497619Y-61457419D02*
X113354762Y-61409800D01*
X113354762Y-61409800D02*
X113259524Y-61314561D01*
X113259524Y-61314561D02*
X113211905Y-61219323D01*
X113211905Y-61219323D02*
X113164286Y-61028847D01*
X113164286Y-61028847D02*
X113164286Y-60885990D01*
X113164286Y-60885990D02*
X113211905Y-60695514D01*
X113211905Y-60695514D02*
X113259524Y-60600276D01*
X113259524Y-60600276D02*
X113354762Y-60505038D01*
X113354762Y-60505038D02*
X113497619Y-60457419D01*
X113497619Y-60457419D02*
X113592857Y-60457419D01*
X113592857Y-60457419D02*
X113735714Y-60505038D01*
X113735714Y-60505038D02*
X113783333Y-60552657D01*
X114116667Y-60457419D02*
X114735714Y-60457419D01*
X114735714Y-60457419D02*
X114402381Y-60838371D01*
X114402381Y-60838371D02*
X114545238Y-60838371D01*
X114545238Y-60838371D02*
X114640476Y-60885990D01*
X114640476Y-60885990D02*
X114688095Y-60933609D01*
X114688095Y-60933609D02*
X114735714Y-61028847D01*
X114735714Y-61028847D02*
X114735714Y-61266942D01*
X114735714Y-61266942D02*
X114688095Y-61362180D01*
X114688095Y-61362180D02*
X114640476Y-61409800D01*
X114640476Y-61409800D02*
X114545238Y-61457419D01*
X114545238Y-61457419D02*
X114259524Y-61457419D01*
X114259524Y-61457419D02*
X114164286Y-61409800D01*
X114164286Y-61409800D02*
X114116667Y-61362180D01*
D11*
X122942857Y-73007200D02*
X123085714Y-73054819D01*
X123085714Y-73054819D02*
X123323809Y-73054819D01*
X123323809Y-73054819D02*
X123419047Y-73007200D01*
X123419047Y-73007200D02*
X123466666Y-72959580D01*
X123466666Y-72959580D02*
X123514285Y-72864342D01*
X123514285Y-72864342D02*
X123514285Y-72769104D01*
X123514285Y-72769104D02*
X123466666Y-72673866D01*
X123466666Y-72673866D02*
X123419047Y-72626247D01*
X123419047Y-72626247D02*
X123323809Y-72578628D01*
X123323809Y-72578628D02*
X123133333Y-72531009D01*
X123133333Y-72531009D02*
X123038095Y-72483390D01*
X123038095Y-72483390D02*
X122990476Y-72435771D01*
X122990476Y-72435771D02*
X122942857Y-72340533D01*
X122942857Y-72340533D02*
X122942857Y-72245295D01*
X122942857Y-72245295D02*
X122990476Y-72150057D01*
X122990476Y-72150057D02*
X123038095Y-72102438D01*
X123038095Y-72102438D02*
X123133333Y-72054819D01*
X123133333Y-72054819D02*
X123371428Y-72054819D01*
X123371428Y-72054819D02*
X123514285Y-72102438D01*
X123847619Y-72054819D02*
X124085714Y-73054819D01*
X124085714Y-73054819D02*
X124276190Y-72340533D01*
X124276190Y-72340533D02*
X124466666Y-73054819D01*
X124466666Y-73054819D02*
X124704762Y-72054819D01*
X91995952Y-26264104D02*
X92472142Y-26264104D01*
X91900714Y-26549819D02*
X92234047Y-25549819D01*
X92234047Y-25549819D02*
X92567380Y-26549819D01*
X92900714Y-26549819D02*
X92900714Y-25549819D01*
X92900714Y-25549819D02*
X93138809Y-25549819D01*
X93138809Y-25549819D02*
X93281666Y-25597438D01*
X93281666Y-25597438D02*
X93376904Y-25692676D01*
X93376904Y-25692676D02*
X93424523Y-25787914D01*
X93424523Y-25787914D02*
X93472142Y-25978390D01*
X93472142Y-25978390D02*
X93472142Y-26121247D01*
X93472142Y-26121247D02*
X93424523Y-26311723D01*
X93424523Y-26311723D02*
X93376904Y-26406961D01*
X93376904Y-26406961D02*
X93281666Y-26502200D01*
X93281666Y-26502200D02*
X93138809Y-26549819D01*
X93138809Y-26549819D02*
X92900714Y-26549819D01*
X93853095Y-26502200D02*
X93995952Y-26549819D01*
X93995952Y-26549819D02*
X94234047Y-26549819D01*
X94234047Y-26549819D02*
X94329285Y-26502200D01*
X94329285Y-26502200D02*
X94376904Y-26454580D01*
X94376904Y-26454580D02*
X94424523Y-26359342D01*
X94424523Y-26359342D02*
X94424523Y-26264104D01*
X94424523Y-26264104D02*
X94376904Y-26168866D01*
X94376904Y-26168866D02*
X94329285Y-26121247D01*
X94329285Y-26121247D02*
X94234047Y-26073628D01*
X94234047Y-26073628D02*
X94043571Y-26026009D01*
X94043571Y-26026009D02*
X93948333Y-25978390D01*
X93948333Y-25978390D02*
X93900714Y-25930771D01*
X93900714Y-25930771D02*
X93853095Y-25835533D01*
X93853095Y-25835533D02*
X93853095Y-25740295D01*
X93853095Y-25740295D02*
X93900714Y-25645057D01*
X93900714Y-25645057D02*
X93948333Y-25597438D01*
X93948333Y-25597438D02*
X94043571Y-25549819D01*
X94043571Y-25549819D02*
X94281666Y-25549819D01*
X94281666Y-25549819D02*
X94424523Y-25597438D01*
X95376904Y-26549819D02*
X94805476Y-26549819D01*
X95091190Y-26549819D02*
X95091190Y-25549819D01*
X95091190Y-25549819D02*
X94995952Y-25692676D01*
X94995952Y-25692676D02*
X94900714Y-25787914D01*
X94900714Y-25787914D02*
X94805476Y-25835533D01*
X96329285Y-26549819D02*
X95757857Y-26549819D01*
X96043571Y-26549819D02*
X96043571Y-25549819D01*
X96043571Y-25549819D02*
X95948333Y-25692676D01*
X95948333Y-25692676D02*
X95853095Y-25787914D01*
X95853095Y-25787914D02*
X95757857Y-25835533D01*
X97281666Y-26549819D02*
X96710238Y-26549819D01*
X96995952Y-26549819D02*
X96995952Y-25549819D01*
X96995952Y-25549819D02*
X96900714Y-25692676D01*
X96900714Y-25692676D02*
X96805476Y-25787914D01*
X96805476Y-25787914D02*
X96710238Y-25835533D01*
X98186428Y-25549819D02*
X97710238Y-25549819D01*
X97710238Y-25549819D02*
X97662619Y-26026009D01*
X97662619Y-26026009D02*
X97710238Y-25978390D01*
X97710238Y-25978390D02*
X97805476Y-25930771D01*
X97805476Y-25930771D02*
X98043571Y-25930771D01*
X98043571Y-25930771D02*
X98138809Y-25978390D01*
X98138809Y-25978390D02*
X98186428Y-26026009D01*
X98186428Y-26026009D02*
X98234047Y-26121247D01*
X98234047Y-26121247D02*
X98234047Y-26359342D01*
X98234047Y-26359342D02*
X98186428Y-26454580D01*
X98186428Y-26454580D02*
X98138809Y-26502200D01*
X98138809Y-26502200D02*
X98043571Y-26549819D01*
X98043571Y-26549819D02*
X97805476Y-26549819D01*
X97805476Y-26549819D02*
X97710238Y-26502200D01*
X97710238Y-26502200D02*
X97662619Y-26454580D01*
X96688095Y-78454819D02*
X96688095Y-77454819D01*
X96688095Y-77454819D02*
X97021428Y-78169104D01*
X97021428Y-78169104D02*
X97354761Y-77454819D01*
X97354761Y-77454819D02*
X97354761Y-78454819D01*
X97830952Y-78454819D02*
X97830952Y-77454819D01*
X97830952Y-77454819D02*
X98211904Y-77454819D01*
X98211904Y-77454819D02*
X98307142Y-77502438D01*
X98307142Y-77502438D02*
X98354761Y-77550057D01*
X98354761Y-77550057D02*
X98402380Y-77645295D01*
X98402380Y-77645295D02*
X98402380Y-77788152D01*
X98402380Y-77788152D02*
X98354761Y-77883390D01*
X98354761Y-77883390D02*
X98307142Y-77931009D01*
X98307142Y-77931009D02*
X98211904Y-77978628D01*
X98211904Y-77978628D02*
X97830952Y-77978628D01*
X98830952Y-77454819D02*
X98830952Y-78264342D01*
X98830952Y-78264342D02*
X98878571Y-78359580D01*
X98878571Y-78359580D02*
X98926190Y-78407200D01*
X98926190Y-78407200D02*
X99021428Y-78454819D01*
X99021428Y-78454819D02*
X99211904Y-78454819D01*
X99211904Y-78454819D02*
X99307142Y-78407200D01*
X99307142Y-78407200D02*
X99354761Y-78359580D01*
X99354761Y-78359580D02*
X99402380Y-78264342D01*
X99402380Y-78264342D02*
X99402380Y-77454819D01*
X100307142Y-77454819D02*
X100116666Y-77454819D01*
X100116666Y-77454819D02*
X100021428Y-77502438D01*
X100021428Y-77502438D02*
X99973809Y-77550057D01*
X99973809Y-77550057D02*
X99878571Y-77692914D01*
X99878571Y-77692914D02*
X99830952Y-77883390D01*
X99830952Y-77883390D02*
X99830952Y-78264342D01*
X99830952Y-78264342D02*
X99878571Y-78359580D01*
X99878571Y-78359580D02*
X99926190Y-78407200D01*
X99926190Y-78407200D02*
X100021428Y-78454819D01*
X100021428Y-78454819D02*
X100211904Y-78454819D01*
X100211904Y-78454819D02*
X100307142Y-78407200D01*
X100307142Y-78407200D02*
X100354761Y-78359580D01*
X100354761Y-78359580D02*
X100402380Y-78264342D01*
X100402380Y-78264342D02*
X100402380Y-78026247D01*
X100402380Y-78026247D02*
X100354761Y-77931009D01*
X100354761Y-77931009D02*
X100307142Y-77883390D01*
X100307142Y-77883390D02*
X100211904Y-77835771D01*
X100211904Y-77835771D02*
X100021428Y-77835771D01*
X100021428Y-77835771D02*
X99926190Y-77883390D01*
X99926190Y-77883390D02*
X99878571Y-77931009D01*
X99878571Y-77931009D02*
X99830952Y-78026247D01*
X101021428Y-77454819D02*
X101116666Y-77454819D01*
X101116666Y-77454819D02*
X101211904Y-77502438D01*
X101211904Y-77502438D02*
X101259523Y-77550057D01*
X101259523Y-77550057D02*
X101307142Y-77645295D01*
X101307142Y-77645295D02*
X101354761Y-77835771D01*
X101354761Y-77835771D02*
X101354761Y-78073866D01*
X101354761Y-78073866D02*
X101307142Y-78264342D01*
X101307142Y-78264342D02*
X101259523Y-78359580D01*
X101259523Y-78359580D02*
X101211904Y-78407200D01*
X101211904Y-78407200D02*
X101116666Y-78454819D01*
X101116666Y-78454819D02*
X101021428Y-78454819D01*
X101021428Y-78454819D02*
X100926190Y-78407200D01*
X100926190Y-78407200D02*
X100878571Y-78359580D01*
X100878571Y-78359580D02*
X100830952Y-78264342D01*
X100830952Y-78264342D02*
X100783333Y-78073866D01*
X100783333Y-78073866D02*
X100783333Y-77835771D01*
X100783333Y-77835771D02*
X100830952Y-77645295D01*
X100830952Y-77645295D02*
X100878571Y-77550057D01*
X100878571Y-77550057D02*
X100926190Y-77502438D01*
X100926190Y-77502438D02*
X101021428Y-77454819D01*
X102259523Y-77454819D02*
X101783333Y-77454819D01*
X101783333Y-77454819D02*
X101735714Y-77931009D01*
X101735714Y-77931009D02*
X101783333Y-77883390D01*
X101783333Y-77883390D02*
X101878571Y-77835771D01*
X101878571Y-77835771D02*
X102116666Y-77835771D01*
X102116666Y-77835771D02*
X102211904Y-77883390D01*
X102211904Y-77883390D02*
X102259523Y-77931009D01*
X102259523Y-77931009D02*
X102307142Y-78026247D01*
X102307142Y-78026247D02*
X102307142Y-78264342D01*
X102307142Y-78264342D02*
X102259523Y-78359580D01*
X102259523Y-78359580D02*
X102211904Y-78407200D01*
X102211904Y-78407200D02*
X102116666Y-78454819D01*
X102116666Y-78454819D02*
X101878571Y-78454819D01*
X101878571Y-78454819D02*
X101783333Y-78407200D01*
X101783333Y-78407200D02*
X101735714Y-78359580D01*
X102926190Y-77454819D02*
X103021428Y-77454819D01*
X103021428Y-77454819D02*
X103116666Y-77502438D01*
X103116666Y-77502438D02*
X103164285Y-77550057D01*
X103164285Y-77550057D02*
X103211904Y-77645295D01*
X103211904Y-77645295D02*
X103259523Y-77835771D01*
X103259523Y-77835771D02*
X103259523Y-78073866D01*
X103259523Y-78073866D02*
X103211904Y-78264342D01*
X103211904Y-78264342D02*
X103164285Y-78359580D01*
X103164285Y-78359580D02*
X103116666Y-78407200D01*
X103116666Y-78407200D02*
X103021428Y-78454819D01*
X103021428Y-78454819D02*
X102926190Y-78454819D01*
X102926190Y-78454819D02*
X102830952Y-78407200D01*
X102830952Y-78407200D02*
X102783333Y-78359580D01*
X102783333Y-78359580D02*
X102735714Y-78264342D01*
X102735714Y-78264342D02*
X102688095Y-78073866D01*
X102688095Y-78073866D02*
X102688095Y-77835771D01*
X102688095Y-77835771D02*
X102735714Y-77645295D01*
X102735714Y-77645295D02*
X102783333Y-77550057D01*
X102783333Y-77550057D02*
X102830952Y-77502438D01*
X102830952Y-77502438D02*
X102926190Y-77454819D01*
X148289819Y-32301666D02*
X149289819Y-31968333D01*
X149289819Y-31968333D02*
X148289819Y-31635000D01*
X149289819Y-31158809D02*
X149242200Y-31254047D01*
X149242200Y-31254047D02*
X149194580Y-31301666D01*
X149194580Y-31301666D02*
X149099342Y-31349285D01*
X149099342Y-31349285D02*
X148813628Y-31349285D01*
X148813628Y-31349285D02*
X148718390Y-31301666D01*
X148718390Y-31301666D02*
X148670771Y-31254047D01*
X148670771Y-31254047D02*
X148623152Y-31158809D01*
X148623152Y-31158809D02*
X148623152Y-31015952D01*
X148623152Y-31015952D02*
X148670771Y-30920714D01*
X148670771Y-30920714D02*
X148718390Y-30873095D01*
X148718390Y-30873095D02*
X148813628Y-30825476D01*
X148813628Y-30825476D02*
X149099342Y-30825476D01*
X149099342Y-30825476D02*
X149194580Y-30873095D01*
X149194580Y-30873095D02*
X149242200Y-30920714D01*
X149242200Y-30920714D02*
X149289819Y-31015952D01*
X149289819Y-31015952D02*
X149289819Y-31158809D01*
X149289819Y-30254047D02*
X149242200Y-30349285D01*
X149242200Y-30349285D02*
X149146961Y-30396904D01*
X149146961Y-30396904D02*
X148289819Y-30396904D01*
X148623152Y-30015951D02*
X148623152Y-29634999D01*
X148289819Y-29873094D02*
X149146961Y-29873094D01*
X149146961Y-29873094D02*
X149242200Y-29825475D01*
X149242200Y-29825475D02*
X149289819Y-29730237D01*
X149289819Y-29730237D02*
X149289819Y-29634999D01*
X149289819Y-28873094D02*
X148766009Y-28873094D01*
X148766009Y-28873094D02*
X148670771Y-28920713D01*
X148670771Y-28920713D02*
X148623152Y-29015951D01*
X148623152Y-29015951D02*
X148623152Y-29206427D01*
X148623152Y-29206427D02*
X148670771Y-29301665D01*
X149242200Y-28873094D02*
X149289819Y-28968332D01*
X149289819Y-28968332D02*
X149289819Y-29206427D01*
X149289819Y-29206427D02*
X149242200Y-29301665D01*
X149242200Y-29301665D02*
X149146961Y-29349284D01*
X149146961Y-29349284D02*
X149051723Y-29349284D01*
X149051723Y-29349284D02*
X148956485Y-29301665D01*
X148956485Y-29301665D02*
X148908866Y-29206427D01*
X148908866Y-29206427D02*
X148908866Y-28968332D01*
X148908866Y-28968332D02*
X148861247Y-28873094D01*
X148623152Y-27968332D02*
X149432676Y-27968332D01*
X149432676Y-27968332D02*
X149527914Y-28015951D01*
X149527914Y-28015951D02*
X149575533Y-28063570D01*
X149575533Y-28063570D02*
X149623152Y-28158808D01*
X149623152Y-28158808D02*
X149623152Y-28301665D01*
X149623152Y-28301665D02*
X149575533Y-28396903D01*
X149242200Y-27968332D02*
X149289819Y-28063570D01*
X149289819Y-28063570D02*
X149289819Y-28254046D01*
X149289819Y-28254046D02*
X149242200Y-28349284D01*
X149242200Y-28349284D02*
X149194580Y-28396903D01*
X149194580Y-28396903D02*
X149099342Y-28444522D01*
X149099342Y-28444522D02*
X148813628Y-28444522D01*
X148813628Y-28444522D02*
X148718390Y-28396903D01*
X148718390Y-28396903D02*
X148670771Y-28349284D01*
X148670771Y-28349284D02*
X148623152Y-28254046D01*
X148623152Y-28254046D02*
X148623152Y-28063570D01*
X148623152Y-28063570D02*
X148670771Y-27968332D01*
X149242200Y-27111189D02*
X149289819Y-27206427D01*
X149289819Y-27206427D02*
X149289819Y-27396903D01*
X149289819Y-27396903D02*
X149242200Y-27492141D01*
X149242200Y-27492141D02*
X149146961Y-27539760D01*
X149146961Y-27539760D02*
X148766009Y-27539760D01*
X148766009Y-27539760D02*
X148670771Y-27492141D01*
X148670771Y-27492141D02*
X148623152Y-27396903D01*
X148623152Y-27396903D02*
X148623152Y-27206427D01*
X148623152Y-27206427D02*
X148670771Y-27111189D01*
X148670771Y-27111189D02*
X148766009Y-27063570D01*
X148766009Y-27063570D02*
X148861247Y-27063570D01*
X148861247Y-27063570D02*
X148956485Y-27539760D01*
X126307142Y-59454819D02*
X125830952Y-59454819D01*
X125830952Y-59454819D02*
X125830952Y-58454819D01*
X126640476Y-58931009D02*
X126973809Y-58931009D01*
X127116666Y-59454819D02*
X126640476Y-59454819D01*
X126640476Y-59454819D02*
X126640476Y-58454819D01*
X126640476Y-58454819D02*
X127116666Y-58454819D01*
X127545238Y-59454819D02*
X127545238Y-58454819D01*
X127545238Y-58454819D02*
X127783333Y-58454819D01*
X127783333Y-58454819D02*
X127926190Y-58502438D01*
X127926190Y-58502438D02*
X128021428Y-58597676D01*
X128021428Y-58597676D02*
X128069047Y-58692914D01*
X128069047Y-58692914D02*
X128116666Y-58883390D01*
X128116666Y-58883390D02*
X128116666Y-59026247D01*
X128116666Y-59026247D02*
X128069047Y-59216723D01*
X128069047Y-59216723D02*
X128021428Y-59311961D01*
X128021428Y-59311961D02*
X127926190Y-59407200D01*
X127926190Y-59407200D02*
X127783333Y-59454819D01*
X127783333Y-59454819D02*
X127545238Y-59454819D01*
X134783333Y-65454819D02*
X134450000Y-64978628D01*
X134211905Y-65454819D02*
X134211905Y-64454819D01*
X134211905Y-64454819D02*
X134592857Y-64454819D01*
X134592857Y-64454819D02*
X134688095Y-64502438D01*
X134688095Y-64502438D02*
X134735714Y-64550057D01*
X134735714Y-64550057D02*
X134783333Y-64645295D01*
X134783333Y-64645295D02*
X134783333Y-64788152D01*
X134783333Y-64788152D02*
X134735714Y-64883390D01*
X134735714Y-64883390D02*
X134688095Y-64931009D01*
X134688095Y-64931009D02*
X134592857Y-64978628D01*
X134592857Y-64978628D02*
X134211905Y-64978628D01*
X135735714Y-65454819D02*
X135164286Y-65454819D01*
X135450000Y-65454819D02*
X135450000Y-64454819D01*
X135450000Y-64454819D02*
X135354762Y-64597676D01*
X135354762Y-64597676D02*
X135259524Y-64692914D01*
X135259524Y-64692914D02*
X135164286Y-64740533D01*
X133359580Y-31908572D02*
X133407200Y-31956191D01*
X133407200Y-31956191D02*
X133454819Y-32099048D01*
X133454819Y-32099048D02*
X133454819Y-32194286D01*
X133454819Y-32194286D02*
X133407200Y-32337143D01*
X133407200Y-32337143D02*
X133311961Y-32432381D01*
X133311961Y-32432381D02*
X133216723Y-32480000D01*
X133216723Y-32480000D02*
X133026247Y-32527619D01*
X133026247Y-32527619D02*
X132883390Y-32527619D01*
X132883390Y-32527619D02*
X132692914Y-32480000D01*
X132692914Y-32480000D02*
X132597676Y-32432381D01*
X132597676Y-32432381D02*
X132502438Y-32337143D01*
X132502438Y-32337143D02*
X132454819Y-32194286D01*
X132454819Y-32194286D02*
X132454819Y-32099048D01*
X132454819Y-32099048D02*
X132502438Y-31956191D01*
X132502438Y-31956191D02*
X132550057Y-31908572D01*
X132788152Y-31051429D02*
X133454819Y-31051429D01*
X132788152Y-31480000D02*
X133311961Y-31480000D01*
X133311961Y-31480000D02*
X133407200Y-31432381D01*
X133407200Y-31432381D02*
X133454819Y-31337143D01*
X133454819Y-31337143D02*
X133454819Y-31194286D01*
X133454819Y-31194286D02*
X133407200Y-31099048D01*
X133407200Y-31099048D02*
X133359580Y-31051429D01*
X133454819Y-30575238D02*
X132788152Y-30575238D01*
X132978628Y-30575238D02*
X132883390Y-30527619D01*
X132883390Y-30527619D02*
X132835771Y-30480000D01*
X132835771Y-30480000D02*
X132788152Y-30384762D01*
X132788152Y-30384762D02*
X132788152Y-30289524D01*
X133454819Y-29956190D02*
X132788152Y-29956190D01*
X132978628Y-29956190D02*
X132883390Y-29908571D01*
X132883390Y-29908571D02*
X132835771Y-29860952D01*
X132835771Y-29860952D02*
X132788152Y-29765714D01*
X132788152Y-29765714D02*
X132788152Y-29670476D01*
X133407200Y-28956190D02*
X133454819Y-29051428D01*
X133454819Y-29051428D02*
X133454819Y-29241904D01*
X133454819Y-29241904D02*
X133407200Y-29337142D01*
X133407200Y-29337142D02*
X133311961Y-29384761D01*
X133311961Y-29384761D02*
X132931009Y-29384761D01*
X132931009Y-29384761D02*
X132835771Y-29337142D01*
X132835771Y-29337142D02*
X132788152Y-29241904D01*
X132788152Y-29241904D02*
X132788152Y-29051428D01*
X132788152Y-29051428D02*
X132835771Y-28956190D01*
X132835771Y-28956190D02*
X132931009Y-28908571D01*
X132931009Y-28908571D02*
X133026247Y-28908571D01*
X133026247Y-28908571D02*
X133121485Y-29384761D01*
X132788152Y-28479999D02*
X133454819Y-28479999D01*
X132883390Y-28479999D02*
X132835771Y-28432380D01*
X132835771Y-28432380D02*
X132788152Y-28337142D01*
X132788152Y-28337142D02*
X132788152Y-28194285D01*
X132788152Y-28194285D02*
X132835771Y-28099047D01*
X132835771Y-28099047D02*
X132931009Y-28051428D01*
X132931009Y-28051428D02*
X133454819Y-28051428D01*
X132788152Y-27718094D02*
X132788152Y-27337142D01*
X132454819Y-27575237D02*
X133311961Y-27575237D01*
X133311961Y-27575237D02*
X133407200Y-27527618D01*
X133407200Y-27527618D02*
X133454819Y-27432380D01*
X133454819Y-27432380D02*
X133454819Y-27337142D01*
X90357200Y-58330952D02*
X90404819Y-58188095D01*
X90404819Y-58188095D02*
X90404819Y-57950000D01*
X90404819Y-57950000D02*
X90357200Y-57854762D01*
X90357200Y-57854762D02*
X90309580Y-57807143D01*
X90309580Y-57807143D02*
X90214342Y-57759524D01*
X90214342Y-57759524D02*
X90119104Y-57759524D01*
X90119104Y-57759524D02*
X90023866Y-57807143D01*
X90023866Y-57807143D02*
X89976247Y-57854762D01*
X89976247Y-57854762D02*
X89928628Y-57950000D01*
X89928628Y-57950000D02*
X89881009Y-58140476D01*
X89881009Y-58140476D02*
X89833390Y-58235714D01*
X89833390Y-58235714D02*
X89785771Y-58283333D01*
X89785771Y-58283333D02*
X89690533Y-58330952D01*
X89690533Y-58330952D02*
X89595295Y-58330952D01*
X89595295Y-58330952D02*
X89500057Y-58283333D01*
X89500057Y-58283333D02*
X89452438Y-58235714D01*
X89452438Y-58235714D02*
X89404819Y-58140476D01*
X89404819Y-58140476D02*
X89404819Y-57902381D01*
X89404819Y-57902381D02*
X89452438Y-57759524D01*
X90404819Y-57330952D02*
X89404819Y-57330952D01*
X89404819Y-57330952D02*
X89404819Y-57092857D01*
X89404819Y-57092857D02*
X89452438Y-56950000D01*
X89452438Y-56950000D02*
X89547676Y-56854762D01*
X89547676Y-56854762D02*
X89642914Y-56807143D01*
X89642914Y-56807143D02*
X89833390Y-56759524D01*
X89833390Y-56759524D02*
X89976247Y-56759524D01*
X89976247Y-56759524D02*
X90166723Y-56807143D01*
X90166723Y-56807143D02*
X90261961Y-56854762D01*
X90261961Y-56854762D02*
X90357200Y-56950000D01*
X90357200Y-56950000D02*
X90404819Y-57092857D01*
X90404819Y-57092857D02*
X90404819Y-57330952D01*
X90500057Y-56569048D02*
X90500057Y-55807143D01*
X90309580Y-54997619D02*
X90357200Y-55045238D01*
X90357200Y-55045238D02*
X90404819Y-55188095D01*
X90404819Y-55188095D02*
X90404819Y-55283333D01*
X90404819Y-55283333D02*
X90357200Y-55426190D01*
X90357200Y-55426190D02*
X90261961Y-55521428D01*
X90261961Y-55521428D02*
X90166723Y-55569047D01*
X90166723Y-55569047D02*
X89976247Y-55616666D01*
X89976247Y-55616666D02*
X89833390Y-55616666D01*
X89833390Y-55616666D02*
X89642914Y-55569047D01*
X89642914Y-55569047D02*
X89547676Y-55521428D01*
X89547676Y-55521428D02*
X89452438Y-55426190D01*
X89452438Y-55426190D02*
X89404819Y-55283333D01*
X89404819Y-55283333D02*
X89404819Y-55188095D01*
X89404819Y-55188095D02*
X89452438Y-55045238D01*
X89452438Y-55045238D02*
X89500057Y-54997619D01*
X90404819Y-54140476D02*
X89881009Y-54140476D01*
X89881009Y-54140476D02*
X89785771Y-54188095D01*
X89785771Y-54188095D02*
X89738152Y-54283333D01*
X89738152Y-54283333D02*
X89738152Y-54473809D01*
X89738152Y-54473809D02*
X89785771Y-54569047D01*
X90357200Y-54140476D02*
X90404819Y-54235714D01*
X90404819Y-54235714D02*
X90404819Y-54473809D01*
X90404819Y-54473809D02*
X90357200Y-54569047D01*
X90357200Y-54569047D02*
X90261961Y-54616666D01*
X90261961Y-54616666D02*
X90166723Y-54616666D01*
X90166723Y-54616666D02*
X90071485Y-54569047D01*
X90071485Y-54569047D02*
X90023866Y-54473809D01*
X90023866Y-54473809D02*
X90023866Y-54235714D01*
X90023866Y-54235714D02*
X89976247Y-54140476D01*
X90404819Y-53664285D02*
X89738152Y-53664285D01*
X89928628Y-53664285D02*
X89833390Y-53616666D01*
X89833390Y-53616666D02*
X89785771Y-53569047D01*
X89785771Y-53569047D02*
X89738152Y-53473809D01*
X89738152Y-53473809D02*
X89738152Y-53378571D01*
X90404819Y-52616666D02*
X89404819Y-52616666D01*
X90357200Y-52616666D02*
X90404819Y-52711904D01*
X90404819Y-52711904D02*
X90404819Y-52902380D01*
X90404819Y-52902380D02*
X90357200Y-52997618D01*
X90357200Y-52997618D02*
X90309580Y-53045237D01*
X90309580Y-53045237D02*
X90214342Y-53092856D01*
X90214342Y-53092856D02*
X89928628Y-53092856D01*
X89928628Y-53092856D02*
X89833390Y-53045237D01*
X89833390Y-53045237D02*
X89785771Y-52997618D01*
X89785771Y-52997618D02*
X89738152Y-52902380D01*
X89738152Y-52902380D02*
X89738152Y-52711904D01*
X89738152Y-52711904D02*
X89785771Y-52616666D01*
D13*
%TO.C,ESP32-C3*%
X101800000Y-49570000D02*
X103180000Y-49570000D01*
X101800000Y-50950000D02*
X101800000Y-49570000D01*
X101800000Y-52220000D02*
X101800000Y-70110000D01*
X101800000Y-52220000D02*
X104560000Y-52220000D01*
X101800000Y-70110000D02*
X104560000Y-70110000D01*
X104560000Y-52220000D02*
X104560000Y-70110000D01*
X117340000Y-49570000D02*
X118720000Y-49570000D01*
X117340000Y-50950000D02*
X117340000Y-49570000D01*
X117340000Y-52220000D02*
X117340000Y-70110000D01*
X117340000Y-52220000D02*
X120100000Y-52220000D01*
X117340000Y-70110000D02*
X120100000Y-70110000D01*
X120100000Y-52220000D02*
X120100000Y-70110000D01*
D12*
X100910000Y-49000000D02*
X120910000Y-49000000D01*
X120910000Y-72000000D01*
X100910000Y-72000000D01*
X100910000Y-49000000D01*
D13*
%TO.C,SW*%
X126450000Y-71250000D02*
X126450000Y-72750000D01*
X127700000Y-75250000D02*
X132200000Y-75250000D01*
X132200000Y-68750000D02*
X127700000Y-68750000D01*
X133450000Y-72750000D02*
X133450000Y-71250000D01*
%TO.C,ADS1115*%
X90775000Y-28015000D02*
X90775000Y-30675000D01*
X113695000Y-28015000D02*
X90775000Y-28015000D01*
X113695000Y-28015000D02*
X113695000Y-30675000D01*
X113695000Y-30675000D02*
X90775000Y-30675000D01*
X116295000Y-29345000D02*
X116295000Y-30675000D01*
X116295000Y-30675000D02*
X114965000Y-30675000D01*
%TO.C,MPU6050*%
X93920000Y-73670000D02*
X93920000Y-76330000D01*
X111760000Y-73670000D02*
X93920000Y-73670000D01*
X111760000Y-73670000D02*
X111760000Y-76330000D01*
X111760000Y-76330000D02*
X93920000Y-76330000D01*
X114360000Y-75000000D02*
X114360000Y-76330000D01*
X114360000Y-76330000D02*
X113030000Y-76330000D01*
%TO.C,Voltage*%
X139215000Y-28305000D02*
X139215000Y-30965000D01*
X144355000Y-28305000D02*
X139215000Y-28305000D01*
X144355000Y-28305000D02*
X144355000Y-30965000D01*
X144355000Y-30965000D02*
X139215000Y-30965000D01*
X146955000Y-29635000D02*
X146955000Y-30965000D01*
X146955000Y-30965000D02*
X145625000Y-30965000D01*
%TO.C,LED*%
X129240000Y-64545000D02*
X129240000Y-61455000D01*
X123690000Y-63000000D02*
G75*
G02*
X129240000Y-61455170I2990000J0D01*
G01*
X129240000Y-64544830D02*
G75*
G02*
X123690000Y-63000000I-2560000J1544830D01*
G01*
X129180000Y-63000000D02*
G75*
G02*
X124180000Y-63000000I-2500000J0D01*
G01*
X124180000Y-63000000D02*
G75*
G02*
X129180000Y-63000000I2500000J0D01*
G01*
%TO.C,BuckConverter*%
X137870000Y-55160000D02*
X137870000Y-50020000D01*
X137870000Y-57760000D02*
X137870000Y-56430000D01*
X139200000Y-57760000D02*
X137870000Y-57760000D01*
X140530000Y-50020000D02*
X137870000Y-50020000D01*
X140530000Y-55160000D02*
X137870000Y-55160000D01*
X140530000Y-55160000D02*
X140530000Y-50020000D01*
%TO.C,R1*%
X133030000Y-62080000D02*
X136870000Y-62080000D01*
X133030000Y-63920000D02*
X136870000Y-63920000D01*
%TO.C,Current*%
X124070000Y-28100000D02*
X125400000Y-28100000D01*
X124070000Y-29430000D02*
X124070000Y-28100000D01*
X126670000Y-28100000D02*
X131810000Y-28100000D01*
X126670000Y-30760000D02*
X126670000Y-28100000D01*
X126670000Y-30760000D02*
X131810000Y-30760000D01*
X131810000Y-30760000D02*
X131810000Y-28100000D01*
%TO.C,SD_Card*%
X94620000Y-52270000D02*
X94620000Y-65030000D01*
X94620000Y-52270000D02*
X97280000Y-52270000D01*
X94620000Y-65030000D02*
X97280000Y-65030000D01*
X95950000Y-49670000D02*
X97280000Y-49670000D01*
X97280000Y-49670000D02*
X97280000Y-51000000D01*
X97280000Y-52270000D02*
X97280000Y-65030000D01*
D14*
%TO.C,J1*%
X145260000Y-60300000D02*
G75*
G02*
X144960000Y-60300000I-150000J0D01*
G01*
X144960000Y-60300000D02*
G75*
G02*
X145260000Y-60300000I150000J0D01*
G01*
%TD*%
%LPC*%
D15*
%TO.C,ESP32-C3*%
X118720000Y-68730000D03*
X118720000Y-66190000D03*
X118720000Y-63650000D03*
X118720000Y-61110000D03*
X118720000Y-58570000D03*
D16*
X103180000Y-50950000D03*
D15*
X103180000Y-53490000D03*
X103180000Y-56030000D03*
X103180000Y-58570000D03*
X103180000Y-61110000D03*
X103180000Y-63650000D03*
D16*
X118720000Y-50950000D03*
D15*
X118720000Y-53490000D03*
X118720000Y-56030000D03*
X103180000Y-66190000D03*
X103180000Y-68730000D03*
%TD*%
D17*
%TO.C,SW*%
X126700000Y-69750000D03*
X133200000Y-69750000D03*
X126700000Y-74250000D03*
X133200000Y-74250000D03*
%TD*%
D16*
%TO.C,ADS1115*%
X114965000Y-29345000D03*
D15*
X112425000Y-29345000D03*
X109885000Y-29345000D03*
X107345000Y-29345000D03*
X104805000Y-29345000D03*
X102265000Y-29345000D03*
X99725000Y-29345000D03*
X97185000Y-29345000D03*
X94645000Y-29345000D03*
X92105000Y-29345000D03*
%TD*%
D16*
%TO.C,MPU6050*%
X113030000Y-75000000D03*
D15*
X110490000Y-75000000D03*
X107950000Y-75000000D03*
X105410000Y-75000000D03*
X102870000Y-75000000D03*
X100330000Y-75000000D03*
X97790000Y-75000000D03*
X95250000Y-75000000D03*
%TD*%
D16*
%TO.C,Voltage*%
X145625000Y-29635000D03*
D15*
X143085000Y-29635000D03*
X140545000Y-29635000D03*
%TD*%
D18*
%TO.C,LED*%
X127950000Y-63000000D03*
D19*
X125410000Y-63000000D03*
%TD*%
D16*
%TO.C,BuckConverter*%
X139200000Y-56430000D03*
D15*
X139200000Y-53890000D03*
X139200000Y-51350000D03*
%TD*%
D20*
%TO.C,R1*%
X132410000Y-63000000D03*
X137490000Y-63000000D03*
%TD*%
D16*
%TO.C,Current*%
X125400000Y-29430000D03*
D15*
X127940000Y-29430000D03*
X130480000Y-29430000D03*
%TD*%
D16*
%TO.C,SD_Card*%
X95950000Y-51000000D03*
D15*
X95950000Y-53540000D03*
X95950000Y-56080000D03*
X95950000Y-58620000D03*
X95950000Y-61160000D03*
X95950000Y-63700000D03*
%TD*%
D21*
%TO.C,J1*%
X145010000Y-65650000D03*
X145010000Y-73550000D03*
%TD*%
%LPD*%
M02*
