%TF.GenerationSoftware,KiCad,Pcbnew,9.0.4*%
%TF.CreationDate,2026-06-01T14:33:05-04:00*%
%TF.ProjectId,joulemeter,6a6f756c-656d-4657-9465-722e6b696361,rev?*%
%TF.SameCoordinates,Original*%
%TF.FileFunction,Copper,L1,Top*%
%TF.FilePolarity,Positive*%
%FSLAX46Y46*%
G04 Gerber Fmt 4.6, Leading zero omitted, Abs format (unit mm)*
G04 Created by KiCad (PCBNEW 9.0.4) date 2026-06-01 14:33:05*
%MOMM*%
%LPD*%
G01*
G04 APERTURE LIST*
%TA.AperFunction,ComponentPad*%
%ADD10C,1.700000*%
%TD*%
%TA.AperFunction,ComponentPad*%
%ADD11R,1.700000X1.700000*%
%TD*%
%TA.AperFunction,ComponentPad*%
%ADD12C,2.000000*%
%TD*%
%TA.AperFunction,ComponentPad*%
%ADD13R,1.800000X1.800000*%
%TD*%
%TA.AperFunction,ComponentPad*%
%ADD14C,1.800000*%
%TD*%
%TA.AperFunction,ComponentPad*%
%ADD15C,1.400000*%
%TD*%
%TA.AperFunction,ComponentPad*%
%ADD16O,3.270000X6.540000*%
%TD*%
%TA.AperFunction,Conductor*%
%ADD17C,1.000000*%
%TD*%
%TA.AperFunction,Conductor*%
%ADD18C,0.200000*%
%TD*%
%TA.AperFunction,Conductor*%
%ADD19C,0.500000*%
%TD*%
%TA.AperFunction,Conductor*%
%ADD20C,0.800000*%
%TD*%
%TA.AperFunction,Conductor*%
%ADD21C,2.000000*%
%TD*%
G04 APERTURE END LIST*
D10*
%TO.P,ESP32-C3,0,GPIO0*%
%TO.N,Net-(ESP32-C3-GPIO0)*%
X118720000Y-68730000D03*
%TO.P,ESP32-C3,1,GPIO1*%
%TO.N,Net-(D1-A)*%
X118720000Y-66190000D03*
%TO.P,ESP32-C3,2,GPIO2*%
%TO.N,unconnected-(ESP32-C3-GPIO2-Pad2)*%
X118720000Y-63650000D03*
%TO.P,ESP32-C3,3,GPIO3*%
%TO.N,unconnected-(ESP32-C3-GPIO3-Pad3)*%
X118720000Y-61110000D03*
%TO.P,ESP32-C3,4,GPIO4-SCK*%
%TO.N,SCK*%
X118720000Y-58570000D03*
D11*
%TO.P,ESP32-C3,5,5-MISO*%
%TO.N,MISO*%
X103180000Y-50950000D03*
D10*
%TO.P,ESP32-C3,6,6-MOSI*%
%TO.N,MOSI*%
X103180000Y-53490000D03*
%TO.P,ESP32-C3,7,7-SS*%
%TO.N,Net-(ESP32-C3-7-SS)*%
X103180000Y-56030000D03*
%TO.P,ESP32-C3,8,8-SDA*%
%TO.N,SDA*%
X103180000Y-58570000D03*
%TO.P,ESP32-C3,9,9-SCL*%
%TO.N,SCL*%
X103180000Y-61110000D03*
%TO.P,ESP32-C3,10,GPIO10*%
%TO.N,unconnected-(ESP32-C3-GPIO10-Pad10)*%
X103180000Y-63650000D03*
D11*
%TO.P,ESP32-C3,11,5V*%
%TO.N,+5V*%
X118720000Y-50950000D03*
D10*
%TO.P,ESP32-C3,12,GND*%
%TO.N,GND*%
X118720000Y-53490000D03*
%TO.P,ESP32-C3,13,3.3V*%
%TO.N,3.3V*%
X118720000Y-56030000D03*
%TO.P,ESP32-C3,20,20-RX*%
%TO.N,unconnected-(ESP32-C3-20-RX-Pad20)*%
X103180000Y-66190000D03*
%TO.P,ESP32-C3,21,21-TX*%
%TO.N,unconnected-(ESP32-C3-21-TX-Pad21)*%
X103180000Y-68730000D03*
%TD*%
D12*
%TO.P,SW,1,1*%
%TO.N,Net-(ESP32-C3-GPIO0)*%
X126700000Y-69750000D03*
X133200000Y-69750000D03*
%TO.P,SW,2,2*%
%TO.N,GND*%
X126700000Y-74250000D03*
X133200000Y-74250000D03*
%TD*%
D11*
%TO.P,ADS1115,1,VDD*%
%TO.N,+5V*%
X114965000Y-29345000D03*
D10*
%TO.P,ADS1115,2,GND*%
%TO.N,GND*%
X112425000Y-29345000D03*
%TO.P,ADS1115,3,SCL*%
%TO.N,SCL*%
X109885000Y-29345000D03*
%TO.P,ADS1115,4,SDA*%
%TO.N,SDA*%
X107345000Y-29345000D03*
%TO.P,ADS1115,5,ADDR*%
%TO.N,unconnected-(ADS1115-ADDR-Pad5)*%
X104805000Y-29345000D03*
%TO.P,ADS1115,6,ALRT*%
%TO.N,unconnected-(ADS1115-ALRT-Pad6)*%
X102265000Y-29345000D03*
%TO.P,ADS1115,7,A0*%
%TO.N,Net-(ADS1115-A0)*%
X99725000Y-29345000D03*
%TO.P,ADS1115,8,A1*%
%TO.N,Net-(ADS1115-A1)*%
X97185000Y-29345000D03*
%TO.P,ADS1115,9,A2*%
%TO.N,unconnected-(ADS1115-A2-Pad9)*%
X94645000Y-29345000D03*
%TO.P,ADS1115,10,A3*%
%TO.N,unconnected-(ADS1115-A3-Pad10)*%
X92105000Y-29345000D03*
%TD*%
D11*
%TO.P,MPU6050,1,VCC*%
%TO.N,3.3V*%
X113030000Y-75000000D03*
D10*
%TO.P,MPU6050,2,GND*%
%TO.N,GND*%
X110490000Y-75000000D03*
%TO.P,MPU6050,3,SCL*%
%TO.N,SCL*%
X107950000Y-75000000D03*
%TO.P,MPU6050,4,SDA*%
%TO.N,SDA*%
X105410000Y-75000000D03*
%TO.P,MPU6050,5,XDA*%
%TO.N,unconnected-(MPU1-XDA-Pad5)*%
X102870000Y-75000000D03*
%TO.P,MPU6050,6,XCL*%
%TO.N,unconnected-(MPU1-XCL-Pad6)*%
X100330000Y-75000000D03*
%TO.P,MPU6050,7,ADO*%
%TO.N,unconnected-(MPU1-ADO-Pad7)*%
X97790000Y-75000000D03*
%TO.P,MPU6050,8,INT*%
%TO.N,unconnected-(MPU1-INT-Pad8)*%
X95250000Y-75000000D03*
%TD*%
D11*
%TO.P,Voltage,1,S*%
%TO.N,Net-(ADS1115-A1)*%
X145625000Y-29635000D03*
D10*
%TO.P,Voltage,2,+*%
%TO.N,unconnected-(VoltageSensor1-+-Pad2)*%
X143085000Y-29635000D03*
%TO.P,Voltage,3,-*%
%TO.N,GND*%
X140545000Y-29635000D03*
%TD*%
D13*
%TO.P,LED,1,K*%
%TO.N,Net-(D1-K)*%
X127950000Y-63000000D03*
D14*
%TO.P,LED,2,A*%
%TO.N,Net-(D1-A)*%
X125410000Y-63000000D03*
%TD*%
D11*
%TO.P,BuckConverter,1,External_Power*%
%TO.N,External_Power*%
X139200000Y-56430000D03*
D10*
%TO.P,BuckConverter,2,VCC*%
%TO.N,+5V*%
X139200000Y-53890000D03*
%TO.P,BuckConverter,3,GND*%
%TO.N,GND*%
X139200000Y-51350000D03*
%TD*%
D15*
%TO.P,R1,1*%
%TO.N,Net-(D1-K)*%
X132410000Y-63000000D03*
%TO.P,R1,2*%
%TO.N,GND*%
X137490000Y-63000000D03*
%TD*%
D11*
%TO.P,Current,1,VCC*%
%TO.N,+5V*%
X125400000Y-29430000D03*
D10*
%TO.P,Current,2,OUT*%
%TO.N,Net-(ADS1115-A0)*%
X127940000Y-29430000D03*
%TO.P,Current,3,GND*%
%TO.N,GND*%
X130480000Y-29430000D03*
%TD*%
D11*
%TO.P,SD_Card,1,GND*%
%TO.N,GND*%
X95950000Y-51000000D03*
D10*
%TO.P,SD_Card,2,MISO*%
%TO.N,MISO*%
X95950000Y-53540000D03*
%TO.P,SD_Card,3,CLK*%
%TO.N,SCK*%
X95950000Y-56080000D03*
%TO.P,SD_Card,4,MOSI*%
%TO.N,MOSI*%
X95950000Y-58620000D03*
%TO.P,SD_Card,5,CS*%
%TO.N,Net-(ESP32-C3-7-SS)*%
X95950000Y-61160000D03*
%TO.P,SD_Card,6,3.3V*%
%TO.N,3.3V*%
X95950000Y-63700000D03*
%TD*%
D16*
%TO.P,J1,1,1*%
%TO.N,External_Power*%
X145010000Y-65650000D03*
%TO.P,J1,2,2*%
%TO.N,GND*%
X145010000Y-73550000D03*
%TD*%
D17*
%TO.N,+5V*%
X138920000Y-53970000D02*
X132550000Y-53970000D01*
X129410000Y-50950000D02*
X118720000Y-50950000D01*
D18*
X132550000Y-53970000D02*
X132490000Y-54030000D01*
X125300000Y-29330000D02*
X125400000Y-29430000D01*
D17*
X114965000Y-29345000D02*
X114965000Y-47195000D01*
X132490000Y-54030000D02*
X129410000Y-50950000D01*
X115830000Y-29430000D02*
X125400000Y-29430000D01*
X114965000Y-29345000D02*
X115745000Y-29345000D01*
X115745000Y-29345000D02*
X115830000Y-29430000D01*
X114965000Y-47195000D02*
X118720000Y-50950000D01*
D19*
%TO.N,SDA*%
X99950000Y-69540000D02*
X99950000Y-61800000D01*
X107345000Y-54405000D02*
X103180000Y-58570000D01*
X99950000Y-61800000D02*
X103180000Y-58570000D01*
X107345000Y-29345000D02*
X107345000Y-54405000D01*
X105410000Y-75000000D02*
X99950000Y-69540000D01*
%TO.N,SCL*%
X107950000Y-65880000D02*
X107950000Y-75000000D01*
X109885000Y-54405000D02*
X103180000Y-61110000D01*
X103180000Y-61110000D02*
X107950000Y-65880000D01*
X109885000Y-29345000D02*
X109885000Y-54405000D01*
%TO.N,GND*%
X132900000Y-74550000D02*
X133200000Y-74250000D01*
X126700000Y-74250000D02*
X127000000Y-74550000D01*
D20*
%TO.N,3.3V*%
X93950000Y-80000000D02*
X107950000Y-80000000D01*
X91950000Y-67700000D02*
X91950000Y-78000000D01*
D18*
X112950000Y-75000000D02*
X113030000Y-75000000D01*
D20*
X113030000Y-75000000D02*
X113030000Y-61720000D01*
X95950000Y-63700000D02*
X91950000Y-67700000D01*
X107950000Y-80000000D02*
X112950000Y-75000000D01*
X113030000Y-61720000D02*
X118720000Y-56030000D01*
X91950000Y-78000000D02*
X93950000Y-80000000D01*
D19*
%TO.N,Net-(ADS1115-A0)*%
X99725000Y-29345000D02*
X104995000Y-24075000D01*
X122585000Y-24075000D02*
X127940000Y-29430000D01*
X104995000Y-24075000D02*
X122585000Y-24075000D01*
%TO.N,Net-(ADS1115-A1)*%
X104295000Y-22235000D02*
X138225000Y-22235000D01*
X138225000Y-22235000D02*
X145625000Y-29635000D01*
X97185000Y-29345000D02*
X104295000Y-22235000D01*
D21*
%TO.N,External_Power*%
X139200000Y-59840000D02*
X145010000Y-65650000D01*
X139200000Y-56430000D02*
X139200000Y-59840000D01*
D19*
%TO.N,Net-(D1-A)*%
X121910000Y-63000000D02*
X125410000Y-63000000D01*
X118720000Y-66190000D02*
X121910000Y-63000000D01*
%TO.N,Net-(D1-K)*%
X127950000Y-63000000D02*
X132410000Y-63000000D01*
%TO.N,Net-(ESP32-C3-7-SS)*%
X95950000Y-61160000D02*
X101080000Y-56030000D01*
X101080000Y-56030000D02*
X103180000Y-56030000D01*
%TO.N,SCK*%
X117950000Y-74000000D02*
X115950000Y-72000000D01*
X92950000Y-83000000D02*
X111950000Y-83000000D01*
X95950000Y-56080000D02*
X87950000Y-64080000D01*
X115950000Y-72000000D02*
X115950000Y-61340000D01*
X115950000Y-61340000D02*
X118720000Y-58570000D01*
X111950000Y-83000000D02*
X117950000Y-77000000D01*
X117950000Y-77000000D02*
X117950000Y-74000000D01*
X87950000Y-64080000D02*
X87950000Y-78000000D01*
X87950000Y-78000000D02*
X92950000Y-83000000D01*
%TO.N,MOSI*%
X101080000Y-53490000D02*
X103180000Y-53490000D01*
X95950000Y-58620000D02*
X101080000Y-53490000D01*
%TO.N,MISO*%
X95950000Y-53540000D02*
X98540000Y-50950000D01*
X98540000Y-50950000D02*
X103180000Y-50950000D01*
%TO.N,Net-(ESP32-C3-GPIO0)*%
X119740000Y-69750000D02*
X126700000Y-69750000D01*
X126950000Y-69500000D02*
X132950000Y-69500000D01*
X126700000Y-69750000D02*
X126950000Y-69500000D01*
X132950000Y-69500000D02*
X133200000Y-69750000D01*
X118720000Y-68730000D02*
X119740000Y-69750000D01*
%TD*%
M02*
